<svg width="24" height="24" viewBox="0 0 24 24" fill="none" xmlns="http://www.w3.org/2000/svg">
<path d="M16.7929 11.2928C17.1834 11.6834 17.1834 12.3165 16.7929 12.7071L13.9643 15.5356C13.5737 15.9262 12.9403 15.926 12.5498 15.5353V15.5353C12.1595 15.1446 12.1595 14.5115 12.5501 14.1211L14.672 12L12.5501 9.87881C12.1595 9.4884 12.1595 8.85525 12.5498 8.46464V8.46464C12.9403 8.07388 13.5737 8.07369 13.9643 8.46431L16.7929 11.2928Z" fill="black"/>
<path d="M11.4499 11.2928C11.8404 11.6834 11.8404 12.3165 11.4499 12.7071L8.62136 15.5356C8.23074 15.9262 7.5973 15.926 7.20681 15.5353V15.5353C6.81647 15.1446 6.81656 14.5115 7.20711 14.1211L9.329 12L7.20711 9.87881C6.81656 9.4884 6.81647 8.85525 7.20681 8.46464V8.46464C7.5973 8.07388 8.23073 8.07369 8.62136 8.46431L11.4499 11.2928Z" fill="black"/>
</svg>
