<svg width="24" height="24" viewBox="0 0 24 24" fill="none" xmlns="http://www.w3.org/2000/svg">
<path d="M15.672 11.964L11.429 7.721C11.0385 7.33054 11.0385 6.69747 11.429 6.307V6.307C11.8195 5.91654 12.4525 5.91654 12.843 6.307L17.7929 11.2569C18.1834 11.6474 18.1834 12.2806 17.7929 12.6711L12.843 17.621C12.4525 18.0115 11.8195 18.0115 11.429 17.621V17.621C11.0385 17.2305 11.0385 16.5975 11.429 16.207L15.672 11.964Z" fill="black"/>
<path d="M10.45 11.964L6.207 7.72103C5.81653 7.33057 5.81653 6.6975 6.207 6.30703V6.30703C6.59746 5.91657 7.23053 5.91657 7.621 6.30703L12.5709 11.2569C12.9614 11.6475 12.9614 12.2806 12.5709 12.6711L7.621 17.621C7.23053 18.0115 6.59747 18.0115 6.207 17.621V17.621C5.81653 17.2306 5.81653 16.5975 6.207 16.207L10.45 11.964Z" fill="black"/>
</svg>
