<svg width="24" height="24" viewBox="0 0 24 24" fill="none" xmlns="http://www.w3.org/2000/svg">
<path d="M8.328 11.964L12.571 7.721C12.9615 7.33054 12.9615 6.69747 12.571 6.307V6.307C12.1805 5.91654 11.5475 5.91654 11.157 6.307L6.20711 11.2569C5.81658 11.6474 5.81658 12.2806 6.20711 12.6711L11.157 17.621C11.5475 18.0115 12.1805 18.0115 12.571 17.621V17.621C12.9615 17.2305 12.9615 16.5975 12.571 16.207L8.328 11.964Z" fill="black"/>
<path d="M13.55 11.964L17.793 7.72103C18.1835 7.33057 18.1835 6.6975 17.793 6.30703V6.30703C17.4025 5.91657 16.7695 5.91657 16.379 6.30703L11.4291 11.2569C11.0386 11.6475 11.0386 12.2806 11.4291 12.6711L16.379 17.621C16.7695 18.0115 17.4025 18.0115 17.793 17.621V17.621C18.1835 17.2306 18.1835 16.5975 17.793 16.207L13.55 11.964Z" fill="black"/>
</svg>
