<svg width="24" height="24" viewBox="0 0 24 24" fill="none" xmlns="http://www.w3.org/2000/svg">
<path d="M9.11712 4.88288H10.9189V6.68468H10.1081L12.7207 9.2973V8.48649H19.9279V16.5045L21.7297 18.3063V6.68468H12.7207V3.08108H6.5045L9.11712 5.69369V4.88288ZM16.3243 10.2883H18.1261V12.0901H16.3243V10.2883ZM3.08108 2L2 3.17117L3.71171 4.88288V19.2973H18.1261L20.8288 22L22 20.8288L3.08108 2V2ZM7.31532 17.4955H5.51351V15.6937H7.31532V17.4955ZM7.31532 13.8919H5.51351V12.0901H7.31532V13.8919ZM7.31532 10.2883H5.51351V8.48649H7.31532V10.2883ZM10.9189 17.4955H9.11712V15.6937H10.9189V17.4955ZM10.9189 13.8919H9.11712V12.0901H10.9189V13.8919ZM12.7207 17.4955V15.6937H14.5225L16.3243 17.4955H12.7207Z" fill="black"/>
</svg>
