<svg width="24" height="24" viewBox="0 0 24 24" fill="none" xmlns="http://www.w3.org/2000/svg">
<path fill-rule="evenodd" clip-rule="evenodd" d="M11.9988 12.9284C14.5234 12.9284 16.9546 12.7864 19.3058 12.4714C19.4941 12.4439 19.6823 12.4177 19.8705 12.3902C20.4845 12.2983 21 11.8962 21 11.2947C21 10.7267 20.5497 10.2494 19.9714 10.1993V10.1957C19.9714 7.17184 18.1788 4.5537 15.5729 3.2852L15.2383 5.12172L14.8446 7.28998C14.7917 7.56444 14.5198 7.7494 14.238 7.70286C13.955 7.65155 13.7643 7.38783 13.8123 7.11456L14.2626 4.642L14.6256 2.6432C14.5038 2.27088 14.1408 2 13.7151 2H10.2837C9.85796 2 9.4987 2.27088 9.37321 2.6432L9.73616 4.642L10.1865 7.11456C10.2357 7.38902 10.0437 7.65274 9.76077 7.70286C9.47778 7.7506 9.20588 7.56444 9.1542 7.28998L8.76049 5.12172L8.42953 3.2852C5.82119 4.5537 4.03226 7.17184 4.03226 10.1957V10.1993C3.45031 10.2506 3 10.7267 3 11.2947C3 11.8974 3.51675 12.2995 4.13315 12.3902C4.3177 12.4177 4.50595 12.4439 4.69419 12.4678C7.04539 12.7852 9.47902 12.9272 12.0012 12.9272L11.9988 12.9284ZM19.3157 13.4928C16.8919 13.8103 14.4435 13.9427 11.9988 13.9427C9.55407 13.9427 7.10567 13.8103 4.68189 13.4928C4.75202 15.4475 5.34135 17.2411 6.28626 18.6683C7.13028 19.9475 8.25974 20.9344 9.55776 21.4928C10.3218 21.821 11.1412 22 11.9988 22C12.8563 22 13.6757 21.821 14.4435 21.4928C15.7378 20.9344 16.8673 19.9475 17.7113 18.6683C18.6562 17.2411 19.2455 15.4475 19.3157 13.4928Z" fill="black"/>
</svg>
