<svg width="24" height="24" viewBox="0 0 24 24" fill="none" xmlns="http://www.w3.org/2000/svg">
<path d="M18.8384 2.09508C19.3851 2.09508 19.8288 2.53882 19.8288 3.08557V6.80684L10.9154 15.7213L10.9095 19.919L15.1151 19.9249L19.8288 15.2112V20.9144C19.8288 21.4612 19.3851 21.9049 18.8384 21.9049H2.99049C2.44374 21.9049 2 21.4612 2 20.9144V3.08557C2 2.53882 2.44374 2.09508 2.99049 2.09508H18.8384ZM20.5994 8.83834L22 10.2389L14.296 17.9429L12.8934 17.941L12.8954 16.5424L20.5994 8.83834V8.83834ZM10.9144 12H5.96197V13.981H10.9144V12ZM13.8859 8.03803H5.96197V10.019H13.8859V8.03803Z" fill="black"/>
</svg>
