<svg width="24" height="24" viewBox="0 0 24 24" fill="none" xmlns="http://www.w3.org/2000/svg">
<path d="M2 2H4.22222V4.22222H2V2ZM6.44444 2H8.66667V4.22222H6.44444V2ZM10.8889 2H13.1111V4.22222H10.8889V2ZM15.3333 2H17.5556V4.22222H15.3333V2ZM19.7778 2H22V4.22222H19.7778V2ZM19.7778 6.44444H22V8.66667H19.7778V6.44444ZM2 19.7778H4.22222V22H2V19.7778ZM2 15.3333H4.22222V17.5556H2V15.3333ZM2 10.8889H4.22222V13.1111H2V10.8889ZM2 6.44444H4.22222V8.66667H2V6.44444ZM10.5189 10.8889L11.67 9.16111C11.7715 9.00898 11.909 8.88426 12.0702 8.79801C12.2315 8.71175 12.4116 8.66664 12.5944 8.66667H15.85C16.0329 8.66664 16.2129 8.71175 16.3742 8.79801C16.5355 8.88426 16.6729 9.00898 16.7744 9.16111L17.9256 10.8889H20.8889C21.1836 10.8889 21.4662 11.006 21.6746 11.2143C21.8829 11.4227 22 11.7053 22 12V20.8889C22 21.1836 21.8829 21.4662 21.6746 21.6746C21.4662 21.8829 21.1836 22 20.8889 22H7.55556C7.26087 22 6.97826 21.8829 6.76988 21.6746C6.56151 21.4662 6.44444 21.1836 6.44444 20.8889V12C6.44444 11.7053 6.56151 11.4227 6.76988 11.2143C6.97826 11.006 7.26087 10.8889 7.55556 10.8889H10.5189ZM14.2222 18.6667C14.8116 18.6667 15.3768 18.4325 15.7936 18.0158C16.2103 17.599 16.4444 17.0338 16.4444 16.4444C16.4444 15.8551 16.2103 15.2898 15.7936 14.8731C15.3768 14.4563 14.8116 14.2222 14.2222 14.2222C13.6329 14.2222 13.0676 14.4563 12.6509 14.8731C12.2341 15.2898 12 15.8551 12 16.4444C12 17.0338 12.2341 17.599 12.6509 18.0158C13.0676 18.4325 13.6329 18.6667 14.2222 18.6667Z" fill="black"/>
</svg>
