<svg width="24" height="24" viewBox="0 0 24 24" fill="none" xmlns="http://www.w3.org/2000/svg">
<path d="M4.94809 6.28107L2.00004 3.33396L3.33406 1.99994L22 20.6669L20.666 21.9999L17.5454 18.8794C15.8873 19.9311 13.9636 20.488 12 20.4849C6.9166 20.4849 2.68732 16.8269 1.80017 11.9999C2.20559 9.80395 3.31014 7.7979 4.94903 6.28107H4.94809ZM14.5993 15.9332L13.219 14.553C12.6911 14.8056 12.0979 14.8882 11.521 14.7894C10.9442 14.6906 10.4122 14.4154 9.99841 14.0016C9.58459 13.5878 9.30933 13.0558 9.21058 12.4789C9.11182 11.9021 9.19442 11.3088 9.44701 10.7809L8.06679 9.40071C7.46692 10.3072 7.19875 11.3931 7.30769 12.4746C7.41664 13.5561 7.89601 14.5667 8.66462 15.3354C9.43323 16.104 10.4439 16.5833 11.5254 16.6923C12.6069 16.8012 13.6928 16.5331 14.5993 15.9332V15.9332ZM8.20443 4.23148C9.38007 3.76953 10.6613 3.51498 12 3.51498C17.0835 3.51498 21.3128 7.17294 22.1999 11.9999C21.911 13.5703 21.2617 15.0522 20.303 16.3292L16.6639 12.69C16.772 11.9619 16.7081 11.2185 16.4772 10.5195C16.2463 9.82044 15.8549 9.18521 15.3344 8.66466C14.8138 8.14411 14.1786 7.75272 13.4796 7.52183C12.7806 7.29095 12.0372 7.227 11.309 7.33509L8.20443 4.23243V4.23148Z" fill="black"/>
</svg>
