<svg width="24" height="24" viewBox="0 0 24 24" fill="none" xmlns="http://www.w3.org/2000/svg">
<path d="M12.4762 14.621V22H2.95237C2.95207 20.837 3.21801 19.6894 3.7298 18.6451C4.24159 17.6008 4.98564 16.6876 5.90496 15.9753C6.82427 15.263 7.89444 14.7706 9.03347 14.5359C10.1725 14.3011 11.3501 14.3302 12.4762 14.621V14.621ZM10.5714 13.4286C7.41427 13.4286 4.85713 10.8714 4.85713 7.71429C4.85713 4.55714 7.41427 2 10.5714 2C13.7286 2 16.2857 4.55714 16.2857 7.71429C16.2857 10.8714 13.7286 13.4286 10.5714 13.4286ZM16.2857 17.2381V14.381H18.1905V17.2381H21.0476V19.1429H18.1905V22H16.2857V19.1429H13.4286V17.2381H16.2857Z" fill="black"/>
</svg>
