<svg width="24" height="24" viewBox="0 0 24 24" fill="none" xmlns="http://www.w3.org/2000/svg">
<path d="M2 4.21667C2 2.99222 2.99222 2 4.21667 2H19.7833C21.0078 2 22 2.99222 22 4.21667V19.7833C22 20.3712 21.7665 20.935 21.3508 21.3508C20.935 21.7665 20.3712 22 19.7833 22H4.21667C3.62877 22 3.06495 21.7665 2.64925 21.3508C2.23354 20.935 2 20.3712 2 19.7833V4.21667ZM5.73 18.6667H18.4967C17.7807 17.6371 16.8261 16.7962 15.7145 16.2157C14.603 15.6353 13.3674 15.3325 12.1133 15.3333C10.8593 15.3325 9.62372 15.6353 8.51212 16.2157C7.40053 16.7962 6.44597 17.6371 5.73 18.6667V18.6667ZM12 13.1111C12.5107 13.1111 13.0164 13.0105 13.4882 12.8151C13.96 12.6197 14.3887 12.3332 14.7499 11.9721C15.111 11.611 15.3974 11.1823 15.5929 10.7104C15.7883 10.2386 15.8889 9.73292 15.8889 9.22222C15.8889 8.71153 15.7883 8.20583 15.5929 7.73401C15.3974 7.26219 15.111 6.83348 14.7499 6.47236C14.3887 6.11125 13.96 5.82479 13.4882 5.62936C13.0164 5.43392 12.5107 5.33333 12 5.33333C10.9686 5.33333 9.97945 5.74305 9.25014 6.47236C8.52083 7.20167 8.11111 8.19083 8.11111 9.22222C8.11111 10.2536 8.52083 11.2428 9.25014 11.9721C9.97945 12.7014 10.9686 13.1111 12 13.1111V13.1111Z" fill="black"/>
</svg>
