<svg width="24" height="24" viewBox="0 0 24 24" fill="none" xmlns="http://www.w3.org/2000/svg">
<path d="M9 3H15L17 5H21C21.2652 5 21.5196 5.10536 21.7071 5.29289C21.8946 5.48043 22 5.73478 22 6V20C22 20.2652 21.8946 20.5196 21.7071 20.7071C21.5196 20.8946 21.2652 21 21 21H3C2.73478 21 2.48043 20.8946 2.29289 20.7071C2.10536 20.5196 2 20.2652 2 20V6C2 5.73478 2.10536 5.48043 2.29289 5.29289C2.48043 5.10536 2.73478 5 3 5H7L9 3ZM14.684 18.368L13.789 16.578C13.1791 16.883 12.5014 17.027 11.8202 16.9963C11.1391 16.9657 10.477 16.7614 9.89699 16.4029C9.31696 16.0444 8.83821 15.5436 8.5062 14.948C8.17419 14.3524 7.99994 13.6819 8 13H10.001L7.839 8.677C6.80455 9.67169 6.16088 11.0042 6.02476 12.4329C5.88864 13.8615 6.26909 15.2916 7.0971 16.4637C7.9251 17.6359 9.1458 18.4724 10.5378 18.8216C11.9297 19.1708 13.4008 19.0095 14.684 18.367V18.368ZM9.316 7.632L10.211 9.422C10.8209 9.11703 11.4986 8.97303 12.1798 9.00368C12.8609 9.03432 13.523 9.23859 14.103 9.59709C14.683 9.95558 15.1618 10.4564 15.4938 11.052C15.8258 11.6476 16.0001 12.3181 16 13H13.999L16.16 17.323C17.1945 16.3283 17.8381 14.9958 17.9742 13.5671C18.1104 12.1385 17.7299 10.7084 16.9019 9.53627C16.0739 8.36413 14.8532 7.52758 13.4612 7.17839C12.0693 6.82919 10.5982 6.99048 9.315 7.633L9.316 7.632Z" fill="black"/>
</svg>
