<svg width="24" height="24" viewBox="0 0 24 24" fill="none" xmlns="http://www.w3.org/2000/svg">
<path d="M2 13.005H7.50425C7.67621 16.1876 8.69067 19.2674 10.4438 21.9291C8.24786 21.5842 6.22813 20.5213 4.70038 18.9067C3.17264 17.292 2.22302 15.2166 2 13.005V13.005ZM2 10.995C2.22302 8.78338 3.17264 6.70798 4.70038 5.09332C6.22813 3.47866 8.24786 2.41578 10.4438 2.07085C8.69067 4.73263 7.67621 7.81241 7.50425 10.995H2ZM21.999 10.995H16.4947C16.3228 7.81241 15.3083 4.73263 13.5552 2.07085C15.7511 2.41578 17.7709 3.47866 19.2986 5.09332C20.8264 6.70798 21.776 8.78338 21.999 10.995V10.995ZM21.999 13.005C21.776 15.2166 20.8264 17.292 19.2986 18.9067C17.7709 20.5213 15.7511 21.5842 13.5552 21.9291C15.3083 19.2674 16.3228 16.1876 16.4947 13.005H22H21.999ZM9.51721 13.005H14.4818C14.3164 15.7179 13.462 18.3438 11.9995 20.6347C10.537 18.3438 9.68262 15.7179 9.51721 13.005V13.005ZM9.51721 10.995C9.68262 8.28211 10.537 5.65616 11.9995 3.36525C13.462 5.65616 14.3164 8.28211 14.4818 10.995H9.51721Z" fill="black"/>
</svg>
