<svg width="24" height="24" viewBox="0 0 24 24" fill="none" xmlns="http://www.w3.org/2000/svg">
<path d="M5.51272 12.6486L7.45863 14.5945L8.7559 13.2973L6.81091 11.3514L8.7559 9.40545L11.3514 12L12.6486 10.7027L10.055 8.10726L12 6.16135L13.9459 8.10726L15.2441 6.80999L13.2973 4.86408L15.8927 2.26862C16.0648 2.09662 16.2981 2 16.5414 2C16.7846 2 17.018 2.09662 17.19 2.26862L21.7314 6.80999C21.9034 6.98204 22 7.21535 22 7.45863C22 7.7019 21.9034 7.93522 21.7314 8.10726L8.10726 21.7314C7.93522 21.9034 7.7019 22 7.45863 22C7.21535 22 6.98204 21.9034 6.80999 21.7314L2.26862 17.19C2.09662 17.018 2 16.7846 2 16.5414C2 16.2981 2.09662 16.0648 2.26862 15.8927L5.51272 12.6486V12.6486Z" fill="black"/>
</svg>
