<svg width="24" height="24" viewBox="0 0 24 24" fill="none" xmlns="http://www.w3.org/2000/svg">
<path d="M2.95238 5.33336H18.1905C18.4431 5.33336 18.6853 5.4337 18.8639 5.6123C19.0425 5.79091 19.1429 6.03315 19.1429 6.28574V17.7143C19.1429 17.9669 19.0425 18.2091 18.8639 18.3877C18.6853 18.5664 18.4431 18.6667 18.1905 18.6667H2.95238C2.69979 18.6667 2.45755 18.5664 2.27895 18.3877C2.10034 18.2091 2 17.9669 2 17.7143V6.28574C2 6.03315 2.10034 5.79091 2.27895 5.6123C2.45755 5.4337 2.69979 5.33336 2.95238 5.33336V5.33336ZM20.0952 9.14288H22V14.8572H20.0952V9.14288Z" fill="black"/>
</svg>
