<svg width="24" height="24" viewBox="0 0 24 24" fill="none" xmlns="http://www.w3.org/2000/svg">
<path d="M4.00001 20V14C4.00001 11.8783 4.84287 9.84344 6.34316 8.34315C7.84345 6.84285 9.87828 6 12 6C14.1217 6 16.1566 6.84285 17.6569 8.34315C19.1572 9.84344 20 11.8783 20 14V20H21V22H3.00001V20H4.00001ZM6.00001 14H8.00001C8.00001 12.9391 8.42144 11.9217 9.17159 11.1716C9.92173 10.4214 10.9391 10 12 10V8C10.4087 8 8.88259 8.63214 7.75737 9.75736C6.63216 10.8826 6.00001 12.4087 6.00001 14V14ZM11 2H13V5H11V2ZM19.778 4.808L21.192 6.222L19.072 8.343L17.657 6.929L19.778 4.808ZM2.80801 6.222L4.22201 4.808L6.34301 6.928L4.93001 8.344L2.80801 6.222Z" fill="black"/>
</svg>
