<svg width="24" height="24" viewBox="0 0 24 24" fill="none" xmlns="http://www.w3.org/2000/svg">
<path d="M2 7.57648C4.82855 5.28498 8.35972 4.03705 12 4.04244C15.7887 4.04244 19.2679 5.36604 22 7.57648L20.3333 9.63925C17.9761 7.72991 15.0335 6.69022 12 6.69496C8.8435 6.69496 5.94341 7.7984 3.66667 9.63925L2 7.57648ZM4.77719 11.0159C6.82016 9.36074 9.37068 8.45936 12 8.4633C14.7356 8.4633 17.2485 9.41909 19.2228 11.015L17.5561 13.0787C15.9845 11.8057 14.0225 11.1125 12 11.1158C9.89567 11.1158 7.96287 11.8515 6.44386 13.0787L4.77719 11.015V11.0159ZM7.55526 14.4553C8.81242 13.4367 10.3819 12.8819 12 12.8842C13.6835 12.8842 15.2299 13.4721 16.4447 14.4545L14.7781 16.5181C13.9922 15.8817 13.0113 15.5351 12 15.5367C10.9888 15.5351 10.0078 15.8817 9.22193 16.5181L7.55526 14.4545V14.4553ZM10.3333 17.8948C10.8046 17.5126 11.3932 17.3043 12 17.305C12.6313 17.305 13.2113 17.5261 13.6667 17.8939L12 19.9576L10.3333 17.8939V17.8948Z" fill="black"/>
</svg>
