<svg width="24" height="24" viewBox="0 0 24 24" fill="none" xmlns="http://www.w3.org/2000/svg">
<path d="M14.0508 19.9491L11.9998 22L9.94894 19.9491C5.91803 19.0182 2.90894 15.4036 2.90894 11.0909C2.90894 6.07273 6.98166 2 11.9998 2C17.018 2 21.0908 6.07273 21.0908 11.0909C21.0908 15.4036 18.0817 19.0182 14.0508 19.9491ZM6.56621 14.1964C7.90075 16.1873 9.90439 17.4545 12.1453 17.4545C14.3853 17.4545 16.3898 16.1882 17.7235 14.1964C16.2105 12.7824 14.2162 11.9971 12.1453 12C10.0741 11.9969 8.0794 12.7821 6.56621 14.1964V14.1964ZM11.9998 10.1818C12.7232 10.1818 13.4169 9.89448 13.9283 9.38302C14.4398 8.87156 14.7271 8.17786 14.7271 7.45455C14.7271 6.73123 14.4398 6.03754 13.9283 5.52607C13.4169 5.01461 12.7232 4.72727 11.9998 4.72727C11.2765 4.72727 10.5828 5.01461 10.0714 5.52607C9.55991 6.03754 9.27257 6.73123 9.27257 7.45455C9.27257 8.17786 9.55991 8.87156 10.0714 9.38302C10.5828 9.89448 11.2765 10.1818 11.9998 10.1818V10.1818Z" fill="black"/>
</svg>
