<svg width="24" height="24" viewBox="0 0 24 24" fill="none" xmlns="http://www.w3.org/2000/svg">
<path d="M2 12C2.86884 7.26756 7.01618 3.68127 12 3.68127C16.9838 3.68127 21.1302 7.26756 22 12C21.1312 16.7324 16.9838 20.3187 12 20.3187C7.01618 20.3187 2.86977 16.7324 2 12ZM12 16.6215C13.2257 16.6215 14.4012 16.1346 15.2679 15.2679C16.1346 14.4012 16.6215 13.2257 16.6215 12C16.6215 10.7743 16.1346 9.59878 15.2679 8.73208C14.4012 7.86538 13.2257 7.37847 12 7.37847C10.7743 7.37847 9.59881 7.86538 8.73211 8.73208C7.86541 9.59878 7.3785 10.7743 7.3785 12C7.3785 13.2257 7.86541 14.4012 8.73211 15.2679C9.59881 16.1346 10.7743 16.6215 12 16.6215ZM12 14.7729C11.2646 14.7729 10.5593 14.4807 10.0393 13.9607C9.51924 13.4407 9.2271 12.7354 9.2271 12C9.2271 11.2646 9.51924 10.5593 10.0393 10.0392C10.5593 9.51922 11.2646 9.22707 12 9.22707C12.7354 9.22707 13.4407 9.51922 13.9607 10.0392C14.4808 10.5593 14.7729 11.2646 14.7729 12C14.7729 12.7354 14.4808 13.4407 13.9607 13.9607C13.4407 14.4807 12.7354 14.7729 12 14.7729Z" fill="black"/>
</svg>
