<svg width="24" height="24" viewBox="0 0 24 24" fill="none" xmlns="http://www.w3.org/2000/svg">
<path d="M11.091 17.0014V19.7293H9.27232V17.0014C7.94839 17.0009 6.64968 16.6392 5.51615 15.9552C4.38262 15.2712 3.45724 14.2908 2.83974 13.1197C2.22224 11.9486 1.93604 10.6312 2.01198 9.30949C2.08792 7.98774 2.52312 6.71178 3.27067 5.61911C4.01823 4.52644 5.0498 3.6585 6.25422 3.10881C7.45863 2.55912 8.79022 2.34854 10.1055 2.49975C11.4207 2.65096 12.6698 3.15824 13.718 3.96691C14.7663 4.77558 15.574 5.85499 16.0541 7.0888C16.7382 6.95721 17.4423 6.97 18.1211 7.12635C18.8 7.28271 19.4388 7.57917 19.9964 7.99674C20.5541 8.41432 21.0183 8.94379 21.3595 9.55123C21.7006 10.1587 21.911 10.8307 21.9773 11.5242C22.0436 12.2177 21.9643 12.9174 21.7444 13.5784C21.5245 14.2395 21.169 14.8473 20.7006 15.363C20.2321 15.8786 19.6611 16.2907 19.0241 16.5729C18.3871 16.855 17.6982 17.001 17.0016 17.0014H11.091ZM12.9096 18.82H14.7283V21.548H12.9096V18.82Z" fill="black"/>
</svg>
