<svg width="24" height="24" viewBox="0 0 24 24" fill="none" xmlns="http://www.w3.org/2000/svg">
<path fill-rule="evenodd" clip-rule="evenodd" d="M21 20.993V9H15C14.7348 9 14.4804 8.89464 14.2929 8.70711C14.1054 8.51957 14 8.26522 14 8V2H3.998C3.447 2 3 2.455 3 2.992V21.008C3.00027 21.2712 3.105 21.5235 3.2912 21.7095C3.47739 21.8955 3.72981 22 3.993 22H20.007C20.1383 21.9991 20.2682 21.9723 20.3892 21.9212C20.5101 21.8701 20.6199 21.7957 20.7121 21.7022C20.8043 21.6087 20.8772 21.4979 20.9266 21.3762C20.976 21.2545 21.0009 21.1243 21 20.993ZM16 7H21L16 2.003V7ZM12.5714 12.5714H16V11.4286H12.5714V8H11.4286V11.4286H8V12.5714H11.4286V16H12.5714V12.5714Z" fill="black"/>
</svg>
