<svg width="24" height="24" viewBox="0 0 24 24" fill="none" xmlns="http://www.w3.org/2000/svg">
<path d="M7 5.99998V2.99998C7 2.73477 7.10536 2.48041 7.29289 2.29288C7.48043 2.10534 7.73478 1.99998 8 1.99998H20C20.2652 1.99998 20.5196 2.10534 20.7071 2.29288C20.8946 2.48041 21 2.73477 21 2.99998V17C21 17.2652 20.8946 17.5196 20.7071 17.7071C20.5196 17.8946 20.2652 18 20 18H17V21C17 21.552 16.55 22 15.993 22H4.007C3.87513 22.0008 3.7444 21.9755 3.62232 21.9256C3.50025 21.8757 3.38923 21.8022 3.29566 21.7093C3.20208 21.6164 3.12779 21.5059 3.07705 21.3841C3.02632 21.2624 3.00013 21.1319 3 21L3.003 6.99998C3.003 6.44798 3.453 5.99998 4.01 5.99998H7ZM9 5.99998H17V16H19V3.99998H9V5.99998ZM7 11V13H13V11H7ZM7 15V17H13V15H7Z" fill="black"/>
</svg>
