<svg width="24" height="24" viewBox="0 0 24 24" fill="none" xmlns="http://www.w3.org/2000/svg">
<path d="M9.26877 19.4376C7.94547 19.3592 6.6646 18.9416 5.54936 18.2251C4.43412 17.5085 3.52203 16.517 2.90081 15.3459C2.2796 14.1749 1.97016 12.8637 2.00227 11.5385C2.03437 10.2132 2.40693 8.91855 3.08412 7.77896C3.76131 6.63936 4.72035 5.69319 5.86898 5.03145C7.01761 4.36971 8.31719 4.01465 9.64273 4.00044C10.9683 3.98623 12.2752 4.31334 13.4377 4.95031C14.6003 5.58728 15.5794 6.51267 16.2808 7.63749C17.7918 7.68575 19.2268 8.31142 20.2904 9.38571C21.3541 10.46 21.9654 11.9012 21.9986 13.4125C22.0318 14.9239 21.4843 16.3905 20.4689 17.5105C19.4534 18.6304 18.0473 19.3185 16.5399 19.433V19.4503H9.26877V19.4376Z" fill="black"/>
</svg>
