<svg width="24" height="24" viewBox="0 0 24 24" fill="none" xmlns="http://www.w3.org/2000/svg">
<path d="M19.6916 10.8819L20.8354 11.568C20.906 11.6102 20.9644 11.67 21.005 11.7416C21.0455 11.8131 21.0668 11.894 21.0668 11.9762C21.0668 12.0585 21.0455 12.1393 21.005 12.2108C20.9644 12.2824 20.906 12.3422 20.8354 12.3844L12 17.6857L3.16456 12.3844C3.09399 12.3422 3.03558 12.2824 2.99503 12.2108C2.95447 12.1393 2.93316 12.0585 2.93316 11.9762C2.93316 11.894 2.95447 11.8131 2.99503 11.7416C3.03558 11.67 3.09399 11.6102 3.16456 11.568L4.30836 10.8819L12 15.4971L19.6916 10.8819ZM19.6916 15.3543L20.8354 16.0404C20.906 16.0827 20.9644 16.1425 21.005 16.214C21.0455 16.2856 21.0668 16.3664 21.0668 16.4486C21.0668 16.5309 21.0455 16.6117 21.005 16.6833C20.9644 16.7548 20.906 16.8146 20.8354 16.8569L12.4901 21.8641C12.3421 21.953 12.1727 22 12 22C11.8273 22 11.6579 21.953 11.5099 21.8641L3.16456 16.8569C3.09399 16.8146 3.03558 16.7548 2.99503 16.6833C2.95447 16.6117 2.93316 16.5309 2.93316 16.4486C2.93316 16.3664 2.95447 16.2856 2.99503 16.214C3.03558 16.1425 3.09399 16.0827 3.16456 16.0404L4.30836 15.3543L12 19.9695L19.6916 15.3543V15.3543ZM12.4891 2.1359L20.8354 7.14312C20.906 7.18537 20.9644 7.24518 21.005 7.31673C21.0455 7.38827 21.0668 7.46911 21.0668 7.55135C21.0668 7.63359 21.0455 7.71443 21.005 7.78598C20.9644 7.85752 20.906 7.91734 20.8354 7.95958L12 13.2608L3.16456 7.95958C3.09399 7.91734 3.03558 7.85752 2.99503 7.78598C2.95447 7.71443 2.93316 7.63359 2.93316 7.55135C2.93316 7.46911 2.95447 7.38827 2.99503 7.31673C3.03558 7.24518 3.09399 7.18537 3.16456 7.14312L11.5099 2.1359C11.6579 2.04698 11.8273 2 12 2C12.1727 2 12.3421 2.04698 12.4901 2.1359H12.4891Z" fill="black"/>
</svg>
