<svg width="24" height="24" viewBox="0 0 24 24" fill="none" xmlns="http://www.w3.org/2000/svg">
<path d="M18.3353 16.8055C18.3074 16.2605 18.157 15.7288 17.8954 15.2499C17.6337 14.771 17.2674 14.3572 16.8238 14.0393C16.3802 13.7214 15.8707 13.5076 15.3331 13.4137C14.7955 13.3199 14.2437 13.3484 13.7186 13.4971C13.5276 12.622 13.02 11.8482 12.2933 11.3246C11.5666 10.8009 10.6721 10.5641 9.78146 10.6599C8.89086 10.7556 8.06701 11.1769 7.46817 11.8431C6.86933 12.5092 6.53772 13.3731 6.53703 14.2688C6.53703 15.2494 6.92562 16.1382 7.55571 16.791C6.34197 16.4974 5.22442 15.8959 4.31095 15.0445C3.39749 14.193 2.71896 13.1205 2.34089 11.9303C1.96282 10.7402 1.89798 9.47271 2.15261 8.25021C2.40725 7.02771 2.97277 5.8915 3.79457 4.9513C4.61637 4.01109 5.66669 3.29864 6.84413 2.88272C8.02157 2.46681 9.28636 2.36149 10.5164 2.57693C11.7464 2.79237 12.9001 3.32129 13.8661 4.11262C14.8321 4.90396 15.5777 5.93098 16.031 7.09452C17.2991 6.84195 18.6158 7.0911 19.7039 7.78955C20.792 8.488 21.5668 9.5813 21.8652 10.8394C22.1636 12.0975 21.9624 13.4223 21.3038 14.535C20.6453 15.6478 19.5809 16.4617 18.3344 16.8055H18.3353ZM10.1687 16.0846C9.68709 16.0846 9.22522 15.8933 8.88469 15.5528C8.54416 15.2123 8.35285 14.7504 8.35285 14.2688C8.35285 13.7872 8.54416 13.3254 8.88469 12.9849C9.22522 12.6443 9.68709 12.453 10.1687 12.453C10.6503 12.453 11.1121 12.6443 11.4526 12.9849C11.7932 13.3254 11.9845 13.7872 11.9845 14.2688C11.9845 14.7504 11.7932 15.2123 11.4526 15.5528C11.1121 15.8933 10.6503 16.0846 10.1687 16.0846ZM14.7082 18.8084C14.2266 18.8084 13.7648 18.6171 13.4242 18.2765C13.0837 17.936 12.8924 17.4741 12.8924 16.9926C12.8924 16.511 13.0837 16.0491 13.4242 15.7086C13.7648 15.368 14.2266 15.1767 14.7082 15.1767C15.1898 15.1767 15.6517 15.368 15.9922 15.7086C16.3327 16.0491 16.524 16.511 16.524 16.9926C16.524 17.4741 16.3327 17.936 15.9922 18.2765C15.6517 18.6171 15.1898 18.8084 14.7082 18.8084ZM10.1687 21.5321C9.68709 21.5321 9.22522 21.3408 8.88469 21.0003C8.54416 20.6597 8.35285 20.1979 8.35285 19.7163C8.35285 19.2347 8.54416 18.7728 8.88469 18.4323C9.22522 18.0918 9.68709 17.9005 10.1687 17.9005C10.6503 17.9005 11.1121 18.0918 11.4526 18.4323C11.7932 18.7728 11.9845 19.2347 11.9845 19.7163C11.9845 20.1979 11.7932 20.6597 11.4526 21.0003C11.1121 21.3408 10.6503 21.5321 10.1687 21.5321Z" fill="black"/>
</svg>
