<svg width="24" height="24" viewBox="0 0 24 24" fill="none" xmlns="http://www.w3.org/2000/svg">
<path d="M13.9048 4.85714H15.8095C17.0725 4.85714 18.2837 5.35884 19.1767 6.25187C20.0697 7.1449 20.5714 8.35611 20.5714 9.61905V13.4286H18.6667V9.61905C18.6667 8.86129 18.3657 8.13456 17.8298 7.59874C17.294 7.06292 16.5673 6.7619 15.8095 6.7619H13.9048V9.61905L9.14287 5.80952L13.9048 2V4.85714ZM14.8572 11.5238V21.0476C14.8572 21.3002 14.7568 21.5424 14.5782 21.7211C14.3996 21.8997 14.1574 22 13.9048 22H4.38097C4.12838 22 3.88614 21.8997 3.70753 21.7211C3.52893 21.5424 3.42859 21.3002 3.42859 21.0476V11.5238C3.42859 11.2712 3.52893 11.029 3.70753 10.8504C3.88614 10.6718 4.12838 10.5714 4.38097 10.5714H13.9048C14.1574 10.5714 14.3996 10.6718 14.5782 10.8504C14.7568 11.029 14.8572 11.2712 14.8572 11.5238Z" fill="black"/>
</svg>
