<svg width="24" height="24" viewBox="0 0 24 24" fill="none" xmlns="http://www.w3.org/2000/svg">
<path fill-rule="evenodd" clip-rule="evenodd" d="M13.2033 22H10.7137C10.5477 22 10.3817 21.8333 10.2988 21.6667L9.63485 19.0833C9.51874 19.0367 9.40912 18.9966 9.30236 18.9575C9.02763 18.857 8.77185 18.7634 8.47303 18.5833L6.23237 19.9167C6.06639 20 5.90041 20 5.73444 19.8333L3.9917 18.0833C3.82573 17.9167 3.82573 17.75 3.90871 17.5833L5.3195 15.4167C5.15353 15.0833 4.98755 14.6667 4.82158 14.25L2.33195 13.6667C2.16598 13.5833 2 13.4167 2 13.25V10.75C2 10.5833 2.16598 10.4167 2.33195 10.3333L4.90456 9.66667C4.98755 9.33333 5.15353 8.91667 5.3195 8.58333L3.9917 6.33333C3.90871 6.16667 3.90871 5.91667 4.07469 5.83333L5.81743 4.08333C5.90041 3.91667 6.14938 3.91667 6.31535 4L8.55602 5.33333C8.88797 5.16667 9.3029 5 9.71784 4.83333L10.2988 2.33333C10.3817 2.16667 10.5477 2 10.7137 2H13.2033C13.3693 2 13.5353 2.16667 13.6183 2.33333L14.2822 4.91667C14.3983 4.96331 14.5079 5.00342 14.6147 5.04249C14.8894 5.14303 15.1452 5.23663 15.444 5.41667L17.6846 4.08333C17.8506 4 18.0166 4 18.1826 4.16667L19.9253 5.91667C20.0913 6.08333 20.0913 6.25 20.0083 6.41667L18.6051 8.57168L18.6209 8.6308C18.7791 8.95575 18.9372 9.35284 19.0954 9.74993L19.0954 9.75L21.6681 10.4167C21.834 10.5 22 10.6667 22 10.8333V13.3333C22 13.5 21.834 13.6667 21.6681 13.75L19.0954 14.4167C19.049 14.5333 19.009 14.6433 18.9701 14.7506C18.87 15.0264 18.7768 15.2833 18.5975 15.5833L19.9253 17.8333C20.0083 18 20.0083 18.1667 19.8423 18.3333L18.0996 20.0833C17.9336 20.25 17.7676 20.25 17.6017 20.1667L15.361 18.6667C15.0355 18.8301 14.6303 18.9935 14.2235 19.1569L14.1789 19.2538L13.6183 21.6667C13.5353 21.8333 13.3693 22 13.2033 22ZM6.15076 4.83419L6.13923 4.84353L6.14938 4.83333L6.15076 4.83419ZM12 15C13.6569 15 15 13.6569 15 12C15 10.3431 13.6569 9 12 9C10.3431 9 9 10.3431 9 12C9 13.6569 10.3431 15 12 15Z" fill="black"/>
</svg>
