<svg width="24" height="24" viewBox="0 0 24 24" fill="none" xmlns="http://www.w3.org/2000/svg">
<path d="M12.0004 18.0152C12.6317 18.0152 13.2117 18.2362 13.6679 18.604L12.0004 20.6676L10.333 18.604C10.8046 18.222 11.3935 18.014 12.0004 18.0152V18.0152ZM3.87348 3.3324L19.5023 18.9621L18.2522 20.2123L14.9968 16.9587L14.7784 17.2292C13.9927 16.5925 13.0118 16.2456 12.0004 16.2469C10.9895 16.2456 10.009 16.5921 9.22338 17.2283L7.55678 15.1648C8.71858 14.2236 10.1499 13.6767 11.6433 13.6034L10.0757 12.0367C8.74641 12.3324 7.50379 12.9322 6.44543 13.7891L4.77707 11.7264C5.72999 10.9547 6.80039 10.3407 7.94757 9.9077L6.59396 8.55498C5.54478 9.0242 4.56104 9.62782 3.66748 10.3507L2 8.28709C2.80898 7.63283 3.68251 7.05725 4.60996 6.5701L2.62243 4.58345L3.87348 3.3324V3.3324ZM15.6112 12.5955L12.1914 9.17652L12.0004 9.17387C14.7368 9.17387 17.2495 10.1296 19.2238 11.7264L17.5563 13.7899C16.9624 13.3091 16.3085 12.9073 15.6112 12.5946V12.5955ZM12.0004 4.7532C15.789 4.7532 19.268 6.07675 22 8.28709L20.3343 10.3498C17.977 8.44032 15.0341 7.40067 12.0004 7.4056C11.4947 7.4056 10.9961 7.4339 10.5063 7.48871L8.219 5.20499C9.43115 4.90969 10.6981 4.7532 12.0004 4.7532Z" fill="black"/>
</svg>
