<svg width="24" height="24" viewBox="0 0 24 24" fill="none" xmlns="http://www.w3.org/2000/svg">
<path d="M5.21821 2H18.7817C19.0387 2 19.2851 2.10207 19.4668 2.28376C19.6485 2.46545 19.7505 2.71187 19.7505 2.96882V21.515C19.7506 21.6016 19.7275 21.6867 19.6836 21.7613C19.6397 21.836 19.5765 21.8975 19.5007 21.9394C19.4249 21.9814 19.3393 22.0022 19.2527 21.9998C19.1661 21.9974 19.0818 21.9718 19.0084 21.9258L12 17.5302L4.99151 21.9248C4.91823 21.9708 4.83396 21.9964 4.74746 21.9988C4.66096 22.0013 4.57538 21.9805 4.49963 21.9387C4.42388 21.8968 4.36071 21.8355 4.31671 21.761C4.2727 21.6865 4.24945 21.6015 4.24939 21.515V2.96882C4.24939 2.71187 4.35146 2.46545 4.53315 2.28376C4.71484 2.10207 4.96126 2 5.21821 2Z" fill="black"/>
</svg>
