<svg width="24" height="24" viewBox="0 0 24 24" fill="none" xmlns="http://www.w3.org/2000/svg">
<path d="M6.44454 15.6364H2.90909C2.66798 15.6364 2.43675 15.5406 2.26627 15.3701C2.09578 15.1996 2 14.9684 2 14.7273V9.27275C2 9.03165 2.09578 8.80041 2.26627 8.62993C2.43675 8.45944 2.66798 8.36366 2.90909 8.36366H6.44454L11.2573 4.42548C11.3239 4.37089 11.4046 4.33633 11.4901 4.32584C11.5755 4.31534 11.6622 4.32934 11.74 4.3662C11.8179 4.40307 11.8836 4.46128 11.9296 4.53405C11.9757 4.60683 12.0001 4.69119 12 4.7773V19.2227C12.0001 19.3089 11.9757 19.3932 11.9296 19.466C11.8836 19.5388 11.8179 19.597 11.74 19.6338C11.6622 19.6707 11.5755 19.6847 11.4901 19.6742C11.4046 19.6637 11.3239 19.6292 11.2573 19.5746L6.44454 15.6364ZM18.7327 19.3946L17.4455 18.1073C18.3072 17.3405 18.9967 16.3997 19.4684 15.347C19.94 14.2943 20.1832 13.1536 20.1818 12C20.1829 10.7874 19.914 9.58971 19.3944 8.494C18.8749 7.39829 18.1178 6.43206 17.1782 5.66548L18.4691 4.37457C19.5768 5.31234 20.4666 6.48046 21.0764 7.79747C21.6862 9.11448 22.0014 10.5487 22 12C22 14.93 20.74 17.5655 18.7327 19.3946ZM15.5118 16.1737L14.2191 14.8809C14.6604 14.5416 15.0178 14.1052 15.2635 13.6057C15.5093 13.1061 15.6369 12.5568 15.6364 12C15.6364 10.7 14.9545 9.55911 13.9273 8.91639L15.2355 7.60821C15.924 8.11474 16.4837 8.77625 16.8692 9.53922C17.2548 10.3022 17.4553 11.1452 17.4545 12C17.4545 13.6746 16.7 15.1727 15.5118 16.1737Z" fill="black"/>
</svg>
