<svg width="24" height="24" viewBox="0 0 24 24" fill="none" xmlns="http://www.w3.org/2000/svg">
<path d="M10.8851 14.093V21.5349H3.44324C3.44324 19.5612 4.22729 17.6683 5.62291 16.2727C7.01853 14.8771 8.91139 14.093 10.8851 14.093ZM10.8851 13.1628C7.80138 13.1628 5.3037 10.6651 5.3037 7.5814C5.3037 4.49767 7.80138 2 10.8851 2C13.9688 2 16.4665 4.49767 16.4665 7.5814C16.4665 10.6651 13.9688 13.1628 10.8851 13.1628ZM13.2991 18.5693C13.1811 18.073 13.1811 17.5559 13.2991 17.0595L12.3763 16.5265L13.3065 14.9153L14.2293 15.4484C14.5997 15.0976 15.0474 14.8388 15.5363 14.693V13.6279H17.3967V14.693C17.8916 14.84 18.3381 15.1023 18.7037 15.4484L19.6265 14.9153L20.5567 16.5265L19.6339 17.0595C19.7517 17.5556 19.7517 18.0723 19.6339 18.5684L20.5567 19.1014L19.6265 20.7126L18.7037 20.1795C18.3333 20.5303 17.8856 20.7891 17.3967 20.9349V22H15.5363V20.9349C15.0474 20.7891 14.5997 20.5303 14.2293 20.1795L13.3065 20.7126L12.3763 19.1014L13.2991 18.5693ZM16.4665 16.8837C16.2198 16.8837 15.9832 16.9817 15.8087 17.1562C15.6343 17.3306 15.5363 17.5672 15.5363 17.814C15.5363 18.0607 15.6343 18.2973 15.8087 18.4717C15.9832 18.6462 16.2198 18.7442 16.4665 18.7442C16.7132 18.7442 16.9498 18.6462 17.1243 18.4717C17.2987 18.2973 17.3967 18.0607 17.3967 17.814C17.3967 17.5672 17.2987 17.3306 17.1243 17.1562C16.9498 16.9817 16.7132 16.8837 16.4665 16.8837Z" fill="black"/>
</svg>
