<svg width="24" height="24" viewBox="0 0 24 24" fill="none" xmlns="http://www.w3.org/2000/svg">
<path d="M10.0952 4.85714H8.19046C6.92752 4.85714 5.71631 5.35884 4.82328 6.25187C3.93025 7.1449 3.42856 8.35611 3.42856 9.61905V13.4286H5.33332V9.61905C5.33332 8.86129 5.63434 8.13456 6.17015 7.59874C6.70597 7.06292 7.4327 6.7619 8.19046 6.7619H10.0952V9.61905L14.8571 5.80952L10.0952 2V4.85714ZM9.14284 11.5238V21.0476C9.14284 21.3002 9.24318 21.5424 9.42179 21.7211C9.60039 21.8997 9.84263 22 10.0952 22H19.619C19.8716 22 20.1139 21.8997 20.2925 21.7211C20.4711 21.5424 20.5714 21.3002 20.5714 21.0476V11.5238C20.5714 11.2712 20.4711 11.029 20.2925 10.8504C20.1139 10.6718 19.8716 10.5714 19.619 10.5714H10.0952C9.84263 10.5714 9.60039 10.6718 9.42179 10.8504C9.24318 11.029 9.14284 11.2712 9.14284 11.5238Z" fill="black"/>
</svg>
