<svg width="24" height="24" viewBox="0 0 24 24" fill="none" xmlns="http://www.w3.org/2000/svg">
<path d="M10.656 13.8451V21.1344H3.3667C3.3667 19.2012 4.13468 17.3471 5.50168 15.9801C6.86869 14.6131 8.72275 13.8451 10.656 13.8451ZM10.656 12.9339C7.63549 12.9339 5.18902 10.4875 5.18902 7.46697C5.18902 4.44647 7.63549 2 10.656 2C13.6765 2 16.123 4.44647 16.123 7.46697C16.123 10.4875 13.6765 12.9339 10.656 12.9339ZM19.2628 19.3412L20.6332 20.7116L19.3448 22L17.9744 20.6296C17.2103 21.0802 16.308 21.2366 15.4368 21.0695C14.5656 20.9024 13.7852 20.4233 13.242 19.722C12.6987 19.0207 12.4299 18.1454 12.4859 17.26C12.5419 16.3747 12.9189 15.5402 13.5461 14.9129C14.1734 14.2857 15.0079 13.9087 15.8932 13.8527C16.7786 13.7967 17.6539 14.0655 18.3552 14.6088C19.0565 15.152 19.5356 15.9324 19.7027 16.8036C19.8698 17.6748 19.7134 18.5771 19.2628 19.3412ZM16.123 19.3121C16.6063 19.3121 17.0698 19.1201 17.4115 18.7783C17.7533 18.4366 17.9453 17.9731 17.9453 17.4897C17.9453 17.0064 17.7533 16.5429 17.4115 16.2012C17.0698 15.8594 16.6063 15.6674 16.123 15.6674C15.6397 15.6674 15.1761 15.8594 14.8344 16.2012C14.4926 16.5429 14.3006 17.0064 14.3006 17.4897C14.3006 17.9731 14.4926 18.4366 14.8344 18.7783C15.1761 19.1201 15.6397 19.3121 16.123 19.3121Z" fill="black"/>
</svg>
