<svg width="24" height="24" viewBox="0 0 24 24" fill="none" xmlns="http://www.w3.org/2000/svg">
<path d="M12 21.3889C10.8473 21.3889 9.70582 21.1619 8.64084 20.7208C7.57585 20.2796 6.60818 19.6331 5.79307 18.8179C4.97797 18.0028 4.33139 17.0352 3.89026 15.9702C3.44913 14.9052 3.22208 13.7638 3.22208 12.611C3.22208 11.4583 3.44913 10.3168 3.89026 9.25186C4.33139 8.18687 4.97797 7.2192 5.79307 6.4041C6.60818 5.58899 7.57585 4.94242 8.64084 4.50128C9.70582 4.06015 10.8473 3.8331 12 3.8331C14.328 3.8331 16.5607 4.75792 18.2069 6.4041C19.8531 8.05028 20.7779 10.283 20.7779 12.611C20.7779 14.9391 19.8531 17.1718 18.2069 18.8179C16.5607 20.4641 14.328 21.3889 12 21.3889V21.3889ZM12.9753 12.611V7.7344H11.0247V14.5617H15.9013V12.611H12.9753ZM2 6.05879L5.44777 2.61102L6.82785 3.99013L3.37813 7.43888L2 6.05879ZM18.5513 2.61102L22 6.05879L20.6209 7.43888L17.1721 3.99013L18.5522 2.61102H18.5513Z" fill="black"/>
</svg>
