<svg width="24" height="24" viewBox="0 0 24 24" fill="none" xmlns="http://www.w3.org/2000/svg">
<path d="M16.4444 17.5556V16.4445H13.1111V13.1112H16.4444V15.3334H18.6667V17.5556H17.5556V19.7778H15.3333V22.0001H13.1111V18.6667H15.3333V17.5556H16.4444ZM22 22.0001H17.5556V19.7778H19.7778V17.5556H22V22.0001ZM2 2.00006H10.8889V10.889H2V2.00006ZM13.1111 2.00006H22V10.889H13.1111V2.00006ZM2 13.1112H10.8889V22.0001H2V13.1112ZM18.6667 13.1112H22V15.3334H18.6667V13.1112ZM5.33333 5.33339V7.55562H7.55556V5.33339H5.33333ZM5.33333 16.4445V18.6667H7.55556V16.4445H5.33333ZM16.4444 5.33339V7.55562H18.6667V5.33339H16.4444Z" fill="black"/>
</svg>
