<svg width="24" height="24" viewBox="0 0 24 24" fill="none" xmlns="http://www.w3.org/2000/svg">
<path d="M12.9091 2L12.91 4.78364C14.512 4.98617 16.0011 5.71585 17.1429 6.85774C18.2846 7.99963 19.0141 9.48887 19.2164 11.0909H22V12.9091L19.2164 12.91C19.0139 14.5119 18.2843 16.0009 17.1426 17.1426C16.0009 18.2843 14.5119 19.0139 12.91 19.2164L12.9091 22H11.0909V19.2164C9.48887 19.0141 7.99963 18.2846 6.85774 17.1429C5.71585 16.0011 4.98617 14.512 4.78364 12.91L2 12.9091V11.0909H4.78364C4.98599 9.48873 5.71558 7.9994 6.85749 6.85749C7.9994 5.71558 9.48873 4.98599 11.0909 4.78364V2H12.9091ZM12 10.1818C11.5178 10.1818 11.0553 10.3734 10.7144 10.7144C10.3734 11.0553 10.1818 11.5178 10.1818 12C10.1818 12.4822 10.3734 12.9447 10.7144 13.2856C11.0553 13.6266 11.5178 13.8182 12 13.8182C12.4822 13.8182 12.9447 13.6266 13.2856 13.2856C13.6266 12.9447 13.8182 12.4822 13.8182 12C13.8182 11.5178 13.6266 11.0553 13.2856 10.7144C12.9447 10.3734 12.4822 10.1818 12 10.1818Z" fill="black"/>
</svg>
