<svg width="24" height="24" viewBox="0 0 24 24" fill="none" xmlns="http://www.w3.org/2000/svg">
<path d="M12 17.4545C10.5534 17.4545 9.16598 16.8799 8.14305 15.8569C7.12013 14.834 6.54545 13.4466 6.54545 12C6.54545 10.5534 7.12013 9.16598 8.14305 8.14305C9.16598 7.12013 10.5534 6.54545 12 6.54545C13.4466 6.54545 14.834 7.12013 15.8569 8.14305C16.8799 9.16598 17.4545 10.5534 17.4545 12C17.4545 13.4466 16.8799 14.834 15.8569 15.8569C14.834 16.8799 13.4466 17.4545 12 17.4545ZM11.0909 2H12.9091V4.72727H11.0909V2ZM11.0909 19.2727H12.9091V22H11.0909V19.2727ZM4.28636 5.57182L5.57182 4.28636L7.5 6.21455L6.21455 7.5L4.28636 5.57273V5.57182ZM16.5 17.7855L17.7855 16.5L19.7136 18.4282L18.4282 19.7136L16.5 17.7855ZM18.4282 4.28545L19.7136 5.57182L17.7855 7.5L16.5 6.21455L18.4282 4.28636V4.28545ZM6.21455 16.5L7.5 17.7855L5.57182 19.7136L4.28636 18.4282L6.21455 16.5V16.5ZM22 11.0909V12.9091H19.2727V11.0909H22ZM4.72727 11.0909V12.9091H2V11.0909H4.72727Z" fill="black"/>
</svg>
