<svg width="24" height="24" viewBox="0 0 24 24" fill="none" xmlns="http://www.w3.org/2000/svg">
<path d="M2.86635 12.9386H8.49808V11.0614H2.86635V2.46923C2.86636 2.38768 2.88763 2.30754 2.92805 2.23671C2.96847 2.16587 3.02665 2.1068 3.09685 2.0653C3.16706 2.0238 3.24686 2.00132 3.32841 2.00006C3.40995 1.9988 3.49041 2.01881 3.56187 2.05811L20.8907 11.5889C20.9643 11.6294 21.0257 11.6889 21.0684 11.7612C21.1111 11.8335 21.1337 11.916 21.1337 12C21.1337 12.084 21.1111 12.1665 21.0684 12.2388C21.0257 12.3111 20.9643 12.3706 20.8907 12.4111L3.56187 21.9419C3.49041 21.9812 3.40995 22.0012 3.32841 21.9999C3.24686 21.9987 3.16706 21.9762 3.09685 21.9347C3.02665 21.8932 2.96847 21.8341 2.92805 21.7633C2.88763 21.6925 2.86636 21.6123 2.86635 21.5308V12.9386Z" fill="black"/>
</svg>
