<svg width="24" height="24" viewBox="0 0 24 24" fill="none" xmlns="http://www.w3.org/2000/svg">
<path d="M20.9995 16.42V19.956C20.9996 20.2092 20.9037 20.453 20.7311 20.6382C20.5585 20.8234 20.3221 20.9363 20.0695 20.954C19.6325 20.984 19.2755 21 18.9995 21C10.1625 21 2.9995 13.837 2.9995 5C2.9995 4.724 3.0145 4.367 3.0455 3.93C3.06322 3.67744 3.17608 3.44101 3.3613 3.26841C3.54652 3.09581 3.79032 2.99989 4.0435 3H7.5795C7.70354 2.99987 7.82319 3.04586 7.91523 3.12902C8.00726 3.21218 8.06509 3.32658 8.0775 3.45C8.1005 3.68 8.1215 3.863 8.1415 4.002C8.34023 5.38892 8.7475 6.73783 9.3495 8.003C9.4445 8.203 9.3825 8.442 9.2025 8.57L7.0445 10.112C8.36395 13.1865 10.814 15.6365 13.8885 16.956L15.4285 14.802C15.4914 14.714 15.5833 14.6509 15.688 14.6237C15.7927 14.5964 15.9037 14.6068 16.0015 14.653C17.2665 15.2539 18.6151 15.6601 20.0015 15.858C20.1405 15.878 20.3235 15.9 20.5515 15.922C20.6747 15.9346 20.7889 15.9926 20.8718 16.0846C20.9548 16.1766 21.0006 16.2961 21.0005 16.42H20.9995Z" fill="black"/>
</svg>
