<svg width="24" height="24" viewBox="0 0 24 24" fill="none" xmlns="http://www.w3.org/2000/svg">
<path d="M12.002 12.517L18.002 21.517H6.00197L12.002 12.517ZM10.942 10.077C10.7946 9.93968 10.6764 9.77407 10.5944 9.59008C10.5124 9.40608 10.4683 9.20745 10.4648 9.00604C10.4612 8.80464 10.4983 8.60458 10.5737 8.4178C10.6492 8.23103 10.7615 8.06136 10.9039 7.91892C11.0463 7.77648 11.216 7.6642 11.4028 7.58875C11.5896 7.51331 11.7896 7.47626 11.991 7.47982C12.1924 7.48337 12.391 7.52745 12.575 7.60944C12.759 7.69142 12.9246 7.80963 13.062 7.957C13.3269 8.24135 13.4712 8.61744 13.4643 9.00604C13.4575 9.39465 13.3 9.76542 13.0252 10.0402C12.7504 10.3151 12.3796 10.4725 11.991 10.4793C11.6024 10.4862 11.2263 10.342 10.942 10.077ZM5.28297 2.3L6.69797 3.715C5.29163 5.1215 4.50157 7.02902 4.50157 9.018C4.50157 11.007 5.29163 12.9145 6.69797 14.321L5.28297 15.736C4.40067 14.8538 3.70078 13.8065 3.22328 12.6538C2.74577 11.5011 2.5 10.2657 2.5 9.018C2.5 7.77033 2.74577 6.53487 3.22328 5.38219C3.70078 4.22951 4.40067 3.18217 5.28297 2.3ZM18.719 2.3C19.6013 3.18217 20.3012 4.22951 20.7787 5.38219C21.2562 6.53487 21.5019 7.77033 21.5019 9.018C21.5019 10.2657 21.2562 11.5011 20.7787 12.6538C20.3012 13.8065 19.6013 14.8538 18.719 15.736L17.304 14.321C18.7103 12.9145 19.5004 11.007 19.5004 9.018C19.5004 7.02902 18.7103 5.1215 17.304 3.715L18.719 2.3ZM8.11197 5.128L9.52597 6.542C9.20093 6.86701 8.94309 7.25286 8.76717 7.67752C8.59126 8.10219 8.50072 8.55734 8.50072 9.017C8.50072 9.47666 8.59126 9.93181 8.76717 10.3565C8.94309 10.7811 9.20093 11.167 9.52597 11.492L8.11197 12.906C7.08057 11.8746 6.50115 10.4756 6.50115 9.017C6.50115 7.55835 7.08057 6.15944 8.11197 5.128ZM15.89 5.128C16.9214 6.15944 17.5008 7.55835 17.5008 9.017C17.5008 10.4756 16.9214 11.8746 15.89 12.906L14.476 11.492C14.801 11.167 15.0589 10.7811 15.2348 10.3565C15.4107 9.93181 15.5012 9.47666 15.5012 9.017C15.5012 8.55734 15.4107 8.10219 15.2348 7.67752C15.0589 7.25286 14.801 6.86701 14.476 6.542L15.89 5.128Z" fill="black"/>
</svg>
