<svg width="24" height="24" viewBox="0 0 24 24" fill="none" xmlns="http://www.w3.org/2000/svg">
<path d="M8.36356 10.4138V5.63644C8.36356 4.67199 8.74668 3.74705 9.42864 3.06509C10.1106 2.38312 11.0356 2 12 2C12.9644 2 13.8894 2.38312 14.5713 3.06509C15.2533 3.74705 15.6364 4.67199 15.6364 5.63644V10.4138C16.7483 11.188 17.584 12.2968 18.022 13.5788C18.46 14.8609 18.4774 16.2493 18.0717 17.5419C17.666 18.8345 16.8584 19.964 15.7663 20.7658C14.6743 21.5676 13.3548 22 12 22C10.6452 22 9.32573 21.5676 8.23368 20.7658C7.14163 19.964 6.33397 18.8345 5.92826 17.5419C5.52256 16.2493 5.53998 14.8609 5.97799 13.5788C6.41599 12.2968 7.25173 11.188 8.36356 10.4138ZM8.36356 15.6366C8.36356 16.6011 8.74668 17.526 9.42864 18.208C10.1106 18.8899 11.0356 19.2731 12 19.2731C12.9644 19.2731 13.8894 18.8899 14.5713 18.208C15.2533 17.526 15.6364 16.6011 15.6364 15.6366H8.36356Z" fill="black"/>
</svg>
