<svg width="24" height="24" viewBox="0 0 24 24" fill="none" xmlns="http://www.w3.org/2000/svg">
<path d="M2.96569 8.25H5.75V19C5.75 19.6904 6.3097 20.25 7.00004 20.25C7.69034 20.25 8.25003 19.6904 8.25008 19.0001L8.25098 8.25H11.0343C11.6134 8.25 11.9034 7.54986 11.4939 7.14038L7.45962 3.10607C7.20578 2.85223 6.79422 2.85222 6.54038 3.10607L2.50607 7.14038C2.09659 7.54986 2.3866 8.25 2.96569 8.25ZM17.4596 20.8939L21.4939 16.8596C21.9034 16.4501 21.6134 15.75 21.0343 15.75H18.25V5C18.25 4.30964 17.6904 3.75 17 3.75C16.3096 3.75 15.75 4.30964 15.75 5V15.75H12.9657C12.3866 15.75 12.0966 16.4501 12.5061 16.8596L16.5404 20.8939C16.7942 21.1478 17.2058 21.1478 17.4596 20.8939Z" fill="black" stroke="black" stroke-width="0.5"/>
</svg>
