<svg width="24" height="24" viewBox="0 0 24 24" fill="none" xmlns="http://www.w3.org/2000/svg">
<path d="M11.5785 14.0149V21.3166H3.3C3.29991 20.2725 3.52199 19.2403 3.95149 18.2887C4.381 17.3371 5.0081 16.4877 5.79112 15.7971C6.57414 15.1065 7.49517 14.5904 8.49301 14.2831C9.49084 13.9758 10.5426 13.8844 11.5785 14.0149V14.0149ZM10.6587 13.038C7.60944 13.038 5.13968 10.5683 5.13968 7.51902C5.13968 4.46976 7.60944 2 10.6587 2C13.708 2 16.1777 4.46976 16.1777 7.51902C16.1777 10.5683 13.708 13.038 10.6587 13.038ZM15.9873 19.3978L19.2389 16.1462L20.5405 17.4468L15.9873 22L12.7348 18.7475L14.0363 17.4468L15.9864 19.3978H15.9873Z" fill="black"/>
</svg>
