<svg width="24" height="24" viewBox="0 0 24 24" fill="none" xmlns="http://www.w3.org/2000/svg">
<path fill-rule="evenodd" clip-rule="evenodd" d="M10.2833 17.5666C11.9496 17.5666 13.4852 17.007 14.7125 16.0655C14.7441 16.1104 14.78 16.1531 14.8201 16.1933L18.9402 20.3133C19.3194 20.6926 19.9343 20.6926 20.3135 20.3133C20.6928 19.9341 20.6928 19.3192 20.3135 18.94L16.1935 14.8199C16.1533 14.7798 16.1106 14.7439 16.0657 14.7123C17.0071 13.485 17.5666 11.9495 17.5666 10.2833C17.5666 6.26085 14.3058 3 10.2833 3C6.26085 3 3 6.26085 3 10.2833C3 14.3058 6.26085 17.5666 10.2833 17.5666Z" fill="black"/>
</svg>
