<svg width="24" height="24" viewBox="0 0 24 24" fill="none" xmlns="http://www.w3.org/2000/svg">
<path d="M16.536 17.5492L17.6417 16.1125C17.7972 15.9106 17.8929 15.6692 17.9182 15.4156C17.9434 15.1621 17.8972 14.9066 17.7846 14.678C17.6721 14.4494 17.4978 14.2569 17.2814 14.1223C17.0651 13.9877 16.8154 13.9164 16.5606 13.9165H14.7283V10.301C14.7284 10.0159 14.6393 9.73798 14.4733 9.5062C14.3074 9.27443 14.073 9.10046 13.8031 9.00876C13.5332 8.91705 13.2413 8.91221 12.9685 8.99491C12.6957 9.07762 12.4557 9.24371 12.2822 9.46985L6.49432 17C4.93891 16.3564 3.65475 15.1934 2.86063 13.7092C2.0665 12.225 1.81154 10.5113 2.13917 8.86019C2.46679 7.20907 3.35675 5.72261 4.65742 4.65405C5.95809 3.5855 7.589 3.00095 9.27231 3C10.7382 2.99991 12.1699 3.44252 13.38 4.26986C14.5901 5.09719 15.5221 6.27068 16.0541 7.63665C16.7382 7.50507 17.4423 7.51786 18.1212 7.67421C18.8 7.83056 19.4388 8.12703 19.9964 8.5446C20.5541 8.96217 21.0183 9.49165 21.3595 10.0991C21.7006 10.7065 21.911 11.3785 21.9773 12.072C22.0436 12.7655 21.9643 13.4652 21.7444 14.1263C21.5245 14.7874 21.169 15.3952 20.7006 15.9108C20.2321 16.4265 19.6611 16.8386 19.0241 17.1207C18.3871 17.4029 17.6982 17.5488 17.0016 17.5492H16.536ZM12.9096 15.7351H15.6376L11.091 21.6457V17.5538H8.36299L12.9096 11.6386V15.7351Z" fill="black"/>
</svg>
