<svg width="24" height="24" viewBox="0 0 24 24" fill="none" xmlns="http://www.w3.org/2000/svg">
<path d="M12.0006 13.7227L9.68355 16.0397C10.046 16.8944 10.0998 17.8484 9.83594 18.7384C9.57205 19.6284 9.00682 20.3989 8.23714 20.9179C7.46745 21.4368 6.54123 21.6719 5.61722 21.5829C4.69321 21.4938 3.82894 21.0861 3.17254 20.4297C2.51614 19.7733 2.10847 18.9091 2.01942 17.9851C1.93036 17.061 2.16546 16.1348 2.68441 15.3651C3.20337 14.5955 3.97387 14.0302 4.86386 13.7663C5.75386 13.5025 6.70792 13.5563 7.56255 13.9187L9.88055 11.6017L4.21055 5.93473C4.02475 5.749 3.87736 5.52849 3.7768 5.28578C3.67624 5.04308 3.62448 4.78294 3.62448 4.52023C3.62448 4.25752 3.67624 3.99738 3.7768 3.75467C3.87736 3.51197 4.02475 3.29146 4.21055 3.10573L4.91855 2.39873L12.0006 9.48173L19.0816 2.39973L19.7896 3.10673C19.9754 3.29246 20.1227 3.51297 20.2233 3.75567C20.3239 3.99838 20.3756 4.25852 20.3756 4.52123C20.3756 4.78394 20.3239 5.04408 20.2233 5.28678C20.1227 5.52949 19.9754 5.75 19.7896 5.93573L14.1206 11.6017L16.4376 13.9187C17.2922 13.5563 18.2463 13.5025 19.1362 13.7663C20.0262 14.0302 20.7967 14.5955 21.3157 15.3651C21.8347 16.1348 22.0697 17.061 21.9807 17.9851C21.8916 18.9091 21.484 19.7733 20.8276 20.4297C20.1712 21.0861 19.3069 21.4938 18.3829 21.5829C17.4589 21.6719 16.5327 21.4368 15.763 20.9179C14.9933 20.3989 14.4281 19.6284 14.1642 18.7384C13.9003 17.8484 13.9542 16.8944 14.3166 16.0397L12.0006 13.7217V13.7227ZM6.00055 19.6017C6.53099 19.6017 7.0397 19.391 7.41477 19.0159C7.78984 18.6409 8.00055 18.1322 8.00055 17.6017C8.00055 17.0713 7.78984 16.5626 7.41477 16.1875C7.0397 15.8124 6.53099 15.6017 6.00055 15.6017C5.47012 15.6017 4.96141 15.8124 4.58634 16.1875C4.21127 16.5626 4.00055 17.0713 4.00055 17.6017C4.00055 18.1322 4.21127 18.6409 4.58634 19.0159C4.96141 19.391 5.47012 19.6017 6.00055 19.6017V19.6017ZM18.0006 19.6017C18.531 19.6017 19.0397 19.391 19.4148 19.0159C19.7898 18.6409 20.0006 18.1322 20.0006 17.6017C20.0006 17.0713 19.7898 16.5626 19.4148 16.1875C19.0397 15.8124 18.531 15.6017 18.0006 15.6017C17.4701 15.6017 16.9614 15.8124 16.5863 16.1875C16.2113 16.5626 16.0006 17.0713 16.0006 17.6017C16.0006 18.1322 16.2113 18.6409 16.5863 19.0159C16.9614 19.391 17.4701 19.6017 18.0006 19.6017V19.6017Z" fill="black"/>
</svg>
