<svg width="24" height="24" viewBox="0 0 24 24" fill="none" xmlns="http://www.w3.org/2000/svg">
<path d="M10.2724 14.8169L9.54435 17.5331L7.76035 17.0545L8.48744 14.3392C7.39908 13.9378 6.38758 13.3529 5.49686 12.6098L3.50776 14.5998L2.20048 13.2925L4.1905 11.3034C3.06714 9.95801 2.31235 8.34401 2 6.61936L2.83149 6.46692C5.50076 8.39151 8.70925 9.42479 12 9.41962C15.422 9.41962 18.5881 8.32483 21.1685 6.46692L22 6.61843C21.6881 8.34332 20.9336 9.95765 19.8104 11.3034L21.7995 13.2925L20.4922 14.5998L18.5031 12.6098C17.6124 13.3529 16.6009 13.9378 15.5126 14.3392L16.2397 17.0554L14.4557 17.5331L13.7276 14.8169C12.5842 15.0128 11.4158 15.0128 10.2724 14.8169V14.8169Z" fill="black"/>
</svg>
