<svg width="24" height="24" viewBox="0 0 24 24" fill="none" xmlns="http://www.w3.org/2000/svg">
<path d="M14 20L12 22L10 20H4.995C4.46589 20 3.95846 19.7898 3.58432 19.4157C3.21019 19.0415 3 18.5341 3 18.005V3.995C3 2.893 3.893 2 4.995 2H19.005C20.107 2 21 2.893 21 3.995V18.005C21 18.5341 20.7898 19.0415 20.4157 19.4157C20.0415 19.7898 19.5341 20 19.005 20H14ZM6.357 17H17.847C17.2026 16.0734 16.3435 15.3166 15.3431 14.7942C14.3427 14.2717 13.2306 13.9993 12.102 14C10.9734 13.9993 9.86134 14.2717 8.86091 14.7942C7.86048 15.3166 7.00137 16.0734 6.357 17V17ZM12 12C12.4596 12 12.9148 11.9095 13.3394 11.7336C13.764 11.5577 14.1499 11.2999 14.4749 10.9749C14.7999 10.6499 15.0577 10.264 15.2336 9.83939C15.4095 9.41475 15.5 8.95963 15.5 8.5C15.5 8.04037 15.4095 7.58525 15.2336 7.16061C15.0577 6.73597 14.7999 6.35013 14.4749 6.02513C14.1499 5.70012 13.764 5.44231 13.3394 5.26642C12.9148 5.09053 12.4596 5 12 5C11.0717 5 10.1815 5.36875 9.52513 6.02513C8.86875 6.6815 8.5 7.57174 8.5 8.5C8.5 9.42826 8.86875 10.3185 9.52513 10.9749C10.1815 11.6313 11.0717 12 12 12V12Z" fill="black"/>
</svg>
