<svg width="24" height="24" viewBox="0 0 24 24" fill="none" xmlns="http://www.w3.org/2000/svg">
<path d="M17.9583 18.8336H4.76249C4.67848 18.8336 4.59614 18.8102 4.52468 18.766C4.45322 18.7219 4.39547 18.6587 4.3579 18.5835C4.32033 18.5084 4.30443 18.4243 4.31197 18.3406C4.31952 18.2569 4.35021 18.177 4.40061 18.1098L4.76249 17.6276V9.78667C4.76249 8.58344 5.05561 7.44895 5.57581 6.45108L2.40396 3.28014L3.6841 2L21.5961 19.9129L20.3159 21.1921L17.9583 18.8336ZM19.2375 15.0212L7.98228 3.76596C9.07221 3.03854 10.3392 2.62067 11.648 2.55693C12.9568 2.4932 14.2584 2.78599 15.4138 3.40406C16.5693 4.02214 17.5352 4.94231 18.2087 6.06639C18.8821 7.19048 19.2377 8.4763 19.2375 9.78667V15.0212ZM9.73829 19.7383H14.2617C14.2617 20.3381 14.0235 20.9134 13.5993 21.3376C13.1751 21.7617 12.5999 22 12 22C11.4002 22 10.8249 21.7617 10.4007 21.3376C9.97658 20.9134 9.73829 20.3381 9.73829 19.7383V19.7383Z" fill="black"/>
</svg>
