<svg width="24" height="24" viewBox="0 0 24 24" fill="none" xmlns="http://www.w3.org/2000/svg">
<path d="M19.5859 21H2.99988C2.73466 21 2.48031 20.8946 2.29277 20.7071C2.10523 20.5196 1.99988 20.2652 1.99988 20V6.00001C1.99988 5.73479 2.10523 5.48044 2.29277 5.2929C2.48031 5.10536 2.73466 5.00001 2.99988 5.00001H3.58588L1.39288 2.80801L2.80788 1.39301L22.6069 21.193L21.1919 22.607L19.5859 21ZM7.55588 8.97001C6.52172 10.1114 5.96607 11.6067 6.00398 13.1464C6.04189 14.6861 6.67045 16.1523 7.75953 17.2414C8.8486 18.3304 10.3148 18.959 11.8545 18.9969C13.3942 19.0348 14.8895 18.4792 16.0309 17.445L14.6139 16.028C13.8493 16.6891 12.8628 17.0362 11.8528 16.9995C10.8427 16.9629 9.88397 16.5453 9.16929 15.8306C8.4546 15.1159 8.03696 14.1572 8.00034 13.1471C7.96372 12.137 8.31082 11.1506 8.97188 10.386L7.55488 8.97001H7.55588ZM21.9999 17.785L17.9549 13.74C18.0676 12.8339 17.9721 11.9139 17.6755 11.0503C17.3789 10.1867 16.8891 9.40213 16.2434 8.75644C15.5978 8.11076 14.8132 7.62096 13.9496 7.32438C13.086 7.0278 12.166 6.93224 11.2599 7.04501L8.10588 3.89201L8.99988 3.00001H14.9999L16.9999 5.00001H20.9999C21.2651 5.00001 21.5194 5.10536 21.707 5.2929C21.8945 5.48044 21.9999 5.73479 21.9999 6.00001V17.786V17.785ZM13.5079 9.29301C14.002 9.49479 14.4509 9.79313 14.8283 10.1705C15.2058 10.548 15.5041 10.9969 15.7059 11.491L13.5079 9.29301Z" fill="black"/>
</svg>
