<svg width="24" height="24" viewBox="0 0 24 24" fill="none" xmlns="http://www.w3.org/2000/svg">
<path d="M18.8384 2.09508C19.3851 2.09508 19.8288 2.53882 19.8288 3.08557V6.80684L17.8479 8.78783V4.07606H3.98098V19.9239H17.8479V17.1921L19.8288 15.2112V20.9144C19.8288 21.4612 19.3851 21.9049 18.8384 21.9049H2.99049C2.44374 21.9049 2 21.4612 2 20.9144V3.08557C2 2.53882 2.44374 2.09508 2.99049 2.09508H18.8384ZM20.5994 8.83834L22 10.2389L14.296 17.9429L12.8934 17.941L12.8954 16.5424L20.5994 8.83834V8.83834ZM11.9049 12V13.981H6.95246V12H11.9049ZM14.8764 8.03803V10.019H6.95246V8.03803H14.8764Z" fill="black"/>
</svg>
