<svg width="24" height="24" viewBox="0 0 24 24" fill="none" xmlns="http://www.w3.org/2000/svg">
<path d="M5.4218 3.21193C6.1162 2.96414 6.86944 2.93286 7.582 3.12219C8.29456 3.31153 8.93292 3.71259 9.41274 4.27238C9.89256 4.83217 10.1913 5.52435 10.2694 6.25749C10.3475 6.99063 10.2014 7.73022 9.85034 8.37856L20.9987 19.528L19.5267 21L8.37728 9.85057C7.72879 10.2003 6.98958 10.3453 6.25705 10.2665C5.52451 10.1877 4.83304 9.88878 4.27376 9.40919C3.71448 8.92959 3.31362 8.29179 3.12403 7.57985C2.93444 6.8679 2.965 6.11522 3.21169 5.42099L5.54047 7.74977C5.68452 7.89892 5.85683 8.01788 6.04734 8.09972C6.23786 8.18156 6.44276 8.22463 6.6501 8.22644C6.85745 8.22824 7.06307 8.18873 7.25498 8.11021C7.44689 8.0317 7.62123 7.91575 7.76785 7.76913C7.91447 7.62251 8.03042 7.44816 8.10894 7.25625C8.18745 7.06435 8.22696 6.85872 8.22516 6.65138C8.22336 6.44404 8.18028 6.23914 8.09844 6.04862C8.0166 5.85811 7.89764 5.6858 7.7485 5.54175L5.42075 3.21088L5.4218 3.21193ZM16.2142 5.17323L19.5267 3.33269L20.9987 4.8047L19.1582 8.11726L17.3176 8.48578L15.1107 10.6938L13.6376 9.22179L15.8456 7.01377L16.2142 5.17323ZM9.22051 13.6389L10.6925 15.1109L5.17195 20.6315C4.98425 20.8197 4.73166 20.929 4.46595 20.937C4.20025 20.9449 3.94157 20.8509 3.74294 20.6743C3.54432 20.4976 3.42079 20.2517 3.3977 19.9868C3.3746 19.722 3.45369 19.4584 3.61873 19.25L3.69993 19.1595L9.22051 13.6389Z" fill="black"/>
</svg>
