<svg width="24" height="24" viewBox="0 0 24 24" fill="none" xmlns="http://www.w3.org/2000/svg">
<path d="M13.6667 5.62091V9.37091C18.2692 9.37091 22 13.1017 22 17.7042C22 17.9317 21.9917 18.1567 21.9733 18.3792C20.7542 16.0676 18.365 14.4701 15.5942 14.3751L15.3333 14.3709H13.6667V18.1209L7 11.8709L13.6667 5.62091ZM8.66667 5.62091V7.90174L4.43333 11.8709L8.66583 15.8384L8.66667 18.1209L2 11.8709L8.66667 5.62091ZM12 9.46758L9.43667 11.8709L12 14.2734V12.7042H15.3617L15.6508 12.7101C16.7217 12.7459 17.7542 12.9684 18.7142 13.3484C17.4917 11.9334 15.6833 11.0376 13.6667 11.0376H12V9.46758Z" fill="black"/>
</svg>
