<svg width="24" height="24" viewBox="0 0 24 24" fill="none" xmlns="http://www.w3.org/2000/svg">
<path d="M16.1333 9.45L8.68333 2L7.50833 3.175L9.49167 5.15833L5.2 9.45C4.70833 9.94167 4.70833 10.7333 5.2 11.2167L9.78333 15.8C10.025 16.0417 10.35 16.1667 10.6667 16.1667C10.9833 16.1667 11.3083 16.0417 11.55 15.8L16.1333 11.2167C16.625 10.7333 16.625 9.94167 16.1333 9.45ZM6.675 10.3333L10.6667 6.34167L14.6583 10.3333H6.675ZM18.1667 11.5833C18.1667 11.5833 16.5 13.3917 16.5 14.5C16.5 15.4167 17.25 16.1667 18.1667 16.1667C19.0833 16.1667 19.8333 15.4167 19.8333 14.5C19.8333 13.3917 18.1667 11.5833 18.1667 11.5833ZM4 18.6667H20.6667V22H4V18.6667Z" fill="black"/>
</svg>
