<svg width="24" height="24" viewBox="0 0 24 24" fill="none" xmlns="http://www.w3.org/2000/svg">
<path d="M12 2C17.523 2 22 6.477 22 12C22 17.523 17.523 22 12 22C6.477 22 2 17.523 2 12C2 6.477 6.477 2 12 2ZM8 13L4.062 13.001C4.28479 14.7632 5.08743 16.4013 6.34351 17.6572C7.5996 18.9131 9.23775 19.7155 11 19.938V16C10.2044 16 9.44129 15.6839 8.87868 15.1213C8.31607 14.5587 8 13.7956 8 13ZM19.938 13.001L16 13C16 13.7956 15.6839 14.5587 15.1213 15.1213C14.5587 15.6839 13.7956 16 13 16L13.001 19.938C14.7631 19.7153 16.401 18.9128 17.6569 17.6569C18.9128 16.401 19.7153 14.7631 19.938 13.001V13.001ZM14 12H10V13C10 13.2652 10.1054 13.5196 10.2929 13.7071C10.4804 13.8946 10.7348 14 11 14H13C13.2652 14 13.5196 13.8946 13.7071 13.7071C13.8946 13.5196 14 13.2652 14 13V12ZM12 4C10.0514 4.00003 8.16977 4.71119 6.70825 6C5.24673 7.28882 4.30579 9.0667 4.062 11H8C8 10.7348 8.10536 10.4804 8.29289 10.2929C8.48043 10.1054 8.73478 10 9 10H15C15.2652 10 15.5196 10.1054 15.7071 10.2929C15.8946 10.4804 16 10.7348 16 11H19.938C19.6942 9.0667 18.7533 7.28882 17.2917 6C15.8302 4.71119 13.9486 4.00003 12 4V4Z" fill="black"/>
</svg>
