<svg width="24" height="24" viewBox="0 0 24 24" fill="none" xmlns="http://www.w3.org/2000/svg">
<path d="M17.0281 15.1791V21.5373C17.0281 21.6191 17.0064 21.6995 16.9652 21.7703C16.924 21.841 16.8648 21.8995 16.7935 21.9399C16.7223 21.9802 16.6417 22.001 16.5598 22C16.478 21.999 16.3979 21.9763 16.3277 21.9342L12.4019 19.5786L8.47611 21.9342C8.40583 21.9763 8.32563 21.999 8.24371 22C8.16178 22.0009 8.08107 21.9801 8.00983 21.9396C7.93859 21.8992 7.87938 21.8405 7.83824 21.7697C7.79711 21.6988 7.77553 21.6183 7.77571 21.5364V15.18C6.57859 14.2215 5.70872 12.9149 5.28632 11.4407C4.86392 9.96646 4.90984 8.39744 5.41774 6.95045C5.92563 5.50346 6.87042 4.24994 8.12155 3.36313C9.37267 2.47632 10.8683 2 12.4019 2C13.9354 2 15.4311 2.47632 16.6822 3.36313C17.9334 4.24994 18.8781 5.50346 19.386 6.95045C19.8939 8.39744 19.9399 9.96646 19.5175 11.4407C19.0951 12.9149 18.2252 14.2215 17.0281 15.18V15.1791ZM9.62618 16.2644V19.0863L12.4019 17.4209L15.1776 19.0863V16.2644C14.2957 16.621 13.3532 16.8039 12.4019 16.8029C11.4506 16.8039 10.5081 16.621 9.62618 16.2644V16.2644ZM12.4019 14.9524C13.8742 14.9524 15.2862 14.3675 16.3273 13.3264C17.3684 12.2853 17.9533 10.8733 17.9533 9.40096C17.9533 7.92864 17.3684 6.51661 16.3273 5.47552C15.2862 4.43443 13.8742 3.84955 12.4019 3.84955C10.9296 3.84955 9.51754 4.43443 8.47645 5.47552C7.43535 6.51661 6.85047 7.92864 6.85047 9.40096C6.85047 10.8733 7.43535 12.2853 8.47645 13.3264C9.51754 14.3675 10.9296 14.9524 12.4019 14.9524V14.9524Z" fill="black"/>
</svg>
