<svg width="24" height="24" viewBox="0 0 24 24" fill="none" xmlns="http://www.w3.org/2000/svg">
<path d="M9.94987 19.95C5.91624 19.02 2.90897 15.4064 2.90897 11.0909C2.90897 6.07 6.97897 2 11.9999 2C17.0208 2 21.0908 6.07 21.0908 11.0909C21.0908 15.4064 18.0835 19.02 14.0499 19.95L11.9999 22L9.94987 19.95ZM7.46533 16.7791C8.31242 17.4565 9.30107 17.9347 10.3581 18.1782L10.8671 18.2955L11.9999 19.4291L13.1335 18.2955L13.6426 18.1773C14.7686 17.9177 15.816 17.3921 16.6971 16.6445C16.1052 16.0369 15.3973 15.5541 14.6155 15.2248C13.8336 14.8955 12.9937 14.7263 12.1453 14.7273C10.2944 14.7273 8.62715 15.5182 7.46533 16.7791ZM6.19624 15.4727C6.96029 14.6619 7.8823 14.0161 8.90546 13.5752C9.92861 13.1343 11.0312 12.9076 12.1453 12.9091C13.2196 12.9077 14.2835 13.1185 15.276 13.5294C16.2685 13.9404 17.1701 14.5433 17.929 15.3036C18.7072 14.2083 19.1668 12.9188 19.2568 11.5781C19.3467 10.2374 19.0635 8.89808 18.4385 7.7086C17.8135 6.51911 16.8713 5.52602 15.7162 4.8395C14.5612 4.15297 13.2385 3.79985 11.895 3.81932C10.5514 3.83879 9.23957 4.23008 8.10489 4.94978C6.97022 5.66948 6.05711 6.68946 5.46687 7.89655C4.87662 9.10364 4.63232 10.4506 4.76107 11.7881C4.88982 13.1256 5.38658 14.4004 6.19624 15.4727ZM11.9999 12C11.0355 12 10.1105 11.6169 9.42858 10.9349C8.74663 10.253 8.36351 9.32806 8.36351 8.36364C8.36351 7.39921 8.74663 6.47429 9.42858 5.79234C10.1105 5.11039 11.0355 4.72727 11.9999 4.72727C12.9643 4.72727 13.8892 5.11039 14.5712 5.79234C15.2531 6.47429 15.6362 7.39921 15.6362 8.36364C15.6362 9.32806 15.2531 10.253 14.5712 10.9349C13.8892 11.6169 12.9643 12 11.9999 12ZM11.9999 10.1818C12.4821 10.1818 12.9445 9.99026 13.2855 9.64928C13.6265 9.30831 13.8181 8.84585 13.8181 8.36364C13.8181 7.88142 13.6265 7.41896 13.2855 7.07799C12.9445 6.73701 12.4821 6.54545 11.9999 6.54545C11.5177 6.54545 11.0552 6.73701 10.7142 7.07799C10.3733 7.41896 10.1817 7.88142 10.1817 8.36364C10.1817 8.84585 10.3733 9.30831 10.7142 9.64928C11.0552 9.99026 11.5177 10.1818 11.9999 10.1818Z" fill="black"/>
</svg>
