<svg width="24" height="24" viewBox="0 0 24 24" fill="none" xmlns="http://www.w3.org/2000/svg">
<g clip-path="url(#clip0_1696_14557)">
<path d="M3 18C3 18.5523 3.44772 19 4 19H20C20.5523 19 21 18.5523 21 18V17.6667C21 17.1144 20.5523 16.6667 20 16.6667H4C3.44772 16.6667 3 17.1144 3 17.6667V18ZM3 12.1667C3 12.719 3.44772 13.1667 4 13.1667H20C20.5523 13.1667 21 12.719 21 12.1667V11.8333C21 11.281 20.5523 10.8333 20 10.8333H4C3.44772 10.8333 3 11.281 3 11.8333V12.1667ZM4 5C3.44772 5 3 5.44772 3 6V6.33333C3 6.88562 3.44772 7.33333 4 7.33333H20C20.5523 7.33333 21 6.88562 21 6.33333V6C21 5.44772 20.5523 5 20 5H4Z" fill="#242E40"/>
</g>
<defs>
<clipPath id="clip0_1696_14557">
<rect width="24" height="24" fill="white"/>
</clipPath>
</defs>
</svg>
