<svg width="24" height="24" viewBox="0 0 24 24" fill="none" xmlns="http://www.w3.org/2000/svg">
<path d="M6.80999 13.9459L4.21544 16.5414L7.45863 19.7846L19.7846 7.45863L16.5414 4.21544L14.5945 6.16135L15.8927 7.45863L14.5945 8.7559L13.2973 7.45863L11.3514 9.40545L13.2973 11.3504L12 12.6496L10.0541 10.7036L8.10726 12.6496L9.40545 13.9468L8.10726 15.245L6.80999 13.9459ZM17.19 2.26862L21.7314 6.80999C21.9034 6.98204 22 7.21535 22 7.45863C22 7.7019 21.9034 7.93522 21.7314 8.10726L8.10726 21.7314C7.93522 21.9034 7.7019 22 7.45863 22C7.21535 22 6.98204 21.9034 6.80999 21.7314L2.26862 17.19C2.09662 17.018 2 16.7846 2 16.5414C2 16.2981 2.09662 16.0648 2.26862 15.8927L15.8927 2.26862C16.0648 2.09662 16.2981 2 16.5414 2C16.7846 2 17.018 2.09662 17.19 2.26862Z" fill="black"/>
</svg>
