<svg width="24" height="24" viewBox="0 0 24 24" fill="none" xmlns="http://www.w3.org/2000/svg">
<path d="M12.9091 2L12.91 4.78364C14.512 4.98617 16.0011 5.71585 17.1429 6.85774C18.2846 7.99963 19.0141 9.48887 19.2164 11.0909H22V12.9091L19.2164 12.91C19.0139 14.5119 18.2843 16.0009 17.1426 17.1426C16.0009 18.2843 14.5119 19.0139 12.91 19.2164L12.9091 22H11.0909V19.2164C9.48887 19.0141 7.99963 18.2846 6.85774 17.1429C5.71585 16.0011 4.98617 14.512 4.78364 12.91L2 12.9091V11.0909H4.78364C4.98599 9.48873 5.71558 7.9994 6.85749 6.85749C7.9994 5.71558 9.48873 4.98599 11.0909 4.78364V2H12.9091ZM12 6.54545C10.5534 6.54545 9.16598 7.12013 8.14305 8.14305C7.12013 9.16598 6.54545 10.5534 6.54545 12C6.54545 13.4466 7.12013 14.834 8.14305 15.8569C9.16598 16.8799 10.5534 17.4545 12 17.4545C13.4466 17.4545 14.834 16.8799 15.8569 15.8569C16.8799 14.834 17.4545 13.4466 17.4545 12C17.4545 10.5534 16.8799 9.16598 15.8569 8.14305C14.834 7.12013 13.4466 6.54545 12 6.54545ZM12 10.1818C12.4822 10.1818 12.9447 10.3734 13.2856 10.7144C13.6266 11.0553 13.8182 11.5178 13.8182 12C13.8182 12.4822 13.6266 12.9447 13.2856 13.2856C12.9447 13.6266 12.4822 13.8182 12 13.8182C11.5178 13.8182 11.0553 13.6266 10.7144 13.2856C10.3734 12.9447 10.1818 12.4822 10.1818 12C10.1818 11.5178 10.3734 11.0553 10.7144 10.7144C11.0553 10.3734 11.5178 10.1818 12 10.1818V10.1818Z" fill="black"/>
</svg>
