<svg width="24" height="24" viewBox="0 0 24 24" fill="none" xmlns="http://www.w3.org/2000/svg">
<path d="M12.0004 18.0152C12.6317 18.0152 13.2117 18.2362 13.6679 18.604L12.0004 20.6676L10.333 18.604C10.8046 18.222 11.3935 18.014 12.0004 18.0152V18.0152ZM3.87348 3.33238L19.5023 18.9621L18.2522 20.2123L13.6723 15.6325C13.1331 15.4535 12.5686 15.3625 12.0004 15.3628C10.7379 15.3628 9.57791 15.804 8.66726 16.5405L7.55678 15.1648C8.71858 14.2236 10.1499 13.6767 11.6433 13.6034L9.34804 11.3082C8.08564 11.666 6.90899 12.2763 5.88931 13.1021L4.77707 11.7264C5.72999 10.9547 6.80039 10.3407 7.94757 9.90769L5.92821 7.88744C4.92303 8.36612 3.97784 8.96172 3.11224 9.6619L2 8.28707C2.80898 7.63281 3.68251 7.05724 4.60996 6.57008L2.62243 4.58343L3.87348 3.33238V3.33238ZM14.2108 11.1941L12.1914 9.17563L12.0004 9.17386C14.7368 9.17386 17.2495 10.1296 19.2238 11.7264L18.1116 13.1021C16.9724 12.1792 15.6386 11.5268 14.2108 11.1941V11.1941ZM12.0004 4.75319C15.789 4.75319 19.268 6.07673 22 8.28707L20.8886 9.6619C18.3745 7.62543 15.2359 6.51649 12.0004 6.52145C11.2242 6.52145 10.462 6.58334 9.71938 6.70447L8.22077 5.20409C9.43115 4.90968 10.6981 4.75319 12.0004 4.75319Z" fill="black"/>
</svg>
