<svg width="24" height="24" viewBox="0 0 24 24" fill="none" xmlns="http://www.w3.org/2000/svg">
<path d="M19.5859 21.0001H2.99988C2.73466 21.0001 2.48031 20.8947 2.29277 20.7072C2.10523 20.5196 1.99988 20.2653 1.99988 20.0001V6.00007C1.99988 5.73485 2.10523 5.4805 2.29277 5.29296C2.48031 5.10542 2.73466 5.00007 2.99988 5.00007H3.58588L1.39288 2.80807L2.80788 1.39307L22.6069 21.1931L21.1919 22.6071L19.5859 21.0001ZM5.58588 7.00007H3.99988V19.0001H17.5859L15.4059 16.8201C14.3484 17.657 13.0204 18.0762 11.6741 17.9981C10.3278 17.92 9.05707 17.35 8.10349 16.3965C7.14991 15.4429 6.57991 14.1722 6.50181 12.8259C6.42371 11.4796 6.84296 10.1515 7.67988 9.09407L5.58588 7.00007V7.00007ZM9.10988 10.5251C8.64886 11.1988 8.43786 12.0125 8.5134 12.8254C8.58893 13.6383 8.94625 14.3992 9.52351 14.9764C10.1008 15.5537 10.8617 15.911 11.6745 15.9865C12.4874 16.0621 13.3011 15.8511 13.9749 15.3901L9.10988 10.5251ZM21.9999 17.7851L19.9999 15.7851V7.00007H16.1719L14.1719 5.00007H9.82788L9.52088 5.30707L8.10688 3.89307L8.99988 3.00007H14.9999L16.9999 5.00007H20.9999C21.2651 5.00007 21.5194 5.10542 21.707 5.29296C21.8945 5.4805 21.9999 5.73485 21.9999 6.00007V17.7861V17.7851ZM11.2629 7.05007C12.1022 6.93646 12.9565 7.01825 13.759 7.28905C14.5616 7.55986 15.2907 8.01236 15.8897 8.61128C16.4886 9.21021 16.9411 9.93937 17.2119 10.7419C17.4827 11.5445 17.5645 12.3987 17.4509 13.2381L15.1129 10.9001C14.7781 10.2513 14.2497 9.72282 13.6009 9.38807L11.2629 7.05007V7.05007Z" fill="black"/>
</svg>
