<svg width="24" height="24" viewBox="0 0 24 24" fill="none" xmlns="http://www.w3.org/2000/svg">
<path d="M11.019 14.381V16.2857C9.50353 16.2857 8.05008 16.8878 6.97844 17.9594C5.9068 19.031 5.30476 20.4845 5.30476 22H3.4C3.4 19.9793 4.20272 18.0414 5.63157 16.6125C7.06042 15.1837 8.99835 14.381 11.019 14.381V14.381ZM11.019 13.4286C7.86191 13.4286 5.30476 10.8714 5.30476 7.71429C5.30476 4.55714 7.86191 2 11.019 2C14.1762 2 16.7333 4.55714 16.7333 7.71429C16.7333 10.8714 14.1762 13.4286 11.019 13.4286ZM11.019 11.5238C13.1238 11.5238 14.8286 9.81905 14.8286 7.71429C14.8286 5.60952 13.1238 3.90476 11.019 3.90476C8.91429 3.90476 7.20953 5.60952 7.20953 7.71429C7.20953 9.81905 8.91429 11.5238 11.019 11.5238ZM19.5905 17.2381H20.5429V22H12.9238V17.2381H13.8762V16.2857C13.8762 15.528 14.1772 14.8012 14.713 14.2654C15.2488 13.7296 15.9756 13.4286 16.7333 13.4286C17.4911 13.4286 18.2178 13.7296 18.7536 14.2654C19.2895 14.8012 19.5905 15.528 19.5905 16.2857V17.2381ZM17.6857 17.2381V16.2857C17.6857 16.0331 17.5854 15.7909 17.4068 15.6123C17.2282 15.4337 16.9859 15.3333 16.7333 15.3333C16.4807 15.3333 16.2385 15.4337 16.0599 15.6123C15.8813 15.7909 15.781 16.0331 15.781 16.2857V17.2381H17.6857Z" fill="black"/>
</svg>
