<svg width="24" height="24" viewBox="0 0 24 24" fill="none" xmlns="http://www.w3.org/2000/svg">
<path d="M14.45 18.25L12 21.75L9.55 18.25H3C2.73478 18.25 2.48043 18.1446 2.29289 17.9571C2.10536 17.7696 2 17.5152 2 17.25V3.25C2 2.98478 2.10536 2.73043 2.29289 2.54289C2.48043 2.35536 2.73478 2.25 3 2.25H21C21.2652 2.25 21.5196 2.35536 21.7071 2.54289C21.8946 2.73043 22 2.98478 22 3.25V17.25C22 17.5152 21.8946 17.7696 21.7071 17.9571C21.5196 18.1446 21.2652 18.25 21 18.25H14.45ZM13.409 16.25H20V4.25H4V16.25H10.591L12 18.262L13.409 16.25V16.25Z" fill="black"/>
</svg>
