<svg width="24" height="24" viewBox="0 0 24 24" fill="none" xmlns="http://www.w3.org/2000/svg">
<path d="M12.002 12.517L18.002 21.517H6.00197L12.002 12.517ZM12.002 16.117L9.74197 19.517H14.262L12.002 16.117ZM10.942 10.077C10.7946 9.93966 10.6764 9.77406 10.5944 9.59006C10.5124 9.40607 10.4683 9.20744 10.4648 9.00603C10.4612 8.80463 10.4983 8.60457 10.5737 8.41779C10.6492 8.23102 10.7615 8.06135 10.9039 7.91891C11.0463 7.77647 11.216 7.66418 11.4028 7.58874C11.5896 7.5133 11.7896 7.47625 11.991 7.4798C12.1924 7.48336 12.391 7.52744 12.575 7.60943C12.759 7.69141 12.9246 7.80961 13.062 7.95699C13.3269 8.24134 13.4712 8.61743 13.4643 9.00603C13.4575 9.39464 13.3 9.76541 13.0252 10.0402C12.7504 10.3151 12.3796 10.4725 11.991 10.4793C11.6024 10.4862 11.2263 10.3419 10.942 10.077V10.077ZM5.28297 2.29999L6.69797 3.71499C5.29163 5.12149 4.50157 7.02901 4.50157 9.01799C4.50157 11.007 5.29163 12.9145 6.69797 14.321L5.28297 15.736C4.40067 14.8538 3.70078 13.8065 3.22328 12.6538C2.74577 11.5011 2.5 10.2657 2.5 9.01799C2.5 7.77031 2.74577 6.53486 3.22328 5.38218C3.70078 4.2295 4.40067 3.18216 5.28297 2.29999V2.29999ZM18.719 2.29999C19.6013 3.18216 20.3012 4.2295 20.7787 5.38218C21.2562 6.53486 21.5019 7.77031 21.5019 9.01799C21.5019 10.2657 21.2562 11.5011 20.7787 12.6538C20.3012 13.8065 19.6013 14.8538 18.719 15.736L17.304 14.321C18.7103 12.9145 19.5004 11.007 19.5004 9.01799C19.5004 7.02901 18.7103 5.12149 17.304 3.71499L18.719 2.29999V2.29999ZM8.11197 5.12799L9.52597 6.54199C9.20093 6.867 8.94309 7.25285 8.76717 7.67751C8.59126 8.10218 8.50072 8.55733 8.50072 9.01699C8.50072 9.47664 8.59126 9.9318 8.76717 10.3565C8.94309 10.7811 9.20093 11.167 9.52597 11.492L8.11197 12.906C7.08057 11.8745 6.50115 10.4756 6.50115 9.01699C6.50115 7.55834 7.08057 6.15943 8.11197 5.12799V5.12799ZM15.89 5.12799C16.9214 6.15943 17.5008 7.55834 17.5008 9.01699C17.5008 10.4756 16.9214 11.8745 15.89 12.906L14.476 11.492C14.801 11.167 15.0589 10.7811 15.2348 10.3565C15.4107 9.9318 15.5012 9.47664 15.5012 9.01699C15.5012 8.55733 15.4107 8.10218 15.2348 7.67751C15.0589 7.25285 14.801 6.867 14.476 6.54199L15.89 5.12799Z" fill="black"/>
</svg>
