<svg width="24" height="24" viewBox="0 0 24 24" fill="none" xmlns="http://www.w3.org/2000/svg">
<path d="M10.885 14.093V15.9535C9.40472 15.9535 7.98507 16.5415 6.93835 17.5882C5.89164 18.635 5.3036 20.0546 5.3036 21.5349H3.44313C3.44313 19.5612 4.22719 17.6683 5.6228 16.2727C7.01842 14.8771 8.91129 14.093 10.885 14.093V14.093ZM10.885 13.1628C7.80127 13.1628 5.3036 10.6651 5.3036 7.5814C5.3036 4.49767 7.80127 2 10.885 2C13.9687 2 16.4664 4.49767 16.4664 7.5814C16.4664 10.6651 13.9687 13.1628 10.885 13.1628ZM10.885 11.3023C12.9408 11.3023 14.6059 9.63721 14.6059 7.5814C14.6059 5.52558 12.9408 3.86047 10.885 3.86047C8.82918 3.86047 7.16406 5.52558 7.16406 7.5814C7.16406 9.63721 8.82918 11.3023 10.885 11.3023ZM13.2989 18.5693C13.181 18.073 13.181 17.5559 13.2989 17.0595L12.3762 16.5265L13.3064 14.9153L14.2292 15.4484C14.5996 15.0976 15.0473 14.8388 15.5362 14.693V13.6279H17.3966V14.693C17.8915 14.84 18.338 15.1023 18.7036 15.4484L19.6264 14.9153L20.5566 16.5265L19.6338 17.0595C19.7516 17.5556 19.7516 18.0723 19.6338 18.5684L20.5566 19.1014L19.6264 20.7126L18.7036 20.1795C18.3332 20.5303 17.8855 20.7891 17.3966 20.9349V22H15.5362V20.9349C15.0473 20.7891 14.5996 20.5303 14.2292 20.1795L13.3064 20.7126L12.3762 19.1014L13.2989 18.5693V18.5693ZM16.4664 19.2093C16.8365 19.2093 17.1914 19.0623 17.453 18.8006C17.7147 18.5389 17.8617 18.184 17.8617 17.814C17.8617 17.4439 17.7147 17.089 17.453 16.8273C17.1914 16.5656 16.8365 16.4186 16.4664 16.4186C16.0963 16.4186 15.7414 16.5656 15.4797 16.8273C15.2181 17.089 15.071 17.4439 15.071 17.814C15.071 18.184 15.2181 18.5389 15.4797 18.8006C15.7414 19.0623 16.0963 19.2093 16.4664 19.2093Z" fill="black"/>
</svg>
