<svg width="24" height="24" viewBox="0 0 24 24" fill="none" xmlns="http://www.w3.org/2000/svg">
<path d="M2 4.21667C2 2.99222 2.99222 2 4.21667 2H19.7833C21.0078 2 22 2.99222 22 4.21667V19.7833C22 20.3712 21.7665 20.935 21.3508 21.3508C20.935 21.7665 20.3712 22 19.7833 22H4.21667C3.62877 22 3.06495 21.7665 2.64925 21.3508C2.23354 20.935 2 20.3712 2 19.7833V4.21667ZM4.22222 4.22222V19.7778H19.7778V4.22222H4.22222ZM7.52444 18.8667C6.84109 18.5707 6.18929 18.2066 5.57889 17.78C6.28363 16.6878 7.25107 15.7898 8.39266 15.1683C9.53425 14.5467 10.8135 14.2214 12.1133 14.2222C14.78 14.2222 17.1322 15.5633 18.5333 17.6078C17.9346 18.0507 17.2929 18.4322 16.6178 18.7467C16.1032 18.0333 15.4264 17.4526 14.6432 17.0523C13.86 16.652 12.9929 16.4436 12.1133 16.4444C10.2078 16.4444 8.52444 17.4044 7.52444 18.8667V18.8667ZM12 13.1111C11.4893 13.1111 10.9836 13.0105 10.5118 12.8151C10.04 12.6197 9.61126 12.3332 9.25014 11.9721C8.88902 11.611 8.60257 11.1823 8.40714 10.7104C8.2117 10.2386 8.11111 9.73292 8.11111 9.22222C8.11111 8.71153 8.2117 8.20583 8.40714 7.73401C8.60257 7.26219 8.88902 6.83348 9.25014 6.47236C9.61126 6.11125 10.04 5.82479 10.5118 5.62936C10.9836 5.43392 11.4893 5.33333 12 5.33333C13.0314 5.33333 14.0206 5.74305 14.7499 6.47236C15.4792 7.20167 15.8889 8.19083 15.8889 9.22222C15.8889 10.2536 15.4792 11.2428 14.7499 11.9721C14.0206 12.7014 13.0314 13.1111 12 13.1111ZM12 10.8889C12.442 10.8889 12.866 10.7133 13.1785 10.4007C13.4911 10.0882 13.6667 9.66425 13.6667 9.22222C13.6667 8.7802 13.4911 8.35627 13.1785 8.04371C12.866 7.73115 12.442 7.55556 12 7.55556C11.558 7.55556 11.134 7.73115 10.8215 8.04371C10.5089 8.35627 10.3333 8.7802 10.3333 9.22222C10.3333 9.66425 10.5089 10.0882 10.8215 10.4007C11.134 10.7133 11.558 10.8889 12 10.8889Z" fill="black"/>
</svg>
