<svg width="24" height="24" viewBox="0 0 24 24" fill="none" xmlns="http://www.w3.org/2000/svg">
<path d="M10.1643 6.16299C10.5332 5.46043 11.0397 4.83934 11.6538 4.33675C12.2679 3.83416 12.9769 3.46035 13.7385 3.23762C14.5001 3.01489 15.2988 2.94779 16.0869 3.04033C16.875 3.13286 17.6364 3.38314 18.3257 3.77623C19.015 4.16932 19.6181 4.69718 20.0991 5.32834C20.58 5.95951 20.929 6.68105 21.1251 7.44995C21.3212 8.21885 21.3605 9.01937 21.2407 9.80379C21.1208 10.5882 20.8442 11.3405 20.4274 12.0157C21.1568 12.7026 21.6631 13.5927 21.8807 14.5708C22.0982 15.5488 22.017 16.5697 21.6476 17.501C21.2781 18.4323 20.6375 19.2313 19.8087 19.7942C18.9798 20.3572 18.001 20.6582 16.9991 20.6583L9.26944 20.6574C8.27679 20.6567 7.2948 20.4528 6.38389 20.0583C5.47299 19.6638 4.65246 19.0871 3.97279 18.3636C3.29312 17.6402 2.7687 16.7853 2.4318 15.8515C2.09491 14.9178 1.95266 13.925 2.01382 12.9342C2.07498 11.9435 2.33826 10.9757 2.78744 10.0905C3.23662 9.20529 3.86221 8.42138 4.6257 7.787C5.38919 7.15262 6.27443 6.6812 7.22693 6.40175C8.17944 6.1223 9.17906 6.04074 10.1643 6.16208V6.16299ZM12.0476 6.65769C12.9559 7.03419 13.7788 7.59035 14.4668 8.29277C15.1549 8.99519 15.6939 9.82939 16.0515 10.7453C17.0044 10.5627 17.9897 10.6596 18.8887 11.0245C19.3103 10.1249 19.3902 9.10268 19.1135 8.14852C18.8369 7.19436 18.2226 6.37342 17.3852 5.83885C16.5478 5.30428 15.5446 5.09258 14.5626 5.24325C13.5807 5.39392 12.6871 5.89666 12.0485 6.65769H12.0476ZM16.9991 18.8396C17.5238 18.8395 18.0404 18.7097 18.5028 18.4617C18.9653 18.2137 19.3592 17.8552 19.6496 17.4182C19.94 16.9811 20.1178 16.479 20.1673 15.9566C20.2167 15.4342 20.1362 14.9077 19.9329 14.4239C19.7297 13.9401 19.4099 13.5141 19.0022 13.1838C18.5945 12.8535 18.1114 12.6291 17.596 12.5306C17.0806 12.4321 16.5488 12.4626 16.048 12.6193C15.5472 12.776 15.093 13.0541 14.7257 13.4289V13.3834C14.7257 12.3042 14.4057 11.2493 13.8061 10.3521C13.2066 9.4548 12.3544 8.75547 11.3574 8.3425C10.3605 7.92953 9.26339 7.82148 8.20499 8.03201C7.14659 8.24254 6.17438 8.76219 5.41132 9.52526C4.64825 10.2883 4.1286 11.2605 3.91807 12.3189C3.70754 13.3773 3.81559 14.4744 4.22856 15.4714C4.64152 16.4684 5.34086 17.3205 6.23813 17.9201C7.1354 18.5196 8.1903 18.8396 9.26944 18.8396H16.9991Z" fill="black"/>
</svg>
