<svg width="24" height="24" viewBox="0 0 24 24" fill="none" xmlns="http://www.w3.org/2000/svg">
<path d="M5.33333 10.0952C4.89559 10.0952 4.46214 10.009 4.05772 9.84149C3.6533 9.67397 3.28584 9.42844 2.97631 9.11891C2.66678 8.80939 2.42125 8.44192 2.25373 8.0375C2.08622 7.63308 2 7.19963 2 6.76189C2 6.32415 2.08622 5.8907 2.25373 5.48628C2.42125 5.08186 2.66678 4.7144 2.97631 4.40487C3.28584 4.09534 3.6533 3.84981 4.05772 3.68229C4.46214 3.51478 4.89559 3.42856 5.33333 3.42856C6.21739 3.42856 7.06523 3.77975 7.69036 4.40487C8.31548 5.02999 8.66667 5.87784 8.66667 6.76189C8.66667 7.64595 8.31548 8.49379 7.69036 9.11891C7.06523 9.74403 6.21739 10.0952 5.33333 10.0952V10.0952ZM5.33333 8.19046C5.71221 8.19046 6.07558 8.03995 6.34349 7.77204C6.6114 7.50414 6.7619 7.14077 6.7619 6.76189C6.7619 6.38301 6.6114 6.01965 6.34349 5.75174C6.07558 5.48383 5.71221 5.33332 5.33333 5.33332C4.95445 5.33332 4.59109 5.48383 4.32318 5.75174C4.05527 6.01965 3.90476 6.38301 3.90476 6.76189C3.90476 7.14077 4.05527 7.50414 4.32318 7.77204C4.59109 8.03995 4.95445 8.19046 5.33333 8.19046V8.19046ZM22 10.0952H20.0952C20.0952 9.08488 19.6939 8.11591 18.9795 7.40148C18.265 6.68706 17.2961 6.2857 16.2857 6.2857C15.2754 6.2857 14.3064 6.68706 13.592 7.40148C12.8775 8.11591 12.4762 9.08488 12.4762 10.0952V14.8571C12.4762 15.8675 12.8775 16.8364 13.592 17.5509C14.3064 18.2653 15.2754 18.6667 16.2857 18.6667C17.2961 18.6667 18.265 18.2653 18.9795 17.5509C19.6939 16.8364 20.0952 15.8675 20.0952 14.8571H22C22 16.3727 21.398 17.8261 20.3263 18.8977C19.2547 19.9694 17.8012 20.5714 16.2857 20.5714C14.7702 20.5714 13.3167 19.9694 12.2451 18.8977C11.1735 17.8261 10.5714 16.3727 10.5714 14.8571V10.0952C10.5714 8.5797 11.1735 7.12625 12.2451 6.05461C13.3167 4.98298 14.7702 4.38094 16.2857 4.38094C17.8012 4.38094 19.2547 4.98298 20.3263 6.05461C21.398 7.12625 22 8.5797 22 10.0952V10.0952Z" fill="black"/>
</svg>
