<svg width="24" height="24" viewBox="0 0 24 24" fill="none" xmlns="http://www.w3.org/2000/svg">
<path d="M21 8V20.993C21.0009 21.1243 20.9759 21.2545 20.9265 21.3762C20.8771 21.4979 20.8042 21.6087 20.712 21.7022C20.6198 21.7957 20.5101 21.8701 20.3891 21.9212C20.2681 21.9723 20.1383 21.9991 20.007 22H3.99297C3.72978 22 3.47736 21.8955 3.29117 21.7095C3.10497 21.5235 3.00023 21.2712 2.99997 21.008V2.992C2.99997 2.455 3.44897 2 4.00197 2H14.997L21 8ZM19 9H14V4H4.99997V20H19V9Z" fill="black"/>
</svg>
