<svg width="24" height="24" viewBox="0 0 24 24" fill="none" xmlns="http://www.w3.org/2000/svg">
<path d="M2.96569 8.65H5.35V19C5.35 19.9113 6.08881 20.65 7.00004 20.65C7.91122 20.65 8.65001 19.9114 8.65008 19.0001L8.65095 8.65H11.0343C11.9698 8.65 12.4382 7.519 11.7768 6.85754L7.74246 2.82322C7.33241 2.41317 6.66759 2.41317 6.25754 2.82322L2.22322 6.85754C1.56176 7.519 2.03024 8.65 2.96569 8.65ZM17.7425 21.1768L21.7768 17.1425C22.4382 16.481 21.9698 15.35 21.0343 15.35H18.65V5C18.65 4.08873 17.9113 3.35 17 3.35C16.0887 3.35 15.35 4.08873 15.35 5V15.35H12.9657C12.0302 15.35 11.5618 16.481 12.2232 17.1425L16.2575 21.1768C16.6676 21.5868 17.3324 21.5868 17.7425 21.1768Z" stroke="black" stroke-width="1.3"/>
</svg>
