<svg width="24" height="24" viewBox="0 0 24 24" fill="none" xmlns="http://www.w3.org/2000/svg">
<path d="M16.5577 2.95238L14.4413 5.06878H4.1164V19.8836H18.9312V9.55873L21.0476 7.44233V20.9418C21.0476 21.2225 20.9361 21.4916 20.7377 21.6901C20.5392 21.8885 20.2701 22 19.9894 22H3.0582C2.77755 22 2.50839 21.8885 2.30994 21.6901C2.11149 21.4916 2 21.2225 2 20.9418V4.01058C2 3.72993 2.11149 3.46077 2.30994 3.26232C2.50839 3.06387 2.77755 2.95238 3.0582 2.95238H16.5577ZM20.5026 2L22 3.49841L12.273 13.2254L10.7788 13.2286L10.7767 11.7291L20.5026 2Z" fill="black"/>
</svg>
