<svg width="24" height="24" viewBox="0 0 24 24" fill="none" xmlns="http://www.w3.org/2000/svg">
<path d="M13.8199 17.4583V15.6398H17.0022C17.5268 15.6398 18.0433 15.51 18.5057 15.262C18.968 15.014 19.3619 14.6556 19.6523 14.2186C19.9426 13.7816 20.1204 13.2796 20.1698 12.7573C20.2192 12.235 20.1388 11.7085 19.9355 11.2249C19.7323 10.7412 19.4126 10.3152 19.005 9.98494C18.5973 9.65467 18.1143 9.43031 17.599 9.33183C17.0837 9.23336 16.552 9.26383 16.0513 9.42052C15.5506 9.57722 15.0964 9.85528 14.7291 10.23V10.1845C14.7291 8.73766 14.1543 7.35007 13.1313 6.327C12.1082 5.30393 10.7206 4.72917 9.27377 4.72917C7.82693 4.72917 6.43935 5.30393 5.41627 6.327C4.3932 7.35007 3.81845 8.73766 3.81845 10.1845V10.1909H2V10.1845C1.99863 8.48712 2.59091 6.84271 3.67427 5.53604C4.75764 4.22936 6.26387 3.34271 7.93213 3.02963C9.60038 2.71655 11.3256 2.99676 12.809 3.82173C14.2924 4.64669 15.4406 5.96447 16.0547 7.54685C16.7388 7.41528 17.4428 7.42807 18.1216 7.5844C18.8004 7.74074 19.4391 8.03717 19.9967 8.45469C20.5542 8.87222 21.0185 9.40163 21.3595 10.009C21.7006 10.6164 21.911 11.2883 21.9773 11.9817C22.0436 12.6751 21.9643 13.3748 21.7444 14.0357C21.5246 14.6967 21.1691 15.3045 20.7007 15.8201C20.2323 16.3357 19.6614 16.7477 19.0245 17.0298C18.3876 17.3119 17.6987 17.4579 17.0022 17.4583H13.8199ZM6.54611 19.2767H15.6383V21.0952H6.54611V19.2767ZM6.54611 12.0029H13.8199V13.8214H6.54611V12.0029ZM2.90922 15.6398H12.0014V17.4583H2.90922V15.6398Z" fill="black"/>
</svg>
