<svg width="24" height="24" viewBox="0 0 24 24" fill="none" xmlns="http://www.w3.org/2000/svg">
<path d="M12 21.389C10.8473 21.389 9.70582 21.1619 8.64084 20.7208C7.57585 20.2797 6.60818 19.6331 5.79307 18.818C4.97797 18.0029 4.33139 17.0352 3.89026 15.9702C3.44913 14.9052 3.22208 13.7638 3.22208 12.6111C3.22208 11.4583 3.44913 10.3169 3.89026 9.25189C4.33139 8.1869 4.97797 7.21923 5.79307 6.40413C6.60818 5.58902 7.57585 4.94245 8.64084 4.50131C9.70582 4.06018 10.8473 3.83313 12 3.83313C14.328 3.83313 16.5607 4.75795 18.2069 6.40413C19.8531 8.05031 20.7779 10.283 20.7779 12.6111C20.7779 14.9391 19.8531 17.1718 18.2069 18.818C16.5607 20.4642 14.328 21.389 12 21.389V21.389ZM12 19.4383C12.8966 19.4383 13.7844 19.2617 14.6127 18.9186C15.441 18.5755 16.1936 18.0726 16.8276 17.4387C17.4616 16.8047 17.9645 16.0521 18.3076 15.2237C18.6507 14.3954 18.8273 13.5076 18.8273 12.6111C18.8273 11.7145 18.6507 10.8267 18.3076 9.99837C17.9645 9.17005 17.4616 8.41742 16.8276 7.78344C16.1936 7.14947 15.441 6.64658 14.6127 6.30348C13.7844 5.96038 12.8966 5.78378 12 5.78378C10.1893 5.78378 8.45275 6.50308 7.17239 7.78344C5.89203 9.06381 5.17273 10.8003 5.17273 12.6111C5.17273 14.4218 5.89203 16.1583 7.17239 17.4387C8.45275 18.719 10.1893 19.4383 12 19.4383V19.4383ZM12.9753 12.6111H15.9013V14.5617H11.0247V7.73443H12.9753V12.6111ZM2 6.05882L5.44777 2.61105L6.82785 3.99016L3.37813 7.43891L2 6.05882ZM18.5513 2.61105L22 6.05882L20.6209 7.43891L17.1721 3.99016L18.5522 2.61105H18.5513Z" fill="black"/>
</svg>
