<svg width="24" height="24" viewBox="0 0 24 24" fill="none" xmlns="http://www.w3.org/2000/svg">
<path d="M12 20.4634C11.9017 20.345 11.7955 20.2159 11.6827 20.0769C11.0393 19.2841 10.1832 18.1755 9.32896 16.9094C8.47285 15.6406 7.63106 14.2317 7.00635 12.8372C6.37577 11.4297 6 10.1102 6 9C6 5.68228 8.68228 3 12 3C15.3177 3 18 5.68228 18 9C18 10.1102 17.6242 11.4297 16.9936 12.8372C16.3689 14.2317 15.5272 15.6406 14.671 16.9094C13.8168 18.1755 12.9607 19.2841 12.3173 20.0769C12.2045 20.2159 12.0983 20.345 12 20.4634Z" stroke="black" stroke-width="2"/>
<circle cx="12" cy="9.09686" r="1.7" stroke="black" stroke-width="1.6"/>
</svg>
