<svg width="24" height="24" viewBox="0 0 24 24" fill="none" xmlns="http://www.w3.org/2000/svg">
<path d="M20.1818 19.2H22V21H2V19.2H3.81818V3.9C3.81818 3.66131 3.91396 3.43239 4.08445 3.2636C4.25494 3.09482 4.48617 3 4.72727 3H19.2727C19.5138 3 19.7451 3.09482 19.9156 3.2636C20.086 3.43239 20.1818 3.66131 20.1818 3.9V19.2ZM18.3636 19.2V4.8H5.63636V19.2H18.3636ZM8.36364 11.1H11.0909V12.9H8.36364V11.1ZM8.36364 7.5H11.0909V9.3H8.36364V7.5ZM8.36364 14.7H11.0909V16.5H8.36364V14.7ZM12.9091 14.7H15.6364V16.5H12.9091V14.7ZM12.9091 11.1H15.6364V12.9H12.9091V11.1ZM12.9091 7.5H15.6364V9.3H12.9091V7.5Z" fill="black"/>
</svg>
