<svg width="24" height="24" viewBox="0 0 24 24" fill="none" xmlns="http://www.w3.org/2000/svg">
<path d="M16.55 17.5509V15.7317H17.0048C17.5297 15.7316 18.0464 15.6018 18.509 15.3537C18.9715 15.1057 19.3656 14.7471 19.656 14.3099C19.9465 13.8727 20.1244 13.3705 20.1738 12.848C20.2233 12.3254 20.1427 11.7987 19.9394 11.3148C19.7361 10.8309 19.4163 10.4048 19.0085 10.0744C18.6006 9.744 18.1174 9.51954 17.6019 9.42102C17.0863 9.32251 16.5544 9.35299 16.0535 9.50975C15.5526 9.66651 15.0982 9.94469 14.7308 10.3195V10.2741C14.7304 9.27357 14.4551 8.29244 13.9348 7.43788C13.4145 6.58332 12.6693 5.88822 11.7807 5.42853C10.8921 4.96885 9.8942 4.76228 8.89612 4.83139C7.89803 4.9005 6.93814 5.24264 6.12135 5.82041C5.30457 6.39819 4.66232 7.18936 4.26479 8.10747C3.86726 9.02559 3.72975 10.0353 3.86729 11.0263C4.00483 12.0173 4.41213 12.9514 5.04467 13.7265C5.67721 14.5017 6.51065 15.088 7.45391 15.4215V17.3217C6.2475 17.0095 5.14148 16.3928 4.24181 15.5305C3.34213 14.6683 2.67896 13.5895 2.31583 12.3974C1.95269 11.2054 1.90176 9.94001 2.16792 8.72263C2.43408 7.50525 3.0084 6.37661 3.83587 5.44486C4.66334 4.5131 5.71622 3.80946 6.89363 3.40133C8.07104 2.99321 9.33353 2.89429 10.5601 3.11405C11.7868 3.33381 12.9364 3.86488 13.8989 4.65638C14.8614 5.44788 15.6045 6.47329 16.057 7.63437C16.741 7.50348 17.4449 7.51687 18.1235 7.67367C18.8021 7.83048 19.4405 8.12725 19.9978 8.54498C20.5551 8.96271 21.019 9.49221 21.3599 10.0996C21.7007 10.7069 21.911 11.3788 21.9773 12.0721C22.0436 12.7654 21.9643 13.4649 21.7447 14.1258C21.525 14.7868 21.1698 15.3946 20.7017 15.9103C20.2337 16.426 19.6631 16.8384 19.0265 17.1209C18.3898 17.4034 17.7013 17.5499 17.0048 17.5509L16.55 17.5518V17.5509ZM12.9116 15.7362H15.6404L11.0923 21.6487V17.5555H8.36352L12.9116 11.6385V15.7362Z" fill="black"/>
</svg>
