<svg width="24" height="24" viewBox="0 0 24 24" fill="none" xmlns="http://www.w3.org/2000/svg">
<path d="M2 7.57648C4.82855 5.28498 8.35972 4.03705 12 4.04244C15.7887 4.04244 19.2679 5.36604 22 7.57648L20.8895 8.95225C18.3751 6.91518 15.236 5.80586 12 5.81078C8.63218 5.81078 5.54023 6.98673 3.11052 8.95225L2 7.57648ZM4.77719 11.0159C6.82016 9.36074 9.37068 8.45936 12 8.4633C14.7356 8.4633 17.2485 9.41909 19.2228 11.015L18.1114 12.3908C16.3827 10.9906 14.2247 10.2281 12 10.2317C9.68523 10.2317 7.5588 11.0407 5.88859 12.3908L4.77719 11.015V11.0159ZM7.55526 14.4553C8.81242 13.4367 10.3819 12.8819 12 12.8842C13.6835 12.8842 15.2299 13.4721 16.4447 14.4545L15.3333 15.8302C14.3904 15.0665 13.2134 14.6506 12 14.6525C10.7374 14.6525 9.57736 15.0937 8.66667 15.8302L7.55526 14.4545V14.4553ZM10.3333 17.8948C10.8046 17.5126 11.3932 17.3043 12 17.305C12.6313 17.305 13.2113 17.5261 13.6667 17.8939L12 19.9576L10.3333 17.8939V17.8948Z" fill="black"/>
</svg>
