<svg width="24" height="24" viewBox="0 0 24 24" fill="none" xmlns="http://www.w3.org/2000/svg">
<path d="M3.99989 20V14C3.99989 11.8783 4.84275 9.84344 6.34304 8.34315C7.84333 6.84285 9.87816 6 11.9999 6C14.1216 6 16.1565 6.84285 17.6567 8.34315C19.157 9.84344 19.9999 11.8783 19.9999 14V20H20.9999V22H2.99989V20H3.99989ZM5.99989 20H17.9999V14C17.9999 12.4087 17.3678 10.8826 16.2425 9.75736C15.1173 8.63214 13.5912 8 11.9999 8C10.4086 8 8.88247 8.63214 7.75725 9.75736C6.63203 10.8826 5.99989 12.4087 5.99989 14V20ZM10.9999 2H12.9999V5H10.9999V2ZM19.7779 4.808L21.1919 6.222L19.0719 8.343L17.6569 6.929L19.7779 4.808ZM2.80789 6.222L4.22189 4.808L6.34289 6.928L4.92989 8.344L2.80789 6.222ZM6.99989 14C6.99989 12.6739 7.52668 11.4021 8.46436 10.4645C9.40204 9.52678 10.6738 9 11.9999 9V11C11.2042 11 10.4412 11.3161 9.87857 11.8787C9.31596 12.4413 8.99989 13.2044 8.99989 14H6.99989Z" fill="black"/>
</svg>
