<svg width="24" height="24" viewBox="0 0 24 24" fill="none" xmlns="http://www.w3.org/2000/svg">
<path d="M3.56185 2.05811L20.8907 11.5889C20.9643 11.6294 21.0256 11.6889 21.0684 11.7612C21.1111 11.8335 21.1337 11.916 21.1337 12C21.1337 12.084 21.1111 12.1665 21.0684 12.2388C21.0256 12.3111 20.9643 12.3706 20.8907 12.4111L3.56185 21.9419C3.4904 21.9812 3.40993 22.0012 3.32839 21.9999C3.24685 21.9987 3.16704 21.9762 3.09684 21.9347C3.02663 21.8932 2.96845 21.8341 2.92803 21.7633C2.88761 21.6925 2.86635 21.6123 2.86633 21.5308V2.46923C2.86635 2.38768 2.88761 2.30754 2.92803 2.23671C2.96845 2.16587 3.02663 2.1068 3.09684 2.0653C3.16704 2.0238 3.24685 2.00132 3.32839 2.00006C3.40993 1.9988 3.4904 2.01881 3.56185 2.05811V2.05811ZM4.74358 12.9386V19.1495L17.7435 12L4.74358 4.85051V11.0614H9.43669V12.9386H4.74358Z" fill="black"/>
</svg>
