<svg width="24" height="24" viewBox="0 0 24 24" fill="none" xmlns="http://www.w3.org/2000/svg">
<path d="M7.20712 11.2928C6.8166 11.6834 6.8166 12.3165 7.20712 12.7071L10.0357 15.5356C10.4263 15.9262 11.0597 15.926 11.4502 15.5353V15.5353C11.8405 15.1446 11.8405 14.5115 11.4499 14.1211L9.32801 12L11.4499 9.87881C11.8405 9.4884 11.8405 8.85525 11.4502 8.46464V8.46464C11.0597 8.07388 10.4263 8.07369 10.0357 8.46431L7.20712 11.2928Z" fill="black"/>
<path d="M12.5501 11.2928C12.1596 11.6834 12.1596 12.3165 12.5501 12.7071L15.3786 15.5356C15.7693 15.9262 16.4027 15.926 16.7932 15.5353V15.5353C17.1835 15.1446 17.1834 14.5115 16.7929 14.1211L14.671 12L16.7929 9.87881C17.1834 9.4884 17.1835 8.85525 16.7932 8.46464V8.46464C16.4027 8.07388 15.7693 8.07369 15.3786 8.46431L12.5501 11.2928Z" fill="black"/>
</svg>
