<svg width="24" height="24" viewBox="0 0 24 24" fill="none" xmlns="http://www.w3.org/2000/svg">
<path d="M12.8227 3.68722L21.8727 19.3627C21.9561 19.5072 22 19.671 22 19.8377C22 20.0045 21.9561 20.1683 21.8727 20.3128C21.7893 20.4572 21.6694 20.5771 21.525 20.6605C21.3806 20.7439 21.2168 20.7878 21.05 20.7878H2.95001C2.78324 20.7878 2.61942 20.7439 2.475 20.6605C2.33058 20.5771 2.21065 20.4572 2.12727 20.3128C2.04389 20.1683 2 20.0045 2 19.8377C2 19.671 2.0439 19.5072 2.12728 19.3627L11.1773 3.68722C11.2607 3.54281 11.3806 3.42289 11.525 3.33952C11.6694 3.25614 11.8332 3.21225 12 3.21225C12.1668 3.21225 12.3306 3.25614 12.475 3.33952C12.6194 3.42289 12.7393 3.54281 12.8227 3.68722V3.68722ZM4.59546 18.8877H19.4045L12 6.0623L4.59546 18.8877V18.8877ZM11.05 16.0376H12.95V17.9377H11.05V16.0376ZM11.05 9.38741H12.95V14.1376H11.05V9.38741Z" fill="black"/>
</svg>
