<svg width="24" height="24" viewBox="0 0 24 24" fill="none" xmlns="http://www.w3.org/2000/svg">
<path d="M18.3636 20.9311H5.63636C5.39526 20.9311 5.16403 20.8353 4.99354 20.6648C4.82305 20.4943 4.72727 20.2631 4.72727 20.022V11.8402H2L11.3882 3.30564C11.5556 3.15334 11.7737 3.06895 12 3.06895C12.2263 3.06895 12.4444 3.15334 12.6118 3.30564L22 11.8402H19.2727V20.022C19.2727 20.2631 19.1769 20.4943 19.0065 20.6648C18.836 20.8353 18.6047 20.9311 18.3636 20.9311ZM12.9091 19.1129H17.4545V10.1647L12 5.20654L6.54545 10.1647V19.1129H11.0909V13.6584H12.9091V19.1129Z" fill="black"/>
</svg>
