<svg width="24" height="24" viewBox="0 0 24 24" fill="none" xmlns="http://www.w3.org/2000/svg">
<path d="M12.4984 14.1897V16.1121C11.6658 15.8178 10.7748 15.7275 9.9002 15.8489C9.02555 15.9702 8.1928 16.2997 7.47186 16.8096C6.75092 17.3194 6.16285 17.9949 5.75704 18.7791C5.35122 19.5634 5.13951 20.4335 5.13968 21.3166L3.3 21.3156C3.29972 20.1924 3.55656 19.084 4.05086 18.0754C4.54516 17.0668 5.2638 16.1847 6.1517 15.4968C7.03959 14.8088 8.0732 14.3333 9.1733 14.1066C10.2734 13.8798 11.4108 13.9079 12.4984 14.1888V14.1897ZM10.6587 13.038C7.60944 13.038 5.13968 10.5683 5.13968 7.51902C5.13968 4.46976 7.60944 2 10.6587 2C13.708 2 16.1777 4.46976 16.1777 7.51902C16.1777 10.5683 13.708 13.038 10.6587 13.038ZM10.6587 11.1984C12.6915 11.1984 14.338 9.55186 14.338 7.51902C14.338 5.48618 12.6915 3.83967 10.6587 3.83967C8.62586 3.83967 6.97935 5.48618 6.97935 7.51902C6.97935 9.55186 8.62586 11.1984 10.6587 11.1984ZM15.9873 19.3978L19.2389 16.1462L20.5405 17.4468L15.9873 22L12.7348 18.7475L14.0363 17.4468L15.9864 19.3978H15.9873Z" fill="black"/>
</svg>
