<svg width="24" height="24" viewBox="0 0 24 24" fill="none" xmlns="http://www.w3.org/2000/svg">
<mask id="path-1-outside-1_70_172" maskUnits="userSpaceOnUse" x="1.5" y="1.5" width="21" height="21" fill="black">
<rect fill="white" x="1.5" y="1.5" width="21" height="21"/>
<path fill-rule="evenodd" clip-rule="evenodd" d="M10.778 21.5H13.1432C13.3008 21.5 13.4585 21.3417 13.5373 21.1833L14.0892 18.8083C14.4834 18.65 14.8776 18.4917 15.1929 18.3333L17.3216 19.7583C17.4793 19.8375 17.6369 19.8375 17.7946 19.6792L19.4502 18.0167C19.6079 17.8583 19.6079 17.7 19.529 17.5417L18.2676 15.4042C18.438 15.1191 18.5265 14.8751 18.6216 14.613C18.6586 14.5112 18.6965 14.4066 18.7407 14.2958L21.1846 13.6625C21.3423 13.5833 21.5 13.425 21.5 13.2667V10.8917C21.5 10.7333 21.3423 10.575 21.1846 10.4958L18.7407 9.8625L18.7406 9.86242C18.583 9.46661 18.4253 9.07081 18.2676 8.75417L19.6079 6.69583C19.6867 6.5375 19.6867 6.37917 19.529 6.22083L17.8734 4.55833C17.7158 4.4 17.5581 4.4 17.4004 4.47917L15.2718 5.74583C14.9879 5.5748 14.7449 5.48588 14.4839 5.39037C14.3825 5.35325 14.2784 5.31514 14.168 5.27083L13.5373 2.81667C13.4585 2.65833 13.3008 2.5 13.1432 2.5H10.778C10.6203 2.5 10.4627 2.65833 10.3838 2.81667L9.83195 5.19167C9.43776 5.35 9.04357 5.50833 8.72822 5.66667L6.59958 4.4C6.44191 4.32083 6.20539 4.32083 6.12656 4.47917L4.47095 6.14167C4.31328 6.22083 4.31328 6.45833 4.39212 6.61667L5.65353 8.75417C5.49585 9.07083 5.33817 9.46667 5.25934 9.78333L2.81535 10.4167C2.65768 10.4958 2.5 10.6542 2.5 10.8125V13.1875C2.5 13.3458 2.65768 13.5042 2.81535 13.5833L5.1805 14.1375L5.18051 14.1375C5.33818 14.5333 5.49585 14.9292 5.65353 15.2458L4.31328 17.3042C4.23444 17.4625 4.23444 17.6208 4.39212 17.7792L6.04772 19.4417C6.20539 19.6 6.36307 19.6 6.52075 19.5208L8.64938 18.2542C8.93325 18.4252 9.17624 18.5141 9.43723 18.6096C9.53865 18.6467 9.6428 18.6849 9.75311 18.7292L10.3838 21.1833C10.4627 21.3417 10.6203 21.5 10.778 21.5ZM12.8278 20.7083H11.0934L10.5415 18.4125C10.4627 18.2542 10.3838 18.0958 10.2261 18.0958L10.2261 18.0958C9.75311 17.9375 9.28008 17.7792 8.88589 17.5417C8.80705 17.4625 8.64938 17.4625 8.4917 17.5417L6.44191 18.8083L5.1805 17.5417L6.44191 15.5625V15.4833C6.52075 15.325 6.52075 15.2458 6.44191 15.0875C6.20539 14.6917 6.04772 14.2167 5.89004 13.7417C5.8112 13.5833 5.73237 13.425 5.57469 13.425L3.20954 12.8708V11.1292L5.57469 10.575C5.73237 10.4958 5.89004 10.4167 5.89004 10.2583L5.89004 10.2583C6.04772 9.78333 6.2054 9.30833 6.44191 8.9125C6.52075 8.83333 6.52075 8.675 6.44191 8.59583V8.51667L5.1805 6.45833L6.44191 5.19167L8.4917 6.45833C8.64938 6.5375 8.80705 6.5375 8.88589 6.45833C9.28008 6.22083 9.75311 6.0625 10.2261 5.90417C10.3838 5.825 10.5415 5.74583 10.5415 5.5875L11.0934 3.2125H12.8278L13.3797 5.5875C13.4585 5.74583 13.5373 5.90417 13.695 5.90417C14.168 6.0625 14.6411 6.22083 15.0353 6.45833C15.1141 6.5375 15.2718 6.5375 15.4295 6.45833L17.4793 5.19167L18.7407 6.45833L17.4793 8.4375V8.51667C17.4004 8.675 17.4004 8.75417 17.4793 8.9125C17.7158 9.30833 17.8734 9.78333 18.0311 10.2583C18.11 10.4167 18.1888 10.575 18.3465 10.575L20.7116 11.1292V12.8708L18.3465 13.425C18.1888 13.5042 18.0311 13.5833 18.0311 13.7417C17.8734 14.2167 17.7158 14.6917 17.4793 15.0875C17.4004 15.2458 17.4004 15.325 17.4793 15.4833L18.7407 17.3833L17.4793 18.65L15.4295 17.4625C15.3506 17.3833 15.1929 17.3833 15.0353 17.4625C14.6411 17.7 14.168 17.8583 13.695 18.0167C13.5373 18.0958 13.3797 18.175 13.3797 18.3333L12.8278 20.7083ZM8.99867 12C8.99867 13.68 10.3187 15 11.9987 15C13.6787 15 14.9987 13.68 14.9987 12C14.9987 10.32 13.6787 8.99999 11.9987 8.99999C10.3187 8.99999 8.99867 10.32 8.99867 12ZM9.59867 12C9.59867 10.68 10.6787 9.59999 11.9987 9.59999C13.3187 9.59999 14.3987 10.68 14.3987 12C14.3987 13.32 13.3187 14.4 11.9987 14.4C10.6787 14.4 9.59867 13.32 9.59867 12Z"/>
</mask>
<path fill-rule="evenodd" clip-rule="evenodd" d="M10.778 21.5H13.1432C13.3008 21.5 13.4585 21.3417 13.5373 21.1833L14.0892 18.8083C14.4834 18.65 14.8776 18.4917 15.1929 18.3333L17.3216 19.7583C17.4793 19.8375 17.6369 19.8375 17.7946 19.6792L19.4502 18.0167C19.6079 17.8583 19.6079 17.7 19.529 17.5417L18.2676 15.4042C18.438 15.1191 18.5265 14.8751 18.6216 14.613C18.6586 14.5112 18.6965 14.4066 18.7407 14.2958L21.1846 13.6625C21.3423 13.5833 21.5 13.425 21.5 13.2667V10.8917C21.5 10.7333 21.3423 10.575 21.1846 10.4958L18.7407 9.8625L18.7406 9.86242C18.583 9.46661 18.4253 9.07081 18.2676 8.75417L19.6079 6.69583C19.6867 6.5375 19.6867 6.37917 19.529 6.22083L17.8734 4.55833C17.7158 4.4 17.5581 4.4 17.4004 4.47917L15.2718 5.74583C14.9879 5.5748 14.7449 5.48588 14.4839 5.39037C14.3825 5.35325 14.2784 5.31514 14.168 5.27083L13.5373 2.81667C13.4585 2.65833 13.3008 2.5 13.1432 2.5H10.778C10.6203 2.5 10.4627 2.65833 10.3838 2.81667L9.83195 5.19167C9.43776 5.35 9.04357 5.50833 8.72822 5.66667L6.59958 4.4C6.44191 4.32083 6.20539 4.32083 6.12656 4.47917L4.47095 6.14167C4.31328 6.22083 4.31328 6.45833 4.39212 6.61667L5.65353 8.75417C5.49585 9.07083 5.33817 9.46667 5.25934 9.78333L2.81535 10.4167C2.65768 10.4958 2.5 10.6542 2.5 10.8125V13.1875C2.5 13.3458 2.65768 13.5042 2.81535 13.5833L5.1805 14.1375L5.18051 14.1375C5.33818 14.5333 5.49585 14.9292 5.65353 15.2458L4.31328 17.3042C4.23444 17.4625 4.23444 17.6208 4.39212 17.7792L6.04772 19.4417C6.20539 19.6 6.36307 19.6 6.52075 19.5208L8.64938 18.2542C8.93325 18.4252 9.17624 18.5141 9.43723 18.6096C9.53865 18.6467 9.6428 18.6849 9.75311 18.7292L10.3838 21.1833C10.4627 21.3417 10.6203 21.5 10.778 21.5ZM12.8278 20.7083H11.0934L10.5415 18.4125C10.4627 18.2542 10.3838 18.0958 10.2261 18.0958L10.2261 18.0958C9.75311 17.9375 9.28008 17.7792 8.88589 17.5417C8.80705 17.4625 8.64938 17.4625 8.4917 17.5417L6.44191 18.8083L5.1805 17.5417L6.44191 15.5625V15.4833C6.52075 15.325 6.52075 15.2458 6.44191 15.0875C6.20539 14.6917 6.04772 14.2167 5.89004 13.7417C5.8112 13.5833 5.73237 13.425 5.57469 13.425L3.20954 12.8708V11.1292L5.57469 10.575C5.73237 10.4958 5.89004 10.4167 5.89004 10.2583L5.89004 10.2583C6.04772 9.78333 6.2054 9.30833 6.44191 8.9125C6.52075 8.83333 6.52075 8.675 6.44191 8.59583V8.51667L5.1805 6.45833L6.44191 5.19167L8.4917 6.45833C8.64938 6.5375 8.80705 6.5375 8.88589 6.45833C9.28008 6.22083 9.75311 6.0625 10.2261 5.90417C10.3838 5.825 10.5415 5.74583 10.5415 5.5875L11.0934 3.2125H12.8278L13.3797 5.5875C13.4585 5.74583 13.5373 5.90417 13.695 5.90417C14.168 6.0625 14.6411 6.22083 15.0353 6.45833C15.1141 6.5375 15.2718 6.5375 15.4295 6.45833L17.4793 5.19167L18.7407 6.45833L17.4793 8.4375V8.51667C17.4004 8.675 17.4004 8.75417 17.4793 8.9125C17.7158 9.30833 17.8734 9.78333 18.0311 10.2583C18.11 10.4167 18.1888 10.575 18.3465 10.575L20.7116 11.1292V12.8708L18.3465 13.425C18.1888 13.5042 18.0311 13.5833 18.0311 13.7417C17.8734 14.2167 17.7158 14.6917 17.4793 15.0875C17.4004 15.2458 17.4004 15.325 17.4793 15.4833L18.7407 17.3833L17.4793 18.65L15.4295 17.4625C15.3506 17.3833 15.1929 17.3833 15.0353 17.4625C14.6411 17.7 14.168 17.8583 13.695 18.0167C13.5373 18.0958 13.3797 18.175 13.3797 18.3333L12.8278 20.7083ZM8.99867 12C8.99867 13.68 10.3187 15 11.9987 15C13.6787 15 14.9987 13.68 14.9987 12C14.9987 10.32 13.6787 8.99999 11.9987 8.99999C10.3187 8.99999 8.99867 10.32 8.99867 12ZM9.59867 12C9.59867 10.68 10.6787 9.59999 11.9987 9.59999C13.3187 9.59999 14.3987 10.68 14.3987 12C14.3987 13.32 13.3187 14.4 11.9987 14.4C10.6787 14.4 9.59867 13.32 9.59867 12Z" fill="black"/>
<path d="M13.5373 21.1833L13.8954 21.3616L13.9163 21.3196L13.927 21.2739L13.5373 21.1833ZM14.0892 18.8083L13.9401 18.4372L13.7468 18.5148L13.6996 18.7178L14.0892 18.8083ZM15.1929 18.3333L15.4155 18.0009L15.2218 17.8713L15.0135 17.9759L15.1929 18.3333ZM17.3216 19.7583L17.0991 20.0907L17.1198 20.1046L17.1421 20.1158L17.3216 19.7583ZM17.7946 19.6792L18.078 19.9614L18.078 19.9614L17.7946 19.6792ZM19.4502 18.0167L19.7336 18.2989L19.4502 18.0167ZM19.529 17.5417L19.8871 17.3634L19.8808 17.3506L19.8735 17.3384L19.529 17.5417ZM18.2676 15.4042L17.9243 15.199L17.8024 15.4029L17.9231 15.6075L18.2676 15.4042ZM18.6216 14.613L18.9976 14.7495L18.9976 14.7495L18.6216 14.613ZM18.7407 14.2958L18.6403 13.9086L18.4441 13.9595L18.3691 14.1478L18.7407 14.2958ZM21.1846 13.6625L21.285 14.0497L21.3261 14.039L21.3641 14.02L21.1846 13.6625ZM21.1846 10.4958L21.3641 10.1384L21.3261 10.1193L21.285 10.1086L21.1846 10.4958ZM18.7407 9.8625L18.3708 10.0149L18.447 10.1996L18.6403 10.2497L18.7407 9.8625ZM18.7406 9.86242L18.369 10.0105L18.3708 10.0148L18.7406 9.86242ZM18.2676 8.75417L17.9324 8.5359L17.8076 8.72764L17.9096 8.93246L18.2676 8.75417ZM19.6079 6.69583L19.9431 6.9141L19.9557 6.89477L19.966 6.87412L19.6079 6.69583ZM19.529 6.22083L19.8125 5.93858L19.8125 5.93858L19.529 6.22083ZM17.8734 4.55833L18.1569 4.27608V4.27608L17.8734 4.55833ZM17.4004 4.47917L17.2209 4.12169L17.2082 4.12811L17.1959 4.13542L17.4004 4.47917ZM15.2718 5.74583L15.0654 6.08845L15.2705 6.21206L15.4763 6.08958L15.2718 5.74583ZM14.4839 5.39037L14.3465 5.766H14.3465L14.4839 5.39037ZM14.168 5.27083L13.7806 5.3704L13.831 5.56653L14.019 5.64201L14.168 5.27083ZM13.5373 2.81667L13.9248 2.7171L13.9142 2.67619L13.8954 2.63838L13.5373 2.81667ZM10.3838 2.81667L10.0258 2.63838L10.0048 2.6804L9.9942 2.72613L10.3838 2.81667ZM9.83195 5.19167L9.98104 5.56284L10.1744 5.48517L10.2216 5.2822L9.83195 5.19167ZM8.72822 5.66667L8.52367 6.01041L8.71192 6.12243L8.9077 6.02414L8.72822 5.66667ZM6.59958 4.4L6.80413 4.05626L6.79184 4.04894L6.77907 4.04253L6.59958 4.4ZM6.12656 4.47917L6.40999 4.76142L6.45573 4.71549L6.48462 4.65746L6.12656 4.47917ZM4.47095 6.14167L4.65044 6.49914L4.70852 6.46998L4.75438 6.42392L4.47095 6.14167ZM4.39212 6.61667L4.03405 6.79496L4.04039 6.8077L4.04763 6.81996L4.39212 6.61667ZM5.65353 8.75417L6.01159 8.93246L6.10843 8.73798L5.99801 8.55087L5.65353 8.75417ZM5.25934 9.78333L5.35968 10.1705L5.59001 10.1109L5.64749 9.87997L5.25934 9.78333ZM2.81535 10.4167L2.71501 10.0295L2.67386 10.0401L2.63587 10.0592L2.81535 10.4167ZM2.81535 13.5833L2.63587 13.9408L2.6781 13.962L2.7241 13.9728L2.81535 13.5833ZM5.1805 14.1375L5.55108 13.9869L5.47321 13.7952L5.27175 13.748L5.1805 14.1375ZM5.18051 14.1375L5.55212 13.9895L5.55109 13.987L5.18051 14.1375ZM5.65353 15.2458L5.98873 15.4641L6.11358 15.2724L6.01159 15.0675L5.65353 15.2458ZM4.31328 17.3042L3.97807 17.0859L3.96549 17.1052L3.95521 17.1259L4.31328 17.3042ZM4.39212 17.7792L4.10869 18.0614L4.10869 18.0614L4.39212 17.7792ZM6.04772 19.4417L5.76429 19.7239L5.76429 19.7239L6.04772 19.4417ZM6.52075 19.5208L6.70023 19.8783L6.71301 19.8719L6.7253 19.8646L6.52075 19.5208ZM8.64938 18.2542L8.8558 17.9115L8.65065 17.7879L8.44483 17.9104L8.64938 18.2542ZM9.43723 18.6096L9.29977 18.9853L9.29977 18.9853L9.43723 18.6096ZM9.75311 18.7292L10.1405 18.6296L10.0901 18.4335L9.9022 18.358L9.75311 18.7292ZM10.3838 21.1833L9.99641 21.2829L10.0069 21.3238L10.0258 21.3616L10.3838 21.1833ZM11.0934 20.7083L10.7044 20.8018L10.7781 21.1083H11.0934V20.7083ZM12.8278 20.7083V21.1083H13.1455L13.2174 20.7989L12.8278 20.7083ZM10.5415 18.4125L10.9304 18.319L10.9198 18.2749L10.8996 18.2342L10.5415 18.4125ZM10.2261 18.0958L10.1163 18.4804L10.1701 18.4958H10.2261V18.0958ZM10.2261 18.0958L10.0992 18.4751L10.1076 18.478L10.1162 18.4804L10.2261 18.0958ZM8.88589 17.5417L8.60246 17.8239L8.63724 17.8588L8.67946 17.8843L8.88589 17.5417ZM8.4917 17.5417L8.31222 17.1842L8.29645 17.1921L8.28143 17.2014L8.4917 17.5417ZM6.44191 18.8083L6.15848 19.0906L6.38232 19.3154L6.65218 19.1486L6.44191 18.8083ZM5.1805 17.5417L4.84318 17.3267L4.67097 17.5969L4.89707 17.8239L5.1805 17.5417ZM6.44191 15.5625L6.77922 15.7775L6.84191 15.6791V15.5625H6.44191ZM6.44191 15.4833L6.08384 15.305L6.04191 15.3893V15.4833H6.44191ZM6.44191 15.0875L6.79998 14.9092L6.79314 14.8955L6.78528 14.8823L6.44191 15.0875ZM5.89004 13.7417L6.26967 13.6156L6.26074 13.5887L6.24811 13.5634L5.89004 13.7417ZM5.57469 13.425L5.48344 13.8145L5.52845 13.825H5.57469V13.425ZM3.20954 12.8708H2.80954V13.1879L3.11829 13.2603L3.20954 12.8708ZM3.20954 11.1292L3.11829 10.7397L2.80954 10.8121V11.1292H3.20954ZM5.57469 10.575L5.66594 10.9645L5.71194 10.9537L5.75417 10.9325L5.57469 10.575ZM5.89004 10.2583L5.50604 10.1463L5.49004 10.2012V10.2583H5.89004ZM5.89004 10.2583L5.51041 10.1323L5.5081 10.1393L5.50604 10.1463L5.89004 10.2583ZM6.44191 8.9125L6.15848 8.63025L6.12377 8.6651L6.09854 8.70733L6.44191 8.9125ZM6.44191 8.59583H6.04191V8.76103L6.15848 8.87809L6.44191 8.59583ZM6.44191 8.51667H6.84191V8.40385L6.78296 8.30766L6.44191 8.51667ZM5.1805 6.45833L4.89707 6.17608L4.67503 6.39904L4.83945 6.66734L5.1805 6.45833ZM6.44191 5.19167L6.65218 4.85139L6.38232 4.68464L6.15848 4.90941L6.44191 5.19167ZM8.4917 6.45833L8.28143 6.79861L8.29645 6.80789L8.31222 6.81581L8.4917 6.45833ZM8.88589 6.45833L8.67946 6.11571L8.63724 6.14115L8.60246 6.17608L8.88589 6.45833ZM10.2261 5.90417L10.3531 6.28348L10.3801 6.27443L10.4056 6.26164L10.2261 5.90417ZM10.5415 5.5875L10.1519 5.49697L10.1415 5.54164V5.5875H10.5415ZM11.0934 3.2125V2.8125H10.7757L10.7037 3.12197L11.0934 3.2125ZM12.8278 3.2125L13.2174 3.12197L13.1455 2.8125H12.8278V3.2125ZM13.3797 5.5875L12.99 5.67803L13.0007 5.72376L13.0216 5.76579L13.3797 5.5875ZM13.695 5.90417L13.822 5.52485L13.7602 5.50417H13.695V5.90417ZM15.0353 6.45833L15.3187 6.17608L15.2839 6.14115L15.2417 6.11571L15.0353 6.45833ZM15.4295 6.45833L15.6089 6.81581L15.6247 6.80789L15.6397 6.79861L15.4295 6.45833ZM17.4793 5.19167L17.7627 4.90941L17.5388 4.68464L17.269 4.85139L17.4793 5.19167ZM18.7407 6.45833L19.078 6.67332L19.2502 6.40312L19.0241 6.17608L18.7407 6.45833ZM17.4793 8.4375L17.1419 8.22251L17.0793 8.32087V8.4375H17.4793ZM17.4793 8.51667L17.8373 8.69496L17.8793 8.61074V8.51667H17.4793ZM17.4793 8.9125L17.1212 9.09079L17.128 9.10451L17.1359 9.11767L17.4793 8.9125ZM18.0311 10.2583L17.6515 10.3844L17.6604 10.4113L17.6731 10.4366L18.0311 10.2583ZM18.3465 10.575L18.4377 10.1855L18.3927 10.175H18.3465V10.575ZM20.7116 11.1292H21.1116V10.8121L20.8029 10.7397L20.7116 11.1292ZM20.7116 12.8708L20.8029 13.2603L21.1116 13.1879V12.8708H20.7116ZM18.3465 13.425L18.2552 13.0355L18.2092 13.0463L18.167 13.0675L18.3465 13.425ZM18.0311 13.7417L18.4108 13.8677L18.4311 13.8063V13.7417H18.0311ZM17.4793 15.0875L17.1359 14.8823L17.128 14.8955L17.1212 14.9092L17.4793 15.0875ZM17.4793 15.4833L17.1212 15.6616L17.1323 15.6839L17.146 15.7046L17.4793 15.4833ZM18.7407 17.3833L19.0241 17.6656L19.2545 17.4342L19.0739 17.1621L18.7407 17.3833ZM17.4793 18.65L17.2787 18.9961L17.5453 19.1505L17.7627 18.9323L17.4793 18.65ZM15.4295 17.4625L15.146 17.7448L15.1833 17.7822L15.2289 17.8086L15.4295 17.4625ZM15.0353 17.4625L14.8558 17.105L14.842 17.1119L14.8288 17.1199L15.0353 17.4625ZM13.695 18.0167L13.5681 17.6374L13.541 17.6464L13.5155 17.6592L13.695 18.0167ZM13.3797 18.3333L13.7693 18.4239L13.7797 18.3792V18.3333H13.3797ZM13.1432 21.1H10.778V21.9H13.1432V21.1ZM13.1793 21.005C13.1711 21.0214 13.16 21.0394 13.1467 21.0569C13.1334 21.0744 13.1201 21.0882 13.1089 21.0979C13.0973 21.1079 13.092 21.1098 13.095 21.1085C13.0983 21.107 13.1152 21.1 13.1432 21.1V21.9C13.354 21.9 13.5224 21.7975 13.6308 21.7042C13.7437 21.607 13.8345 21.484 13.8954 21.3616L13.1793 21.005ZM13.6996 18.7178L13.1477 21.0928L13.927 21.2739L14.4788 18.8989L13.6996 18.7178ZM15.0135 17.9759C14.7161 18.1252 14.339 18.2769 13.9401 18.4372L14.2383 19.1795C14.6278 19.0231 15.0391 18.8582 15.3724 18.6908L15.0135 17.9759ZM17.5441 19.4259L15.4155 18.0009L14.9704 18.6657L17.0991 20.0907L17.5441 19.4259ZM17.5112 19.3969C17.4952 19.413 17.4871 19.4171 17.4881 19.4165C17.4886 19.4163 17.4909 19.4151 17.4947 19.4139C17.4987 19.4126 17.5033 19.4116 17.5083 19.4109C17.5132 19.4103 17.5176 19.4102 17.5209 19.4104C17.5242 19.4106 17.5258 19.411 17.5257 19.4109C17.5249 19.4108 17.5171 19.4089 17.5011 19.4009L17.1421 20.1158C17.2671 20.1786 17.4269 20.2274 17.6079 20.2047C17.7932 20.1814 17.9504 20.0896 18.078 19.9614L17.5112 19.3969ZM19.1668 17.7344L17.5112 19.3969L18.078 19.9614L19.7336 18.2989L19.1668 17.7344ZM19.171 17.72C19.1791 17.7362 19.1811 17.7444 19.1813 17.7456C19.1814 17.7459 19.1801 17.7398 19.1814 17.7298C19.182 17.725 19.183 17.7207 19.1841 17.717C19.1853 17.7133 19.1864 17.7112 19.1866 17.7109C19.1869 17.7101 19.1828 17.7183 19.1668 17.7344L19.7336 18.2989C19.8613 18.1707 19.9522 18.0134 19.9753 17.8286C19.9977 17.6481 19.9495 17.4886 19.8871 17.3634L19.171 17.72ZM17.9231 15.6075L19.1846 17.745L19.8735 17.3384L18.6121 15.2009L17.9231 15.6075ZM18.2456 14.4766C18.1505 14.7387 18.073 14.9501 17.9243 15.199L18.611 15.6093C18.803 15.2881 18.9025 15.0116 18.9976 14.7495L18.2456 14.4766ZM18.3691 14.1478C18.3223 14.2652 18.2824 14.3754 18.2456 14.4766L18.9976 14.7495C19.0348 14.647 19.0708 14.548 19.1123 14.4439L18.3691 14.1478ZM21.0843 13.2753L18.6403 13.9086L18.841 14.683L21.285 14.0497L21.0843 13.2753ZM21.1 13.2667C21.1 13.2394 21.1068 13.2231 21.1081 13.2201C21.1093 13.2175 21.1072 13.2229 21.0972 13.2346C21.0876 13.2459 21.0738 13.2592 21.0564 13.2726C21.0391 13.2859 21.0213 13.2969 21.0052 13.305L21.3641 14.02C21.4863 13.9586 21.6089 13.8673 21.7057 13.754C21.7986 13.6451 21.9 13.4767 21.9 13.2667H21.1ZM21.1 10.8917V13.2667H21.9V10.8917H21.1ZM21.0052 10.8533C21.0213 10.8614 21.0391 10.8725 21.0564 10.8858C21.0738 10.8991 21.0876 10.9124 21.0972 10.9238C21.1072 10.9354 21.1093 10.9409 21.1081 10.9382C21.1068 10.9352 21.1 10.9189 21.1 10.8917H21.9C21.9 10.6816 21.7986 10.5133 21.7057 10.4044C21.6089 10.291 21.4863 10.1997 21.3641 10.1384L21.0052 10.8533ZM18.6403 10.2497L21.0843 10.883L21.285 10.1086L18.841 9.47529L18.6403 10.2497ZM18.3708 10.0148L18.3708 10.0149L19.1105 9.71009L19.1105 9.71001L18.3708 10.0148ZM17.9096 8.93246C18.0583 9.23116 18.2095 9.60996 18.369 10.0104L19.1122 9.7144C18.9564 9.32327 18.7923 8.91046 18.6257 8.57588L17.9096 8.93246ZM19.2727 6.47757L17.9324 8.5359L18.6028 8.97243L19.9431 6.9141L19.2727 6.47757ZM19.2456 6.50309C19.2616 6.51916 19.2658 6.52736 19.2654 6.52664C19.2652 6.52626 19.2642 6.52418 19.263 6.52052C19.2618 6.51682 19.2608 6.51246 19.2602 6.50774C19.259 6.49771 19.2602 6.49161 19.2602 6.49194C19.2599 6.49309 19.2579 6.50132 19.2498 6.51754L19.966 6.87412C20.0283 6.74888 20.0766 6.58937 20.0541 6.40892C20.0311 6.22412 19.9402 6.0668 19.8125 5.93858L19.2456 6.50309ZM17.59 4.84059L19.2456 6.50309L19.8125 5.93858L18.1569 4.27608L17.59 4.84059ZM17.5799 4.83664C17.5959 4.82861 17.6038 4.82671 17.6045 4.82656C17.6047 4.82652 17.603 4.8269 17.5997 4.82708C17.5964 4.82726 17.5921 4.8272 17.5871 4.82657C17.5821 4.82595 17.5775 4.82488 17.5736 4.82362C17.5697 4.82237 17.5674 4.82123 17.5669 4.82096C17.5659 4.82043 17.574 4.8245 17.59 4.84059L18.1569 4.27608C18.0293 4.14794 17.8721 4.05606 17.6867 4.0328C17.5057 4.01008 17.346 4.05892 17.2209 4.12169L17.5799 4.83664ZM15.4763 6.08958L17.605 4.82291L17.1959 4.13542L15.0672 5.40209L15.4763 6.08958ZM14.3465 5.766C14.6074 5.86151 14.8178 5.93927 15.0654 6.08845L15.4782 5.40321C15.1581 5.21032 14.8824 5.11025 14.6214 5.01473L14.3465 5.766ZM14.019 5.64201C14.1359 5.68898 14.2457 5.72912 14.3465 5.766L14.6214 5.01473C14.5193 4.97738 14.4208 4.94131 14.3171 4.89966L14.019 5.64201ZM13.1499 2.91623L13.7806 5.3704L14.5555 5.17127L13.9248 2.7171L13.1499 2.91623ZM13.1432 2.9C13.1152 2.9 13.0983 2.893 13.095 2.8915C13.092 2.89016 13.0973 2.89214 13.1089 2.90213C13.1201 2.91179 13.1334 2.92562 13.1467 2.94313C13.16 2.96056 13.1711 2.97862 13.1793 2.99496L13.8954 2.63838C13.8345 2.516 13.7437 2.39302 13.6308 2.29579C13.5224 2.20253 13.354 2.1 13.1432 2.1V2.9ZM10.778 2.9H13.1432V2.1H10.778V2.9ZM10.7419 2.99496C10.75 2.97862 10.7611 2.96056 10.7744 2.94313C10.7878 2.92562 10.8011 2.91179 10.8123 2.90212C10.8239 2.89214 10.8291 2.89016 10.8262 2.8915C10.8229 2.893 10.806 2.9 10.778 2.9V2.1C10.5672 2.1 10.3988 2.20253 10.2904 2.29579C10.1774 2.39303 10.0867 2.516 10.0258 2.63838L10.7419 2.99496ZM10.2216 5.2822L10.7734 2.9072L9.9942 2.72613L9.44233 5.10113L10.2216 5.2822ZM8.9077 6.02414C9.20504 5.87485 9.58216 5.72306 9.98104 5.56284L9.68286 4.82049C9.29336 4.97694 8.8821 5.14182 8.54874 5.30919L8.9077 6.02414ZM6.39504 4.74374L8.52367 6.01041L8.93277 5.32292L6.80413 4.05626L6.39504 4.74374ZM6.48462 4.65746C6.46692 4.693 6.43966 4.71875 6.41447 4.73358C6.40302 4.74032 6.39358 4.74392 6.38758 4.74577C6.38162 4.74762 6.3782 4.74802 6.37786 4.74805C6.37748 4.7481 6.37907 4.7479 6.38256 4.74807C6.38602 4.74823 6.39047 4.7487 6.39559 4.74968C6.40663 4.75178 6.41549 4.75516 6.4201 4.75747L6.77907 4.04253C6.63645 3.97092 6.46054 3.93387 6.28915 3.95299C6.1158 3.97233 5.88803 4.0608 5.76849 4.30088L6.48462 4.65746ZM4.75438 6.42392L6.40999 4.76142L5.84313 4.19691L4.18752 5.85941L4.75438 6.42392ZM4.75018 6.43838C4.74774 6.43347 4.74425 6.42423 4.74209 6.41272C4.74108 6.40738 4.74058 6.40269 4.7404 6.39897C4.74023 6.39522 4.74043 6.39337 4.74042 6.39347C4.74041 6.39354 4.74007 6.39668 4.73832 6.40239C4.73655 6.40814 4.73308 6.41737 4.72647 6.42868C4.71195 6.45355 4.68638 6.48109 4.65044 6.49914L4.29147 5.78419C4.05164 5.90461 3.96434 6.13311 3.94527 6.30549C3.92635 6.47651 3.96299 6.65226 4.03405 6.79496L4.75018 6.43838ZM5.99801 8.55087L4.7366 6.41337L4.04763 6.81996L5.30904 8.95746L5.99801 8.55087ZM5.64749 9.87997C5.71732 9.59947 5.86264 9.2316 6.01159 8.93246L5.29546 8.57588C5.12906 8.91007 4.95903 9.33386 4.87118 9.6867L5.64749 9.87997ZM2.91569 10.8039L5.35968 10.1705L5.15899 9.39612L2.71501 10.0295L2.91569 10.8039ZM2.9 10.8125C2.9 10.8397 2.89324 10.8561 2.8919 10.8591C2.89072 10.8617 2.89282 10.8563 2.90278 10.8446C2.91244 10.8333 2.92621 10.82 2.94357 10.8066C2.96086 10.7933 2.97873 10.7822 2.99483 10.7741L2.63587 10.0592C2.51365 10.1206 2.39109 10.2118 2.29431 10.3252C2.20135 10.4341 2.1 10.6024 2.1 10.8125H2.9ZM2.9 13.1875V10.8125H2.1V13.1875H2.9ZM2.99483 13.2259C2.97873 13.2178 2.96086 13.2067 2.94357 13.1934C2.92621 13.18 2.91244 13.1667 2.90278 13.1554C2.89282 13.1437 2.89071 13.1383 2.8919 13.1409C2.89324 13.1439 2.9 13.1603 2.9 13.1875H2.1C2.1 13.3976 2.20135 13.5659 2.29431 13.6748C2.39109 13.7882 2.51365 13.8794 2.63587 13.9408L2.99483 13.2259ZM5.27175 13.748L2.9066 13.1939L2.7241 13.9728L5.08925 14.527L5.27175 13.748ZM5.55109 13.987L5.55108 13.9869L4.80991 14.2881L4.80992 14.2881L5.55109 13.987ZM6.01159 15.0675C5.86286 14.7688 5.71165 14.39 5.55211 13.9895L4.8089 14.2855C4.96471 14.6767 5.12885 15.0895 5.29546 15.4241L6.01159 15.0675ZM4.64848 17.5224L5.98873 15.4641L5.31832 15.0276L3.97807 17.0859L4.64848 17.5224ZM4.67555 17.4969C4.65954 17.4808 4.65538 17.4726 4.65576 17.4734C4.65596 17.4737 4.657 17.4758 4.65817 17.4795C4.65935 17.4832 4.66035 17.4875 4.66094 17.4923C4.66219 17.5023 4.66093 17.5084 4.661 17.5081C4.66125 17.5069 4.66327 17.4987 4.67135 17.4825L3.95521 17.1259C3.89285 17.2511 3.84461 17.4106 3.86707 17.5911C3.89007 17.7759 3.981 17.9332 4.10869 18.0614L4.67555 17.4969ZM6.33115 19.1594L4.67555 17.4969L4.10869 18.0614L5.76429 19.7239L6.33115 19.1594ZM6.34127 19.1634C6.32527 19.1714 6.31738 19.1733 6.31667 19.1734C6.31649 19.1735 6.31816 19.1731 6.32143 19.1729C6.32476 19.1727 6.32908 19.1728 6.33405 19.1734C6.33904 19.1741 6.34366 19.1751 6.34758 19.1764C6.35147 19.1776 6.35373 19.1788 6.35425 19.179C6.35524 19.1796 6.34717 19.1755 6.33115 19.1594L5.76429 19.7239C5.8919 19.8521 6.04908 19.9439 6.23442 19.9672C6.41541 19.9899 6.57519 19.9411 6.70023 19.8783L6.34127 19.1634ZM8.44483 17.9104L6.3162 19.1771L6.7253 19.8646L8.85393 18.5979L8.44483 17.9104ZM9.5747 18.234C9.31373 18.1385 9.1034 18.0607 8.8558 17.9115L8.44295 18.5968C8.7631 18.7897 9.03876 18.8897 9.29977 18.9853L9.5747 18.234ZM9.9022 18.358C9.78526 18.311 9.67549 18.2709 9.57469 18.234L9.29977 18.9853C9.40182 19.0226 9.50033 19.0587 9.60402 19.1003L9.9022 18.358ZM10.7712 21.0838L10.1405 18.6296L9.3657 18.8287L9.99641 21.2829L10.7712 21.0838ZM10.778 21.1C10.806 21.1 10.8229 21.107 10.8262 21.1085C10.8291 21.1098 10.8239 21.1079 10.8123 21.0979C10.8011 21.0882 10.7878 21.0744 10.7744 21.0569C10.7611 21.0394 10.75 21.0214 10.7419 21.005L10.0258 21.3616C10.0867 21.484 10.1774 21.607 10.2904 21.7042C10.3988 21.7975 10.5672 21.9 10.778 21.9V21.1ZM11.0934 21.1083H12.8278V20.3083H11.0934V21.1083ZM10.1526 18.506L10.7044 20.8018L11.4823 20.6148L10.9304 18.319L10.1526 18.506ZM10.2261 18.4958C10.1945 18.4958 10.1617 18.4868 10.1348 18.4717C10.1113 18.4585 10.1023 18.4463 10.1056 18.4502C10.1091 18.4545 10.118 18.4666 10.1328 18.4928C10.1477 18.5193 10.1628 18.5494 10.1834 18.5908L10.8996 18.2342C10.8658 18.1664 10.8059 18.0415 10.7212 17.9393C10.6256 17.8242 10.4637 17.6958 10.2261 17.6958V18.4958ZM10.1162 18.4804L10.1163 18.4804L10.336 17.7112L10.336 17.7112L10.1162 18.4804ZM8.67946 17.8843C9.11839 18.1487 9.63583 18.3201 10.0992 18.4751L10.3531 17.7165C9.87038 17.5549 9.44177 17.4096 9.09232 17.199L8.67946 17.8843ZM8.67118 17.8991C8.70501 17.8822 8.72265 17.8823 8.71836 17.8823C8.71659 17.8823 8.65998 17.8817 8.60246 17.8239L9.16932 17.2594C9.03297 17.1225 8.85809 17.0823 8.71836 17.0823C8.5761 17.0823 8.43606 17.122 8.31222 17.1842L8.67118 17.8991ZM6.65218 19.1486L8.70197 17.8819L8.28143 17.2014L6.23164 18.4681L6.65218 19.1486ZM4.89707 17.8239L6.15848 19.0906L6.72534 18.5261L5.46393 17.2594L4.89707 17.8239ZM6.10459 15.3475L4.84318 17.3267L5.51781 17.7567L6.77922 15.7775L6.10459 15.3475ZM6.04191 15.4833V15.5625H6.84191V15.4833H6.04191ZM6.08384 15.2658C6.09834 15.2949 6.10283 15.3079 6.10381 15.3111C6.10408 15.312 6.10104 15.3019 6.10104 15.2854C6.10104 15.2689 6.10408 15.2589 6.10381 15.2598C6.10283 15.263 6.09834 15.2759 6.08384 15.305L6.79998 15.6616C6.8485 15.5642 6.90104 15.4379 6.90104 15.2854C6.90104 15.133 6.8485 15.0067 6.79998 14.9092L6.08384 15.2658ZM5.51041 13.8677C5.66487 14.333 5.83537 14.8522 6.09854 15.2927L6.78528 14.8823C6.57542 14.5311 6.43056 14.1003 6.26967 13.6156L5.51041 13.8677ZM5.57469 13.825C5.54302 13.825 5.51027 13.816 5.48334 13.8009C5.45986 13.7877 5.45088 13.7755 5.45412 13.7794C5.45764 13.7836 5.46651 13.7957 5.48132 13.822C5.49628 13.8485 5.51137 13.8786 5.53197 13.92L6.24811 13.5634C6.21434 13.4956 6.15449 13.3706 6.06974 13.2685C5.97414 13.1533 5.81226 13.025 5.57469 13.025V13.825ZM3.11829 13.2603L5.48344 13.8145L5.66594 13.0355L3.30079 12.4814L3.11829 13.2603ZM2.80954 11.1292V12.8708H3.60954V11.1292H2.80954ZM5.48344 10.1855L3.11829 10.7397L3.30079 11.5186L5.66594 10.9645L5.48344 10.1855ZM5.49004 10.2583C5.49004 10.2275 5.49874 10.1953 5.51359 10.1687C5.52657 10.1454 5.53857 10.1364 5.53479 10.1396C5.53065 10.1431 5.51871 10.1519 5.49266 10.1667C5.46634 10.1817 5.43644 10.1968 5.39521 10.2175L5.75417 10.9325C5.82169 10.8986 5.94634 10.8384 6.0482 10.7531C6.16332 10.6568 6.29004 10.4949 6.29004 10.2583H5.49004ZM5.50604 10.1463L5.50604 10.1463L6.27404 10.3703L6.27404 10.3703L5.50604 10.1463ZM6.09854 8.70733C5.83537 9.14777 5.66487 9.667 5.51041 10.1323L6.26967 10.3843C6.43057 9.89966 6.57542 9.4689 6.78528 9.11767L6.09854 8.70733ZM6.15848 8.87809C6.10621 8.8256 6.10104 8.77372 6.10104 8.75417C6.10104 8.73462 6.10621 8.68274 6.15848 8.63025L6.72534 9.19475C6.85645 9.0631 6.90104 8.89247 6.90104 8.75417C6.90104 8.61587 6.85645 8.44524 6.72534 8.31358L6.15848 8.87809ZM6.04191 8.51667V8.59583H6.84191V8.51667H6.04191ZM4.83945 6.66734L6.10086 8.72567L6.78296 8.30766L5.52155 6.24933L4.83945 6.66734ZM6.15848 4.90941L4.89707 6.17608L5.46393 6.74059L6.72534 5.47392L6.15848 4.90941ZM8.70197 6.11806L6.65218 4.85139L6.23164 5.53194L8.28143 6.79861L8.70197 6.11806ZM8.60246 6.17608C8.65998 6.11833 8.71659 6.11771 8.71836 6.11771C8.72265 6.11771 8.70501 6.11785 8.67118 6.10086L8.31222 6.81581C8.43606 6.87799 8.5761 6.91771 8.71836 6.91771C8.8581 6.91771 9.03297 6.87751 9.16932 6.74059L8.60246 6.17608ZM10.0992 5.52485C9.63584 5.67994 9.11839 5.85126 8.67946 6.11571L9.09232 6.80095C9.44178 6.5904 9.87038 6.44506 10.3531 6.28348L10.0992 5.52485ZM10.1415 5.5875C10.1415 5.55664 10.1502 5.52446 10.165 5.49782C10.178 5.47456 10.19 5.4656 10.1862 5.46876C10.1821 5.47223 10.1702 5.48107 10.1441 5.4959C10.1178 5.51088 10.0879 5.526 10.0467 5.54669L10.4056 6.26164C10.4731 6.22774 10.5978 6.16752 10.6996 6.08228C10.8148 5.98595 10.9415 5.82403 10.9415 5.5875H10.1415ZM10.7037 3.12197L10.1519 5.49697L10.9311 5.67803L11.483 3.30303L10.7037 3.12197ZM12.8278 2.8125H11.0934V3.6125H12.8278V2.8125ZM13.7693 5.49697L13.2174 3.12197L12.4382 3.30303L12.99 5.67803L13.7693 5.49697ZM13.695 5.50417C13.7267 5.50417 13.7594 5.51315 13.7864 5.5283C13.8098 5.5415 13.8188 5.55366 13.8156 5.54976C13.8121 5.54553 13.8032 5.53345 13.7884 5.50719C13.7734 5.48069 13.7583 5.4506 13.7377 5.40921L13.0216 5.76579C13.0554 5.83361 13.1152 5.95854 13.2 6.06065C13.2956 6.17585 13.4574 6.30417 13.695 6.30417V5.50417ZM15.2417 6.11571C14.8028 5.85126 14.2853 5.67994 13.822 5.52485L13.5681 6.28348C14.0508 6.44506 14.4794 6.5904 14.8288 6.80095L15.2417 6.11571ZM15.25 6.10086C15.2161 6.11785 15.1985 6.11771 15.2028 6.11771C15.2046 6.11771 15.2612 6.11833 15.3187 6.17608L14.7518 6.74059C14.8882 6.87751 15.0631 6.91771 15.2028 6.91771C15.3451 6.91771 15.4851 6.87799 15.6089 6.81581L15.25 6.10086ZM17.269 4.85139L15.2192 6.11806L15.6397 6.79861L17.6895 5.53194L17.269 4.85139ZM19.0241 6.17608L17.7627 4.90941L17.1958 5.47392L18.4572 6.74059L19.0241 6.17608ZM17.8166 8.65249L19.078 6.67332L18.4033 6.24335L17.1419 8.22251L17.8166 8.65249ZM17.8793 8.51667V8.4375H17.0793V8.51667H17.8793ZM17.8373 8.73421C17.8228 8.70509 17.8183 8.69214 17.8174 8.68893C17.8171 8.68802 17.8201 8.69809 17.8201 8.71458C17.8201 8.73108 17.8171 8.74114 17.8174 8.74023C17.8183 8.73703 17.8228 8.72408 17.8373 8.69496L17.1212 8.33838C17.0727 8.43583 17.0201 8.56214 17.0201 8.71458C17.0201 8.86703 17.0727 8.99334 17.1212 9.09079L17.8373 8.73421ZM18.4108 10.1323C18.2563 9.667 18.0858 9.14777 17.8226 8.70733L17.1359 9.11767C17.3457 9.4689 17.4906 9.89966 17.6515 10.3844L18.4108 10.1323ZM18.3465 10.175C18.3781 10.175 18.4109 10.184 18.4378 10.1991C18.4613 10.2123 18.4703 10.2245 18.467 10.2206C18.4635 10.2164 18.4547 10.2043 18.4398 10.178C18.4249 10.1515 18.4098 10.1214 18.3892 10.08L17.6731 10.4366C17.7068 10.5044 17.7667 10.6294 17.8514 10.7315C17.947 10.8467 18.1089 10.975 18.3465 10.975V10.175ZM20.8029 10.7397L18.4377 10.1855L18.2552 10.9645L20.6204 11.5186L20.8029 10.7397ZM21.1116 12.8708V11.1292H20.3116V12.8708H21.1116ZM18.4377 13.8145L20.8029 13.2603L20.6204 12.4814L18.2552 13.0355L18.4377 13.8145ZM18.4311 13.7417C18.4311 13.7725 18.4224 13.8047 18.4076 13.8313C18.3946 13.8546 18.3826 13.8636 18.3864 13.8604C18.3905 13.8569 18.4024 13.8481 18.4285 13.8333C18.4548 13.8183 18.4847 13.8032 18.526 13.7825L18.167 13.0675C18.0995 13.1014 17.9748 13.1616 17.873 13.2469C17.7578 13.3432 17.6311 13.5051 17.6311 13.7417H18.4311ZM17.8226 15.2927C18.0858 14.8522 18.2563 14.333 18.4108 13.8677L17.6515 13.6156C17.4906 14.1003 17.3457 14.5311 17.1359 14.8823L17.8226 15.2927ZM17.8373 15.305C17.8228 15.2759 17.8183 15.263 17.8174 15.2598C17.8171 15.2589 17.8201 15.2689 17.8201 15.2854C17.8201 15.3019 17.8171 15.312 17.8174 15.3111C17.8183 15.3079 17.8228 15.2949 17.8373 15.2658L17.1212 14.9092C17.0727 15.0067 17.0201 15.133 17.0201 15.2854C17.0201 15.4379 17.0727 15.5642 17.1212 15.6616L17.8373 15.305ZM19.0739 17.1621L17.8125 15.2621L17.146 15.7046L18.4074 17.6046L19.0739 17.1621ZM17.7627 18.9323L19.0241 17.6656L18.4572 17.1011L17.1958 18.3677L17.7627 18.9323ZM15.2289 17.8086L17.2787 18.9961L17.6798 18.3039L15.63 17.1164L15.2289 17.8086ZM15.2148 17.82C15.2486 17.803 15.2662 17.8031 15.2619 17.8031C15.2602 17.8031 15.2035 17.8025 15.146 17.7448L15.7129 17.1802C15.5765 17.0433 15.4017 17.0031 15.2619 17.0031C15.1197 17.0031 14.9796 17.0428 14.8558 17.105L15.2148 17.82ZM13.822 18.396C14.2853 18.2409 14.8028 18.0696 15.2417 17.8051L14.8288 17.1199C14.4794 17.3304 14.0508 17.4758 13.5681 17.6374L13.822 18.396ZM13.7797 18.3333C13.7797 18.3642 13.771 18.3964 13.7561 18.423C13.7431 18.4463 13.7311 18.4552 13.7349 18.4521C13.7391 18.4486 13.751 18.4398 13.7771 18.4249C13.8034 18.41 13.8333 18.3948 13.8745 18.3741L13.5155 17.6592C13.448 17.6931 13.3234 17.7533 13.2215 17.8385C13.1064 17.9349 12.9797 18.0968 12.9797 18.3333H13.7797ZM13.2174 20.7989L13.7693 18.4239L12.99 18.2428L12.4382 20.6178L13.2174 20.7989ZM11.9987 14.6C10.5396 14.6 9.39867 13.4591 9.39867 12H8.59867C8.59867 13.9009 10.0978 15.4 11.9987 15.4V14.6ZM14.5987 12C14.5987 13.4591 13.4578 14.6 11.9987 14.6V15.4C13.8996 15.4 15.3987 13.9009 15.3987 12H14.5987ZM11.9987 9.39999C13.4578 9.39999 14.5987 10.5409 14.5987 12H15.3987C15.3987 10.0991 13.8996 8.59999 11.9987 8.59999V9.39999ZM9.39867 12C9.39867 10.5409 10.5396 9.39999 11.9987 9.39999V8.59999C10.0978 8.59999 8.59867 10.0991 8.59867 12H9.39867ZM11.9987 9.19999C10.4578 9.19999 9.19867 10.4591 9.19867 12H9.99867C9.99867 10.9009 10.8996 9.99999 11.9987 9.99999V9.19999ZM14.7987 12C14.7987 10.4591 13.5396 9.19999 11.9987 9.19999V9.99999C13.0978 9.99999 13.9987 10.9009 13.9987 12H14.7987ZM11.9987 14.8C13.5396 14.8 14.7987 13.5409 14.7987 12H13.9987C13.9987 13.0991 13.0978 14 11.9987 14V14.8ZM9.19867 12C9.19867 13.5409 10.4578 14.8 11.9987 14.8V14C10.8996 14 9.99867 13.0991 9.99867 12H9.19867Z" fill="black" mask="url(#path-1-outside-1_70_172)"/>
</svg>
