<svg width="24" height="24" viewBox="0 0 24 24" fill="none" xmlns="http://www.w3.org/2000/svg">
<path d="M13.3313 6.93621L15.0532 8.65725L13.721 9.98946L9.72724 5.99473L13.721 2L15.0532 3.3322L13.3313 5.05324H15.7659C17.0144 5.05324 18.2118 5.5492 19.0946 6.43202C19.9774 7.31483 20.4734 8.51219 20.4734 9.76067V13.5266H18.5904V9.76067C18.5904 9.01158 18.2928 8.29317 17.7631 7.76348C17.2334 7.23379 16.515 6.93621 15.7659 6.93621H13.3313ZM14.8245 11.6436V21.0585C14.8245 21.3082 14.7253 21.5477 14.5487 21.7242C14.3721 21.9008 14.1327 22 13.883 22H4.4681C4.2184 22 3.97893 21.9008 3.80237 21.7242C3.6258 21.5477 3.52661 21.3082 3.52661 21.0585V11.6436C3.52661 11.3939 3.6258 11.1545 3.80237 10.9779C3.97893 10.8014 4.2184 10.7022 4.4681 10.7022H13.883C14.1327 10.7022 14.3721 10.8014 14.5487 10.9779C14.7253 11.1545 14.8245 11.3939 14.8245 11.6436ZM12.9415 12.5851H5.40958V20.117H12.9415V12.5851Z" fill="black"/>
</svg>
