<svg width="24" height="24" viewBox="0 0 24 24" fill="none" xmlns="http://www.w3.org/2000/svg">
<path d="M17.5454 18.8794C15.8873 19.9311 13.9636 20.488 12 20.4849C6.9166 20.4849 2.68732 16.8269 1.80017 11.9999C2.20559 9.80395 3.31014 7.7979 4.94903 6.28107L1.9991 3.33396L3.33312 1.99994L21.9991 20.6669L20.6651 21.9999L17.5445 18.8794H17.5454ZM6.28212 7.61604C5.00089 8.78092 4.10838 10.3112 3.72531 11.9999C4.01974 13.2882 4.61083 14.4899 5.45154 15.5095C6.29224 16.5291 7.35935 17.3383 8.56792 17.8728C9.77649 18.4072 11.0931 18.6522 12.4131 18.5882C13.733 18.5241 15.0197 18.1528 16.1709 17.5039L14.2589 15.5919C13.445 16.1046 12.481 16.3255 11.5251 16.2183C10.5692 16.1112 9.67803 15.6823 8.99784 15.0021C8.31766 14.322 7.88882 13.4308 7.78166 12.4749C7.6745 11.5189 7.89538 10.555 8.40807 9.74105L6.28212 7.61604ZM12.8617 14.1947L9.80526 11.1382C9.63751 11.5653 9.59803 12.032 9.69166 12.4811C9.7853 12.9302 10.008 13.3422 10.3324 13.6667C10.6568 13.9911 11.0688 14.2137 11.518 14.3074C11.9671 14.401 12.4338 14.3615 12.8608 14.1938L12.8617 14.1947ZM20.303 16.3292L18.9539 14.981C19.5842 14.0828 20.0328 13.0702 20.2748 11.9999C20.0186 10.8778 19.5368 9.81944 18.8589 8.88925C18.1809 7.95906 17.3209 7.17645 16.331 6.58899C15.3412 6.00152 14.2422 5.62148 13.1009 5.47195C11.9597 5.32242 10.7999 5.40654 9.69213 5.71918L8.20443 4.23148C9.38007 3.76953 10.6613 3.51498 12 3.51498C17.0835 3.51498 21.3128 7.17294 22.1999 11.9999C21.911 13.5703 21.2617 15.0522 20.303 16.3292V16.3292ZM11.7389 7.765C12.339 7.72791 12.9401 7.8188 13.5024 8.03163C14.0647 8.24446 14.5753 8.57438 15.0005 8.99951C15.4256 9.42465 15.7555 9.93529 15.9683 10.4976C16.1812 11.0599 16.2721 11.661 16.235 12.2611L11.7379 7.765H11.7389Z" fill="black"/>
</svg>
