<svg width="24" height="24" viewBox="0 0 24 24" fill="none" xmlns="http://www.w3.org/2000/svg">
<path fill-rule="evenodd" clip-rule="evenodd" d="M4.26454 11.9954C4.45249 12.1839 4.72335 12.3076 5.01982 12.3512C5.18592 12.3759 5.35534 12.3995 5.52476 12.421C5.56069 12.4258 5.59664 12.4306 5.63262 12.4354C7.62865 12.6995 9.69062 12.8239 11.8232 12.8338C11.9148 12.8343 12.0065 12.8345 12.0984 12.8345C12.0982 12.8345 12.0985 12.8345 12.0984 12.8345C12.0991 12.8345 12.1004 12.8345 12.1011 12.8345L12.0989 12.8355C12.0996 12.8355 12.1004 12.8355 12.1011 12.8355C12.1009 12.8355 12.1013 12.8355 12.1011 12.8355C12.1929 12.8355 12.285 12.8353 12.3765 12.8349C14.5104 12.825 16.57 12.7008 18.5656 12.4388C18.6021 12.434 18.6387 12.4291 18.6752 12.4242C18.7599 12.4119 18.8446 12.3998 18.9293 12.3877C19.0141 12.3756 19.0988 12.3635 19.1835 12.3512C19.4772 12.3072 19.7459 12.1844 19.9331 11.9976C20.0982 11.833 20.2 11.6188 20.2 11.3653C20.2 10.854 19.7947 10.4244 19.2743 10.3793V10.3761C19.2743 8.10454 18.1502 6.08736 16.4148 4.81861C16.1427 4.61972 15.8556 4.43922 15.5555 4.27901C15.4764 4.23681 15.3965 4.19602 15.3156 4.15667L14.6601 7.76097C14.6598 7.76266 14.6594 7.76435 14.6591 7.76604C14.6587 7.76799 14.6583 7.76994 14.6579 7.77188C14.6052 8.01286 14.364 8.17383 14.1142 8.13257C13.8595 8.08638 13.6879 7.84903 13.7311 7.60309L14.463 3.57887C14.4225 3.45503 14.3523 3.34366 14.2606 3.25246C14.1042 3.09688 13.8851 2.99999 13.6436 2.99999H10.5553C10.3152 2.99999 10.0985 3.09575 9.94245 3.24973C9.8495 3.34144 9.77803 3.45379 9.73587 3.57887L10.4678 7.60309C10.5121 7.85011 10.3394 8.08746 10.0847 8.13257C9.83377 8.17489 9.59253 8.0129 9.54097 7.77189C9.54079 7.77105 9.54061 7.77022 9.54044 7.76938C9.53986 7.76658 9.5393 7.76378 9.53877 7.76097L9.18443 5.80953L8.88656 4.15667C8.80469 4.19649 8.72371 4.23779 8.64366 4.28052C8.34424 4.44039 8.05789 4.62043 7.78655 4.81875C6.05065 6.08751 4.92902 8.10462 4.92902 10.3761V10.3793C4.40526 10.4255 3.99999 10.854 3.99999 11.3653C3.99999 11.6178 4.1008 11.8312 4.26454 11.9954ZM3.77064 9.55694C3.19009 9.9474 2.79999 10.6036 2.79999 11.3653C2.79999 12.4744 3.56228 13.1243 4.31501 13.4017C4.38821 15.3665 4.98199 17.1907 5.95637 18.6629C6.82903 19.9853 8.01956 21.04 9.4277 21.6458C10.258 22.0025 11.1568 22.2 12.0989 22.2C13.0412 22.2 13.9387 22.0026 14.7708 21.647L14.7745 21.6454C16.1787 21.0395 17.3689 19.985 18.2414 18.6628C19.2156 17.191 19.8093 15.3672 19.8827 13.4029C20.6354 13.1259 21.4 12.4754 21.4 11.3653C21.4 10.6069 21.0121 9.94951 20.4327 9.55794C20.1405 6.6996 18.3345 4.29161 15.8408 3.07771L15.4743 2.8993C15.1258 2.23284 14.4225 1.79999 13.6436 1.79999H10.5553C9.76702 1.79999 9.07146 2.24036 8.72475 2.90098L8.36175 3.07752C5.8653 4.2916 4.06264 6.69967 3.77064 9.55694ZM17.4763 13.4848C17.8795 13.4432 18.2822 13.3962 18.6841 13.3435C18.6806 13.4413 18.6756 13.5386 18.6692 13.6354C18.6484 13.9521 18.6124 14.2636 18.5622 14.5689C18.3512 15.8502 17.8888 17.0217 17.2401 18.0014C16.4805 19.1527 15.464 20.0409 14.2991 20.5435C13.6081 20.8389 12.8707 21 12.0989 21C11.3271 21 10.5896 20.8389 9.90197 20.5435C8.73375 20.0409 7.71724 19.1527 6.95762 18.0014C6.309 17.0217 5.84653 15.8502 5.63558 14.5689C5.58514 14.2625 5.54908 13.9498 5.52829 13.632C5.52203 13.5363 5.51715 13.4402 5.51369 13.3435C5.91559 13.3962 6.31825 13.4432 6.7215 13.4848C8.4851 13.6668 10.26 13.7465 12.033 13.7484C12.055 13.7484 12.0769 13.7484 12.0989 13.7484C12.0996 13.7484 12.1004 13.7484 12.1011 13.7484C12.2475 13.7484 12.3939 13.7479 12.5403 13.7468C12.5412 13.7468 12.5421 13.7468 12.543 13.7468C12.5572 13.7467 12.5715 13.7466 12.5857 13.7465C14.2185 13.7332 15.8522 13.6524 17.4763 13.4848Z" fill="black"/>
</svg>
