<svg width="24" height="24" viewBox="0 0 24 24" fill="none" xmlns="http://www.w3.org/2000/svg">
<path d="M16.4444 17.5556V16.4444H13.1111V13.1111H16.4444V15.3333H18.6667V17.5556H17.5556V19.7778H15.3333V22H13.1111V18.6667H15.3333V17.5556H16.4444ZM22 22H17.5556V19.7778H19.7778V17.5556H22V22ZM2 2H10.8889V10.8889H2V2ZM4.22222 4.22222V8.66667H8.66667V4.22222H4.22222ZM13.1111 2H22V10.8889H13.1111V2ZM15.3333 4.22222V8.66667H19.7778V4.22222H15.3333ZM2 13.1111H10.8889V22H2V13.1111ZM4.22222 15.3333V19.7778H8.66667V15.3333H4.22222ZM18.6667 13.1111H22V15.3333H18.6667V13.1111ZM5.33333 5.33333H7.55556V7.55556H5.33333V5.33333ZM5.33333 16.4444H7.55556V18.6667H5.33333V16.4444ZM16.4444 5.33333H18.6667V7.55556H16.4444V5.33333Z" fill="black"/>
</svg>
