<svg width="24" height="24" viewBox="0 0 24 24" fill="none" xmlns="http://www.w3.org/2000/svg">
<path d="M9.84314 7.83442L6.88279 10.2571H3.74292V13.7429H6.88279L9.84314 16.1656V7.83442ZM6.26057 15.4858H2.87146C2.64033 15.4858 2.41867 15.394 2.25524 15.2306C2.09181 15.0672 2 14.8455 2 14.6144V9.38562C2 9.15449 2.09181 8.93283 2.25524 8.7694C2.41867 8.60597 2.64033 8.51416 2.87146 8.51416H6.26057L10.8741 4.73899C10.9379 4.68666 11.0153 4.65354 11.0972 4.64348C11.1792 4.63342 11.2623 4.64684 11.3369 4.68217C11.4115 4.71751 11.4745 4.77331 11.5186 4.84307C11.5627 4.91284 11.5861 4.9937 11.5861 5.07625V18.9237C11.5861 19.0063 11.5627 19.0871 11.5186 19.1569C11.4745 19.2267 11.4115 19.2825 11.3369 19.3178C11.2623 19.3532 11.1792 19.3666 11.0972 19.3565C11.0153 19.3465 10.9379 19.3133 10.8741 19.261L6.26144 15.4858H6.26057ZM18.9185 12L22 15.0815L20.7678 16.3137L17.6863 13.2322L14.6048 16.3137L13.3725 15.0815L16.454 12L13.3725 8.91851L14.6048 7.68627L17.6863 10.7678L20.7678 7.68627L22 8.91851L18.9185 12Z" fill="black"/>
</svg>
