<svg width="24" height="24" viewBox="0 0 24 24" fill="none" xmlns="http://www.w3.org/2000/svg">
<path d="M17.9582 18.8336H4.76234C4.67833 18.8336 4.59599 18.8102 4.52453 18.766C4.45307 18.7219 4.39532 18.6587 4.35775 18.5835C4.32018 18.5084 4.30428 18.4243 4.31182 18.3406C4.31936 18.2569 4.35006 18.177 4.40046 18.1098L4.76234 17.6276V9.78667C4.76234 8.58344 5.05546 7.44895 5.57565 6.45108L2.40381 3.28014L3.68395 2L21.5959 19.9129L20.3158 21.1921L17.9582 18.8336ZM6.94083 7.81626C6.69622 8.44436 6.57104 9.11262 6.57172 9.78667V17.0242H16.1488L6.94083 7.81626ZM19.2374 15.0212L17.428 13.2118V9.78667C17.4282 8.83464 17.178 7.8993 16.7024 7.07452C16.2269 6.24974 15.5429 5.56452 14.7189 5.08764C13.8949 4.61075 12.96 4.35897 12.0079 4.35755C11.0559 4.35614 10.1202 4.60514 9.29484 5.07957L7.98304 3.76596C9.07295 3.03878 10.3398 2.62111 11.6485 2.5575C12.9572 2.49389 14.2586 2.78673 15.4139 3.40478C16.5692 4.02283 17.535 4.9429 18.2084 6.06684C18.8818 7.19079 19.2374 8.47645 19.2374 9.78667V15.0212ZM9.73814 19.7383H14.2616C14.2616 20.3381 14.0233 20.9134 13.5991 21.3376C13.175 21.7617 12.5997 22 11.9999 22C11.4 22 10.8247 21.7617 10.4006 21.3376C9.97643 20.9134 9.73814 20.3381 9.73814 19.7383V19.7383Z" fill="black"/>
</svg>
