<svg width="24" height="24" viewBox="0 0 24 24" fill="none" xmlns="http://www.w3.org/2000/svg">
<path d="M14 20L12 22L10 20H4.995C4.46589 20 3.95846 19.7898 3.58432 19.4157C3.21019 19.0415 3 18.5341 3 18.005V3.995C3 2.893 3.893 2 4.995 2H19.005C20.107 2 21 2.893 21 3.995V18.005C21 18.5341 20.7898 19.0415 20.4157 19.4157C20.0415 19.7898 19.5341 20 19.005 20H14ZM19 18V4H5V18H10.828L12 19.172L13.172 18H19ZM7.972 17.18C7.35698 16.9136 6.77036 16.586 6.221 16.202C6.85527 15.219 7.72596 14.4108 8.75339 13.8514C9.78082 13.292 10.9322 12.9993 12.102 13C14.502 13 16.619 14.207 17.88 16.047C17.3412 16.4456 16.7636 16.789 16.156 17.072C15.6929 16.43 15.0838 15.9073 14.3789 15.547C13.674 15.1868 12.8936 14.9993 12.102 15C10.387 15 8.872 15.864 7.972 17.18ZM12 12C11.5404 12 11.0852 11.9095 10.6606 11.7336C10.236 11.5577 9.85013 11.2999 9.52513 10.9749C9.20012 10.6499 8.94231 10.264 8.76642 9.83939C8.59053 9.41475 8.5 8.95963 8.5 8.5C8.5 8.04037 8.59053 7.58525 8.76642 7.16061C8.94231 6.73597 9.20012 6.35013 9.52513 6.02513C9.85013 5.70012 10.236 5.44231 10.6606 5.26642C11.0852 5.09053 11.5404 5 12 5C12.9283 5 13.8185 5.36875 14.4749 6.02513C15.1313 6.6815 15.5 7.57174 15.5 8.5C15.5 9.42826 15.1313 10.3185 14.4749 10.9749C13.8185 11.6313 12.9283 12 12 12ZM12 10C12.3978 10 12.7794 9.84196 13.0607 9.56066C13.342 9.27936 13.5 8.89782 13.5 8.5C13.5 8.10218 13.342 7.72064 13.0607 7.43934C12.7794 7.15804 12.3978 7 12 7C11.6022 7 11.2206 7.15804 10.9393 7.43934C10.658 7.72064 10.5 8.10218 10.5 8.5C10.5 8.89782 10.658 9.27936 10.9393 9.56066C11.2206 9.84196 11.6022 10 12 10Z" fill="black"/>
</svg>
