<svg width="24" height="24" viewBox="0 0 24 24" fill="none" xmlns="http://www.w3.org/2000/svg">
<path d="M9.71969 5.81683C8.15366 5.81683 6.65178 6.43893 5.54444 7.54628C4.43709 8.65362 3.81499 10.1555 3.81499 11.7215C3.81499 13.2875 4.43709 14.7894 5.54444 15.8968C6.65178 17.0041 8.15366 17.6262 9.71969 17.6262H16.0786C16.652 17.6257 17.2188 17.5045 17.7423 17.2706C18.2658 17.0367 18.7342 16.6953 19.1172 16.2685C19.5001 15.8418 19.789 15.3393 19.965 14.7936C20.1411 14.2479 20.2004 13.6713 20.1391 13.1012C20.0778 12.5311 19.8972 11.9803 19.6091 11.4846C19.3211 10.9888 18.9319 10.5592 18.467 10.2237C18.0021 9.8881 17.4718 9.6541 16.9105 9.53686C16.3493 9.41962 15.7696 9.42176 15.2092 9.54315C14.7726 8.44373 14.0159 7.50076 13.0371 6.83637C12.0584 6.17199 10.9026 5.8168 9.71969 5.81683ZM16.0786 19.4431H9.71969C8.37544 19.4427 7.05457 19.0915 5.88773 18.4241C4.72088 17.7566 3.74849 16.7962 3.06674 15.6376C2.38499 14.4791 2.01749 13.1626 2.00061 11.8185C1.98373 10.4744 2.31804 9.14912 2.97047 7.97383C3.62291 6.79854 4.57087 5.81393 5.72058 5.11741C6.87029 4.42088 8.18192 4.03657 9.52573 4.00248C10.8695 3.9684 12.199 4.28572 13.3825 4.92306C14.5661 5.5604 15.5627 6.49568 16.2739 7.63639C17.8252 7.68333 19.2956 8.33914 20.3671 9.46195C21.4385 10.5848 22.0249 12.0843 21.9992 13.636C21.9735 15.1878 21.3379 16.6671 20.2299 17.7539C19.1219 18.8406 17.6306 19.4474 16.0786 19.4431V19.4431Z" fill="black"/>
</svg>
