<svg width="24" height="24" viewBox="0 0 24 24" fill="none" xmlns="http://www.w3.org/2000/svg">
<path fill-rule="evenodd" clip-rule="evenodd" d="M20 12C20 16.4183 16.4183 20 12 20C7.58172 20 4 16.4183 4 12C4 7.58172 7.58172 4 12 4C16.4183 4 20 7.58172 20 12ZM22 12C22 17.5228 17.5228 22 12 22C6.47715 22 2 17.5228 2 12C2 6.47715 6.47715 2 12 2C17.5228 2 22 6.47715 22 12ZM12 13.5C12.8284 13.5 13.5 12.8284 13.5 12C13.5 11.1716 12.8284 10.5 12 10.5C11.1716 10.5 10.5 11.1716 10.5 12C10.5 12.8284 11.1716 13.5 12 13.5ZM18.4983 12C18.4983 12.8284 17.8267 13.5 16.9983 13.5C16.1699 13.5 15.4983 12.8284 15.4983 12C15.4983 11.1716 16.1699 10.5 16.9983 10.5C17.8267 10.5 18.4983 11.1716 18.4983 12ZM7.00195 13.5C7.83038 13.5 8.50195 12.8284 8.50195 12C8.50195 11.1716 7.83038 10.5 7.00195 10.5C6.17353 10.5 5.50195 11.1716 5.50195 12C5.50195 12.8284 6.17353 13.5 7.00195 13.5Z" fill="black"/>
</svg>
