<svg width="24" height="24" viewBox="0 0 24 24" fill="none" xmlns="http://www.w3.org/2000/svg">
<path d="M12.4545 7.65451L9.36634 10.1818H6.09089V13.8181H9.36634L12.4545 16.3454V7.65451ZM8.71725 15.6363H5.1818C4.94069 15.6363 4.70946 15.5405 4.53897 15.3701C4.36848 15.1996 4.27271 14.9683 4.27271 14.7272V9.27269C4.27271 9.03158 4.36848 8.80035 4.53897 8.62987C4.70946 8.45938 4.94069 8.3636 5.1818 8.3636H8.71725L13.53 4.42542C13.5966 4.37082 13.6773 4.33627 13.7628 4.32578C13.8482 4.31528 13.9349 4.32928 14.0127 4.36614C14.0906 4.40301 14.1563 4.46121 14.2023 4.53399C14.2484 4.60677 14.2728 4.69113 14.2727 4.77724V19.2227C14.2728 19.3088 14.2484 19.3932 14.2023 19.4659C14.1563 19.5387 14.0906 19.5969 14.0127 19.6338C13.9349 19.6706 13.8482 19.6846 13.7628 19.6741C13.6773 19.6637 13.5966 19.6291 13.53 19.5745L8.71725 15.6363ZM17.7845 16.1736L16.4918 14.8809C16.9331 14.5415 17.2905 14.1052 17.5363 13.6056C17.782 13.1061 17.9096 12.5567 17.9091 12C17.9091 10.7 17.2272 9.55905 16.2 8.91633L17.5082 7.60814C18.1968 8.11468 18.7564 8.77619 19.142 9.53916C19.5275 10.3021 19.728 11.1451 19.7272 12C19.7272 13.6745 18.9727 15.1727 17.7845 16.1736Z" fill="black"/>
</svg>
