<svg width="24" height="24" viewBox="0 0 24 24" fill="none" xmlns="http://www.w3.org/2000/svg">
<path fill-rule="evenodd" clip-rule="evenodd" d="M10.6996 20.4506C11.4691 21.4122 12 22 12 22C12 22 12.5309 21.4122 13.3004 20.4506C15.3247 17.9208 19 12.8041 19 9C19 5.13 15.87 2 12 2C8.13 2 5 5.13 5 9C5 12.8041 8.67525 17.9208 10.6996 20.4506ZM12 18.8716C12.5515 18.1694 13.198 17.3048 13.8421 16.3501C14.6793 15.1092 15.4879 13.7524 16.081 12.4284C16.686 11.0781 17 9.90783 17 9C17 6.23457 14.7654 4 12 4C9.23457 4 7 6.23457 7 9C7 9.90783 7.31404 11.0781 7.91896 12.4284C8.51213 13.7524 9.32069 15.1092 10.1579 16.3501C10.802 17.3048 11.4485 18.1694 12 18.8716ZM13 8H16V10H13V13H11V10H8V8H11V5H13V8Z" fill="black"/>
</svg>
