<svg width="24" height="24" viewBox="0 0 24 24" fill="none" xmlns="http://www.w3.org/2000/svg">
<path d="M12 12.8392L9.44598 15.3932C9.94048 16.2319 10.1121 17.2221 9.92875 18.1782C9.74537 19.1344 9.21957 19.9909 8.44989 20.5871C7.68022 21.1833 6.71951 21.4783 5.74787 21.4169C4.77622 21.3554 3.86034 20.9417 3.17191 20.2533C2.48348 19.5648 2.06977 18.649 2.00832 17.6773C1.94687 16.7057 2.2419 15.745 2.83811 14.9753C3.43432 14.2056 4.29078 13.6798 5.24694 13.4964C6.20311 13.3131 7.19332 13.4847 8.03198 13.9792L10.586 11.4252L4.56498 5.4052C4.37903 5.21945 4.23151 4.99887 4.13086 4.75608C4.03021 4.51328 3.97841 4.25303 3.97841 3.9902C3.97841 3.72736 4.03021 3.46711 4.13086 3.22431C4.23151 2.98152 4.37903 2.76094 4.56498 2.5752L12 10.0122L19.435 2.5772C19.8099 2.95225 20.0206 3.46087 20.0206 3.9912C20.0206 4.52152 19.8099 5.03014 19.435 5.4052L13.415 11.4252L15.968 13.9792C16.8066 13.4847 17.7969 13.3131 18.753 13.4964C19.7092 13.6798 20.5656 14.2056 21.1619 14.9753C21.7581 15.745 22.0531 16.7057 21.9916 17.6773C21.9302 18.649 21.5165 19.5648 20.828 20.2533C20.1396 20.9417 19.2237 21.3554 18.2521 21.4169C17.2804 21.4783 16.3197 21.1833 15.5501 20.5871C14.7804 19.9909 14.2546 19.1344 14.0712 18.1782C13.8878 17.2221 14.0595 16.2319 14.554 15.3932L12 12.8392ZM5.99998 19.4252C6.53041 19.4252 7.03912 19.2145 7.41419 18.8394C7.78927 18.4643 7.99998 17.9556 7.99998 17.4252C7.99998 16.8948 7.78927 16.3861 7.41419 16.011C7.03912 15.6359 6.53041 15.4252 5.99998 15.4252C5.46955 15.4252 4.96084 15.6359 4.58577 16.011C4.21069 16.3861 3.99998 16.8948 3.99998 17.4252C3.99998 17.9556 4.21069 18.4643 4.58577 18.8394C4.96084 19.2145 5.46955 19.4252 5.99998 19.4252V19.4252ZM18 19.4252C18.5304 19.4252 19.0391 19.2145 19.4142 18.8394C19.7893 18.4643 20 17.9556 20 17.4252C20 16.8948 19.7893 16.3861 19.4142 16.011C19.0391 15.6359 18.5304 15.4252 18 15.4252C17.4695 15.4252 16.9608 15.6359 16.5858 16.011C16.2107 16.3861 16 16.8948 16 17.4252C16 17.9556 16.2107 18.4643 16.5858 18.8394C16.9608 19.2145 17.4695 19.4252 18 19.4252V19.4252Z" fill="black"/>
</svg>
