<svg width="24" height="24" viewBox="0 0 24 24" fill="none" xmlns="http://www.w3.org/2000/svg">
<path d="M18.9682 5.22727L17.6773 6.51818C16.2682 5.4 14.4955 4.72727 12.5682 4.72727C10.9045 4.72727 9.35909 5.22727 8.06818 6.07273L9.39545 7.4C10.3227 6.86364 11.4136 6.54545 12.5682 6.54545C16.0864 6.54545 18.9318 9.39091 18.9318 12.9091C18.9318 14.0636 18.6136 15.1545 18.0773 16.0818L19.3955 17.4C20.25 16.1182 20.75 14.5727 20.75 12.9091C20.75 10.9818 20.0773 9.20909 18.9591 7.80909L20.25 6.51818L18.9682 5.22727V5.22727ZM15.2955 2H9.84091V3.81818H15.2955V2ZM11.6591 9.67273L13.4773 11.4909V8.36364H11.6591V9.67273ZM4.40455 4.72727L3.25 5.88182L5.75 8.39091C4.88636 9.68182 4.38636 11.2364 4.38636 12.9091C4.38636 17.4273 8.04091 21.0909 12.5682 21.0909C14.2409 21.0909 15.7955 20.5909 17.0955 19.7273L19.3682 22L20.5227 20.8455L13.5136 13.8364L4.40455 4.72727ZM12.5682 19.2727C9.05 19.2727 6.20455 16.4273 6.20455 12.9091C6.20455 11.7455 6.52273 10.6545 7.06818 9.70909L15.7591 18.4C14.8227 18.9545 13.7318 19.2727 12.5682 19.2727V19.2727Z" fill="black"/>
</svg>
