<svg width="24" height="24" viewBox="0 0 24 24" fill="none" xmlns="http://www.w3.org/2000/svg">
<path d="M16.55 17.0014V15.1822H17.0048C17.5297 15.1821 18.0464 15.0522 18.509 14.8042C18.9715 14.5561 19.3656 14.1975 19.656 13.7603C19.9465 13.3232 20.1244 12.821 20.1738 12.2984C20.2233 11.7759 20.1427 11.2492 19.9394 10.7653C19.7361 10.2814 19.4163 9.85528 19.0085 9.52486C18.6006 9.19445 18.1174 8.96999 17.6019 8.87148C17.0863 8.77296 16.5544 8.80344 16.0535 8.9602C15.5526 9.11697 15.0982 9.39515 14.7308 9.76999V9.72451C14.7304 8.72403 14.4551 7.74289 13.9348 6.88833C13.4145 6.03378 12.6693 5.33867 11.7807 4.87899C10.8921 4.41931 9.8942 4.21273 8.89612 4.28185C7.89803 4.35096 6.93814 4.6931 6.12135 5.27087C5.30457 5.84864 4.66232 6.63982 4.26479 7.55793C3.86726 8.47604 3.72975 9.48576 3.86729 10.4767C4.00483 11.4677 4.41213 12.4018 5.04467 13.177C5.67721 13.9521 6.51065 14.5385 7.45391 14.872V16.7721C6.2475 16.46 5.14148 15.8432 4.24181 14.981C3.34213 14.1187 2.67896 13.0399 2.31583 11.8479C1.95269 10.6558 1.90176 9.39047 2.16792 8.17308C2.43408 6.9557 3.0084 5.82706 3.83587 4.89531C4.66334 3.96356 5.71622 3.25991 6.89363 2.85179C8.07104 2.44367 9.33353 2.34475 10.5601 2.5645C11.7868 2.78426 12.9364 3.31533 13.8989 4.10683C14.8614 4.89834 15.6045 5.92375 16.057 7.08482C16.741 6.95394 17.4449 6.96732 18.1235 7.12413C18.8021 7.28093 19.4405 7.5777 19.9978 7.99544C20.5551 8.41317 21.019 8.94266 21.3599 9.55002C21.7007 10.1574 21.911 10.8292 21.9773 11.5225C22.0436 12.2159 21.9643 12.9154 21.7447 13.5763C21.525 14.2372 21.1698 14.845 20.7017 15.3608C20.2337 15.8765 19.6631 16.2888 19.0265 16.5713C18.3898 16.8538 17.7013 17.0003 17.0048 17.0014L16.55 17.0023V17.0014ZM9.27312 15.1822H11.0923V18.8206H9.27312V15.1822ZM12.9116 17.911H14.7308V21.5494H12.9116V17.911Z" fill="black"/>
</svg>
