<svg width="24" height="24" viewBox="0 0 24 24" fill="none" xmlns="http://www.w3.org/2000/svg">
<path d="M12 3.68127C16.9838 3.68127 21.1302 7.26756 22 12C21.1312 16.7324 16.9838 20.3187 12 20.3187C7.01618 20.3187 2.86977 16.7324 2 12C2.86884 7.26756 7.01618 3.68127 12 3.68127ZM12 18.4701C13.8851 18.4697 15.7142 17.8294 17.188 16.654C18.6617 15.4786 19.6929 13.8377 20.1126 12C19.6913 10.1637 18.6595 8.52461 17.1859 7.35077C15.7123 6.17693 13.884 5.53776 12 5.53776C10.116 5.53776 8.28773 6.17693 6.8141 7.35077C5.34048 8.52461 4.30869 10.1637 3.88742 12C4.30714 13.8377 5.33827 15.4786 6.81204 16.654C8.28581 17.8294 10.1149 18.4697 12 18.4701V18.4701ZM12 16.1593C10.8969 16.1593 9.83893 15.7211 9.0589 14.9411C8.27887 14.161 7.84065 13.1031 7.84065 12C7.84065 10.8968 8.27887 9.8389 9.0589 9.05887C9.83893 8.27884 10.8969 7.84062 12 7.84062C13.1031 7.84062 14.1611 8.27884 14.9411 9.05887C15.7211 9.8389 16.1593 10.8968 16.1593 12C16.1593 13.1031 15.7211 14.161 14.9411 14.9411C14.1611 15.7211 13.1031 16.1593 12 16.1593ZM12 14.3107C12.6128 14.3107 13.2006 14.0673 13.6339 13.6339C14.0673 13.2006 14.3107 12.6128 14.3107 12C14.3107 11.3871 14.0673 10.7994 13.6339 10.366C13.2006 9.93268 12.6128 9.68922 12 9.68922C11.3872 9.68922 10.7994 9.93268 10.3661 10.366C9.9327 10.7994 9.68925 11.3871 9.68925 12C9.68925 12.6128 9.9327 13.2006 10.3661 13.6339C10.7994 14.0673 11.3872 14.3107 12 14.3107Z" fill="black"/>
</svg>
