<svg width="24" height="24" viewBox="0 0 24 24" fill="none" xmlns="http://www.w3.org/2000/svg">
<path d="M10 6.00041C10 6.73241 9.80301 7.41941 9.46001 8.01041L12 10.5854L18.728 3.85741C19.1031 3.48246 19.6117 3.27183 20.142 3.27183C20.6723 3.27183 21.181 3.48246 21.556 3.85741L9.44601 15.9674C9.9405 16.8061 10.1121 17.7963 9.92877 18.7524C9.7454 19.7086 9.21959 20.5651 8.44992 21.1613C7.68024 21.7575 6.71954 22.0525 5.74789 21.9911C4.77625 21.9296 3.86037 21.5159 3.17194 20.8275C2.48351 20.139 2.06979 19.2232 2.00834 18.2515C1.94689 17.2799 2.24192 16.3192 2.83814 15.5495C3.43435 14.7798 4.29081 14.254 5.24697 14.0706C6.20313 13.8873 7.19335 14.0589 8.03201 14.5534L10.586 12.0004L8.03201 9.44641C7.2722 9.89451 6.38559 10.0789 5.51013 9.97087C4.63467 9.86284 3.81947 9.46845 3.1914 8.84909C2.56332 8.22972 2.15759 7.42011 2.03734 6.54624C1.9171 5.67238 2.08909 4.78328 2.52654 4.01729C2.96399 3.25131 3.64237 2.6514 4.45612 2.31094C5.26986 1.97047 6.17333 1.90854 7.02592 2.13478C7.87851 2.36102 8.63241 2.86274 9.17029 3.56186C9.70818 4.26099 9.99988 5.11831 10 6.00041ZM8.00001 6.00041C8.00001 5.46997 7.78929 4.96127 7.41422 4.58619C7.03915 4.21112 6.53044 4.00041 6.00001 4.00041C5.46957 4.00041 4.96086 4.21112 4.58579 4.58619C4.21072 4.96127 4.00001 5.46997 4.00001 6.00041C4.00001 6.53084 4.21072 7.03955 4.58579 7.41462C4.96086 7.78969 5.46957 8.00041 6.00001 8.00041C6.53044 8.00041 7.03915 7.78969 7.41422 7.41462C7.78929 7.03955 8.00001 6.53084 8.00001 6.00041ZM21.556 20.1424C21.181 20.5173 20.6723 20.728 20.142 20.728C19.6117 20.728 19.1031 20.5173 18.728 20.1424L13.411 14.8264L14.826 13.4114L21.556 20.1424ZM16 11.0004H18V13.0004H16V11.0004ZM20 11.0004H22V13.0004H20V11.0004ZM6.00001 11.0004H8.00001V13.0004H6.00001V11.0004ZM2.00001 11.0004H4.00001V13.0004H2.00001V11.0004ZM6.00001 20.0004C6.53044 20.0004 7.03915 19.7897 7.41422 19.4146C7.78929 19.0395 8.00001 18.5308 8.00001 18.0004C8.00001 17.47 7.78929 16.9613 7.41422 16.5862C7.03915 16.2111 6.53044 16.0004 6.00001 16.0004C5.46957 16.0004 4.96086 16.2111 4.58579 16.5862C4.21072 16.9613 4.00001 17.47 4.00001 18.0004C4.00001 18.5308 4.21072 19.0395 4.58579 19.4146C4.96086 19.7897 5.46957 20.0004 6.00001 20.0004Z" fill="black"/>
</svg>
