<svg width="24" height="24" viewBox="0 0 24 24" fill="none" xmlns="http://www.w3.org/2000/svg">
<path d="M10.6561 13.8451V15.6674C9.20615 15.6674 7.8156 16.2434 6.79035 17.2687C5.76509 18.2939 5.18911 19.6845 5.18911 21.1344H3.36679C3.36679 19.2012 4.13476 17.3471 5.50177 15.9801C6.86878 14.6131 8.72284 13.8451 10.6561 13.8451V13.8451ZM10.6561 12.9339C7.63558 12.9339 5.18911 10.4875 5.18911 7.46697C5.18911 4.44647 7.63558 2 10.6561 2C13.6766 2 16.123 4.44647 16.123 7.46697C16.123 10.4875 13.6766 12.9339 10.6561 12.9339ZM10.6561 11.1116C12.6697 11.1116 14.3007 9.48064 14.3007 7.46697C14.3007 5.4533 12.6697 3.82232 10.6561 3.82232C8.64241 3.82232 7.01143 5.4533 7.01143 7.46697C7.01143 9.48064 8.64241 11.1116 10.6561 11.1116ZM19.2629 19.3412L20.6333 20.7116L19.3449 22L17.9745 20.6296C17.2104 21.0802 16.3081 21.2366 15.4369 21.0695C14.5657 20.9024 13.7853 20.4233 13.2421 19.722C12.6988 19.0207 12.43 18.1454 12.486 17.26C12.542 16.3747 12.919 15.5402 13.5462 14.9129C14.1735 14.2857 15.008 13.9087 15.8933 13.8527C16.7787 13.7967 17.654 14.0655 18.3553 14.6088C19.0566 15.152 19.5357 15.9324 19.7028 16.8036C19.8699 17.6748 19.7135 18.5771 19.2629 19.3412V19.3412ZM16.123 19.3121C16.6064 19.3121 17.0699 19.1201 17.4116 18.7783C17.7534 18.4366 17.9454 17.9731 17.9454 17.4897C17.9454 17.0064 17.7534 16.5429 17.4116 16.2012C17.0699 15.8594 16.6064 15.6674 16.123 15.6674C15.6397 15.6674 15.1762 15.8594 14.8345 16.2012C14.4927 16.5429 14.3007 17.0064 14.3007 17.4897C14.3007 17.9731 14.4927 18.4366 14.8345 18.7783C15.1762 19.1201 15.6397 19.3121 16.123 19.3121V19.3121Z" fill="black"/>
</svg>
