<svg width="24" height="24" viewBox="0 0 24 24" fill="none" xmlns="http://www.w3.org/2000/svg">
<path d="M13 12H20V14H13V21H11V8C11 6.93913 11.4214 5.92172 12.1716 5.17157C12.9217 4.42143 13.9391 4 15 4H22V6H15C14.4696 6 13.9609 6.21071 13.5858 6.58579C13.2107 6.96086 13 7.46957 13 8V12ZM5.5 10C5.04037 10 4.58525 9.90947 4.16061 9.73358C3.73597 9.55769 3.35013 9.29988 3.02513 8.97487C2.70012 8.64987 2.44231 8.26403 2.26642 7.83939C2.09053 7.41475 2 6.95963 2 6.5C2 6.04037 2.09053 5.58525 2.26642 5.16061C2.44231 4.73597 2.70012 4.35013 3.02513 4.02513C3.35013 3.70012 3.73597 3.44231 4.16061 3.26642C4.58525 3.09053 5.04037 3 5.5 3C6.42826 3 7.3185 3.36875 7.97487 4.02513C8.63125 4.6815 9 5.57174 9 6.5C9 7.42826 8.63125 8.3185 7.97487 8.97487C7.3185 9.63125 6.42826 10 5.5 10V10ZM5.5 8C5.89782 8 6.27936 7.84196 6.56066 7.56066C6.84196 7.27936 7 6.89782 7 6.5C7 6.10218 6.84196 5.72064 6.56066 5.43934C6.27936 5.15804 5.89782 5 5.5 5C5.10218 5 4.72064 5.15804 4.43934 5.43934C4.15804 5.72064 4 6.10218 4 6.5C4 6.89782 4.15804 7.27936 4.43934 7.56066C4.72064 7.84196 5.10218 8 5.5 8V8Z" fill="black"/>
</svg>
