<svg width="24" height="24" viewBox="0 0 24 24" fill="none" xmlns="http://www.w3.org/2000/svg">
<path d="M6.53482 16.4675C4.97321 15.8334 3.68044 14.6764 2.87765 13.1944C2.07486 11.7125 1.81193 9.99759 2.13385 8.34317C2.45576 6.68875 3.34251 5.19759 4.64241 4.12475C5.94231 3.05191 7.57459 2.46406 9.26003 2.46176C10.7244 2.46168 12.1547 2.90383 13.3636 3.73033C14.5724 4.55682 15.5035 5.72912 16.0349 7.0937C17.3024 6.84315 18.6177 7.09336 19.7047 7.79181C20.7916 8.49026 21.5658 9.58264 21.8645 10.8396C22.1633 12.0967 21.9636 13.4205 21.3072 14.5334C20.6507 15.6463 19.5887 16.4616 18.3441 16.8082V14.8733C18.7639 14.674 19.135 14.3852 19.4311 14.0271C19.7273 13.669 19.9414 13.2503 20.0583 12.8005C20.1751 12.3508 20.192 11.8808 20.1077 11.4238C20.0233 10.9668 19.8398 10.5339 19.5701 10.1555C19.3004 9.77702 18.951 9.46233 18.5465 9.23351C18.142 9.0047 17.6923 8.86734 17.229 8.8311C16.7657 8.79486 16.3001 8.86062 15.865 9.02375C15.4298 9.18689 15.0357 9.44343 14.7104 9.77531V9.72898C14.7103 8.77226 14.4583 7.83244 13.9799 7.00396C13.5014 6.17548 12.8133 5.48753 11.9847 5.00926C11.1561 4.53099 10.2163 4.27925 9.25955 4.27934C8.30283 4.27942 7.363 4.53133 6.53449 5.00975C5.70598 5.48816 5.018 6.17623 4.53969 7.00479C4.06138 7.83336 3.80958 8.77323 3.80962 9.72994C3.80965 10.6867 4.06151 11.6265 4.53988 12.455C5.01825 13.2836 5.70628 13.9716 6.53482 14.4499V16.4675ZM10.1684 16.0878C9.68659 16.0878 9.22447 15.8964 8.88376 15.5557C8.54304 15.2149 8.35163 14.7528 8.35163 14.271C8.35163 13.7891 8.54304 13.327 8.88376 12.9863C9.22447 12.6456 9.68659 12.4542 10.1684 12.4542C10.6503 12.4542 11.1124 12.6456 11.4531 12.9863C11.7938 13.327 11.9852 13.7891 11.9852 14.271C11.9852 14.7528 11.7938 15.2149 11.4531 15.5557C11.1124 15.8964 10.6503 16.0878 10.1684 16.0878ZM14.7104 18.813C14.2286 18.813 13.7665 18.6216 13.4258 18.2809C13.0851 17.9402 12.8936 17.478 12.8936 16.9962C12.8936 16.5144 13.0851 16.0522 13.4258 15.7115C13.7665 15.3708 14.2286 15.1794 14.7104 15.1794C15.1923 15.1794 15.6544 15.3708 15.9951 15.7115C16.3358 16.0522 16.5272 16.5144 16.5272 16.9962C16.5272 17.478 16.3358 17.9402 15.9951 18.2809C15.6544 18.6216 15.1923 18.813 14.7104 18.813ZM10.1684 21.5382C9.68659 21.5382 9.22447 21.3468 8.88376 21.0061C8.54304 20.6654 8.35163 20.2032 8.35163 19.7214C8.35163 19.2396 8.54304 18.7774 8.88376 18.4367C9.22447 18.096 9.68659 17.9046 10.1684 17.9046C10.6503 17.9046 11.1124 18.096 11.4531 18.4367C11.7938 18.7774 11.9852 19.2396 11.9852 19.7214C11.9852 20.2032 11.7938 20.6654 11.4531 21.0061C11.1124 21.3468 10.6503 21.5382 10.1684 21.5382Z" fill="black"/>
</svg>
