<svg width="24" height="24" viewBox="0 0 24 24" fill="none" xmlns="http://www.w3.org/2000/svg">
<path d="M3.90476 7.23807V16.7619H17.2381V7.23807H3.90476ZM2.95238 5.33331H18.1905C18.4431 5.33331 18.6853 5.43365 18.8639 5.61226C19.0425 5.79087 19.1429 6.03311 19.1429 6.28569V17.7143C19.1429 17.9669 19.0425 18.2091 18.8639 18.3877C18.6853 18.5663 18.4431 18.6666 18.1905 18.6666H2.95238C2.69979 18.6666 2.45755 18.5663 2.27895 18.3877C2.10034 18.2091 2 17.9669 2 17.7143V6.28569C2 6.03311 2.10034 5.79087 2.27895 5.61226C2.45755 5.43365 2.69979 5.33331 2.95238 5.33331V5.33331ZM20.0952 9.14284H22V14.8571H20.0952V9.14284Z" fill="black"/>
</svg>
