<svg width="24" height="24" viewBox="0 0 24 24" fill="none" xmlns="http://www.w3.org/2000/svg">
<path d="M12 4.375C13.45 4.375 14.625 5.55 14.625 7C14.625 8.45 13.45 9.625 12 9.625C10.55 9.625 9.375 8.45 9.375 7C9.375 5.55 10.55 4.375 12 4.375ZM12 15.625C15.7125 15.625 19.625 17.45 19.625 18.25V19.625H4.375V18.25C4.375 17.45 8.2875 15.625 12 15.625ZM12 2C9.2375 2 7 4.2375 7 7C7 9.7625 9.2375 12 12 12C14.7625 12 17 9.7625 17 7C17 4.2375 14.7625 2 12 2ZM12 13.25C8.6625 13.25 2 14.925 2 18.25V22H22V18.25C22 14.925 15.3375 13.25 12 13.25Z" fill="black"/>
</svg>
