<svg width="24" height="24" viewBox="0 0 24 24" fill="none" xmlns="http://www.w3.org/2000/svg">
<path d="M5.88111 19.7778H18.1189L17.3778 16.4444H6.62222L5.88111 19.7778ZM20.3956 19.7778H22V22H2V19.7778H3.60444L7.36222 2.87C7.41707 2.62326 7.55441 2.4026 7.75156 2.24443C7.94872 2.08626 8.19391 2.00004 8.44667 2H15.5533C15.8061 2.00004 16.0513 2.08626 16.2484 2.24443C16.4456 2.4026 16.5829 2.62326 16.6378 2.87L20.3956 19.7778ZM7.11556 14.2222H16.8844L15.8956 9.77778H8.10445L7.11667 14.2222H7.11556ZM8.59778 7.55556H15.4022L14.6622 4.22222H9.33778L8.59778 7.55556V7.55556Z" fill="black"/>
</svg>
