<svg width="24" height="24" viewBox="0 0 24 24" fill="none" xmlns="http://www.w3.org/2000/svg">
<path d="M5 2H19C19.2652 2 19.5196 2.10207 19.7071 2.28376C19.8946 2.46545 20 2.71187 20 2.96882V21.515C20.0001 21.6016 19.9763 21.6867 19.9309 21.7613C19.8855 21.836 19.8204 21.8975 19.7421 21.9394C19.6639 21.9814 19.5755 22.0022 19.4861 21.9998C19.3968 21.9974 19.3097 21.9718 19.234 21.9258L12 17.5302L4.766 21.9248C4.69037 21.9708 4.60339 21.9964 4.5141 21.9988C4.42482 22.0013 4.33649 21.9805 4.2583 21.9387C4.1801 21.8968 4.11491 21.8355 4.06948 21.761C4.02406 21.6865 4.00007 21.6015 4 21.515V2.96882C4 2.71187 4.10536 2.46545 4.29289 2.28376C4.48043 2.10207 4.73478 2 5 2ZM18 3.93764H6V18.8885L12 15.2448L18 18.8885V3.93764Z" fill="black"/>
</svg>
