<svg width="24" height="24" viewBox="0 0 24 24" fill="none" xmlns="http://www.w3.org/2000/svg">
<path d="M12.4762 14.621V16.6114C11.6142 16.3067 10.6917 16.2132 9.78609 16.3388C8.8805 16.4645 8.01827 16.8056 7.27183 17.3335C6.52538 17.8615 5.91651 18.5608 5.49633 19.3728C5.07616 20.1848 4.85696 21.0857 4.85713 22L2.95237 21.999C2.95207 20.8361 3.21801 19.6885 3.7298 18.6442C4.24159 17.5999 4.98564 16.6866 5.90496 15.9743C6.82427 15.262 7.89444 14.7697 9.03347 14.5349C10.1725 14.3001 11.3501 14.3302 12.4762 14.621ZM10.5714 13.4286C7.41427 13.4286 4.85713 10.8714 4.85713 7.71429C4.85713 4.55714 7.41427 2 10.5714 2C13.7286 2 16.2857 4.55714 16.2857 7.71429C16.2857 10.8714 13.7286 13.4286 10.5714 13.4286ZM10.5714 11.5238C12.6762 11.5238 14.3809 9.81905 14.3809 7.71429C14.3809 5.60952 12.6762 3.90476 10.5714 3.90476C8.46666 3.90476 6.76189 5.60952 6.76189 7.71429C6.76189 9.81905 8.46666 11.5238 10.5714 11.5238ZM16.2857 17.2381V14.381H18.1905V17.2381H21.0476V19.1429H18.1905V22H16.2857V19.1429H13.4286V17.2381H16.2857Z" fill="black"/>
</svg>
