<svg width="24" height="24" viewBox="0 0 24 24" fill="none" xmlns="http://www.w3.org/2000/svg">
<path d="M8.36356 5.63644C8.36356 4.67199 8.74668 3.74705 9.42864 3.06509C10.1106 2.38312 11.0356 2 12 2C12.9644 2 13.8894 2.38312 14.5713 3.06509C15.2533 3.74705 15.6364 4.67199 15.6364 5.63644V10.4138C16.7483 11.188 17.584 12.2968 18.022 13.5788C18.46 14.8609 18.4774 16.2493 18.0717 17.5419C17.666 18.8345 16.8584 19.964 15.7663 20.7658C14.6743 21.5676 13.3548 22 12 22C10.6452 22 9.32573 21.5676 8.23368 20.7658C7.14163 19.964 6.33397 18.8345 5.92826 17.5419C5.52256 16.2493 5.53998 14.8609 5.97799 13.5788C6.41599 12.2968 7.25173 11.188 8.36356 10.4138V5.63644ZM9.40358 11.9047C8.60917 12.4576 8.01196 13.2495 7.69887 14.1653C7.38578 15.0811 7.37316 16.0729 7.66285 16.9964C7.95255 17.9198 8.52943 18.7267 9.30951 19.2996C10.0896 19.8724 11.0322 20.1813 12 20.1813C12.9678 20.1813 13.9104 19.8724 14.6905 19.2996C15.4706 18.7267 16.0474 17.9198 16.3371 16.9964C16.6268 16.0729 16.6142 15.0811 16.3011 14.1653C15.988 13.2495 15.3908 12.4576 14.5964 11.9047L13.8182 11.362V5.63644C13.8182 5.15421 13.6266 4.69174 13.2857 4.35076C12.9447 4.00978 12.4822 3.81822 12 3.81822C11.5178 3.81822 11.0553 4.00978 10.7143 4.35076C10.3733 4.69174 10.1818 5.15421 10.1818 5.63644V11.362L9.40358 11.9047ZM8.36356 15.6366H15.6364C15.6364 16.6011 15.2533 17.526 14.5713 18.208C13.8894 18.8899 12.9644 19.2731 12 19.2731C11.0356 19.2731 10.1106 18.8899 9.42864 18.208C8.74668 17.526 8.36356 16.6011 8.36356 15.6366V15.6366Z" fill="black"/>
</svg>
