<svg width="24" height="24" viewBox="0 0 24 24" fill="none" xmlns="http://www.w3.org/2000/svg">
<path d="M2.243 7.77025L11.49 2.22625C11.6454 2.133 11.8233 2.08374 12.0045 2.08374C12.1857 2.08374 12.3636 2.133 12.519 2.22625L21.757 7.77125C21.8311 7.81566 21.8925 7.87853 21.9351 7.95372C21.9776 8.0289 22 8.11384 22 8.20025V20.9163C22 21.1815 21.8946 21.4358 21.7071 21.6234C21.5196 21.8109 21.2652 21.9163 21 21.9163H3C2.73478 21.9163 2.48043 21.8109 2.29289 21.6234C2.10536 21.4358 2 21.1815 2 20.9163V8.19925C1.99998 8.11284 2.02236 8.0279 2.06495 7.95272C2.10753 7.87753 2.16888 7.81466 2.243 7.77025ZM4 9.04925V19.9163H20V9.04825L12.004 4.24825L4 9.04825V9.04925ZM12.06 14.6143L17.356 10.1512L18.644 11.6813L12.074 17.2183L5.364 11.6883L6.636 10.1442L12.06 14.6143V14.6143Z" fill="black"/>
</svg>
