<svg width="24" height="24" viewBox="0 0 24 24" fill="none" xmlns="http://www.w3.org/2000/svg">
<path d="M10.6687 6.93621L8.94677 8.65725L10.279 9.98946L14.2728 5.99473L10.279 2L8.94677 3.3322L10.6687 5.05324H8.23406C6.98557 5.05324 5.78822 5.5492 4.90541 6.43202C4.02259 7.31483 3.52663 8.51219 3.52663 9.76067V13.5266H5.4096V9.76067C5.4096 9.01158 5.70718 8.29317 6.23687 7.76348C6.76656 7.23379 7.48497 6.93621 8.23406 6.93621H10.6687ZM9.17555 11.6436V21.0585C9.17555 21.3082 9.27474 21.5477 9.4513 21.7242C9.62787 21.9008 9.86734 22 10.117 22H19.5319C19.7816 22 20.0211 21.9008 20.1976 21.7242C20.3742 21.5477 20.4734 21.3082 20.4734 21.0585V11.6436C20.4734 11.3939 20.3742 11.1545 20.1976 10.9779C20.0211 10.8014 19.7816 10.7022 19.5319 10.7022H10.117C9.86734 10.7022 9.62787 10.8014 9.4513 10.9779C9.27474 11.1545 9.17555 11.3939 9.17555 11.6436ZM11.0585 12.5851H18.5904V20.117H11.0585V12.5851Z" fill="black"/>
</svg>
