<svg width="24" height="24" viewBox="0 0 24 24" fill="none" xmlns="http://www.w3.org/2000/svg">
<path d="M7.71429 18.6667H2.95238C2.69979 18.6667 2.45755 18.5663 2.27895 18.3877C2.10034 18.2091 2 17.9669 2 17.7143V6.28572C2 6.03313 2.10034 5.79089 2.27895 5.61228C2.45755 5.43368 2.69979 5.33334 2.95238 5.33334H9.2619L8.15048 7.2381H3.90476V16.7619H7.71429V18.6667ZM11.881 18.6667L12.9924 16.7619H17.2381V7.2381H13.4286V5.33334H18.1905C18.4431 5.33334 18.6853 5.43368 18.8639 5.61228C19.0425 5.79089 19.1429 6.03313 19.1429 6.28572V17.7143C19.1429 17.9669 19.0425 18.2091 18.8639 18.3877C18.6853 18.5663 18.4431 18.6667 18.1905 18.6667H11.881ZM20.0952 9.14286H22V14.8571H20.0952V9.14286ZM11.5238 11.0476H14.381L9.61905 18.6667V12.9524H6.7619L11.5238 5.33334V11.0476Z" fill="black"/>
</svg>
