<svg width="24" height="24" viewBox="0 0 24 24" fill="none" xmlns="http://www.w3.org/2000/svg">
<path d="M5 15.5V21.5H3V2.5H12.382C12.5677 2.5001 12.7496 2.55188 12.9075 2.64955C13.0654 2.74722 13.193 2.88692 13.276 3.053L14 4.5H20C20.2652 4.5 20.5196 4.60536 20.7071 4.79289C20.8946 4.98043 21 5.23478 21 5.5V16.5C21 16.7652 20.8946 17.0196 20.7071 17.2071C20.5196 17.3946 20.2652 17.5 20 17.5H13.618C13.4323 17.4999 13.2504 17.4481 13.0925 17.3504C12.9346 17.2528 12.807 17.1131 12.724 16.947L12 15.5H5ZM5 4.5V13.5H13.236L14.236 15.5H19V6.5H12.764L11.764 4.5H5Z" fill="black"/>
</svg>
