<svg width="24" height="24" viewBox="0 0 24 24" fill="none" xmlns="http://www.w3.org/2000/svg">
<path d="M9.54435 17.6227L7.76035 17.1441L8.48744 14.4289C7.39908 14.0275 6.38758 13.4425 5.49686 12.6994L3.50776 14.6894L2.20048 13.3821L4.1905 11.393C3.06714 10.0476 2.31235 8.43363 2 6.70897L3.81818 6.3773C4.5194 10.2594 7.91556 13.2047 12 13.2047C16.0835 13.2047 19.4806 10.2594 20.1818 6.3773L22 6.70805C21.6881 8.43294 20.9336 10.0473 19.8104 11.393L21.7995 13.3821L20.4922 14.6894L18.5031 12.6994C17.6124 13.4425 16.6009 14.0275 15.5126 14.4289L16.2397 17.145L14.4557 17.6227L13.7276 14.9065C12.5842 15.1024 11.4158 15.1024 10.2724 14.9065L9.54435 17.6227Z" fill="black"/>
</svg>
