<svg width="24" height="24" viewBox="0 0 24 24" fill="none" xmlns="http://www.w3.org/2000/svg">
<path d="M7.83002 20C7.66098 20.4778 7.37364 20.9051 6.99481 21.2419C6.61598 21.5787 6.15801 21.8141 5.66363 21.9261C5.16924 22.038 4.65455 22.0229 4.16758 21.8822C3.68061 21.7414 3.23722 21.4796 2.87879 21.1212C2.52036 20.7628 2.25855 20.3194 2.11781 19.8324C1.97707 19.3454 1.96197 18.8307 2.07393 18.3364C2.18588 17.842 2.42124 17.384 2.75805 17.0052C3.09486 16.6264 3.52214 16.339 4.00002 16.17V7.82996C3.52214 7.66092 3.09486 7.37358 2.75805 6.99475C2.42124 6.61592 2.18588 6.15795 2.07393 5.66357C1.96197 5.16918 1.97707 4.65449 2.11781 4.16752C2.25855 3.68055 2.52036 3.23716 2.87879 2.87873C3.23722 2.52029 3.68061 2.25849 4.16758 2.11775C4.65455 1.97701 5.16924 1.96191 5.66363 2.07387C6.15801 2.18582 6.61598 2.42118 6.99481 2.75799C7.37364 3.0948 7.66098 3.52208 7.83002 3.99996H16.17C16.3391 3.52208 16.6264 3.0948 17.0052 2.75799C17.3841 2.42118 17.842 2.18582 18.3364 2.07387C18.8308 1.96191 19.3455 1.97701 19.8325 2.11775C20.3194 2.25849 20.7628 2.52029 21.1213 2.87873C21.4797 3.23716 21.7415 3.68055 21.8822 4.16752C22.023 4.65449 22.0381 5.16918 21.9261 5.66357C21.8142 6.15795 21.5788 6.61592 21.242 6.99475C20.9052 7.37358 20.4779 7.66092 20 7.82996V16.17C20.4779 16.339 20.9052 16.6264 21.242 17.0052C21.5788 17.384 21.8142 17.842 21.9261 18.3364C22.0381 18.8307 22.023 19.3454 21.8822 19.8324C21.7415 20.3194 21.4797 20.7628 21.1213 21.1212C20.7628 21.4796 20.3194 21.7414 19.8325 21.8822C19.3455 22.0229 18.8308 22.038 18.3364 21.9261C17.842 21.8141 17.3841 21.5787 17.0052 21.2419C16.6264 20.9051 16.3391 20.4778 16.17 20H7.83002ZM7.83002 18H16.17C16.3196 17.578 16.5616 17.1947 16.8782 16.8781C17.1947 16.5615 17.578 16.3196 18 16.17V7.82996C17.578 7.68036 17.1947 7.43843 16.8782 7.12183C16.5616 6.80524 16.3196 6.42196 16.17 5.99996H7.83002C7.68042 6.42196 7.43849 6.80524 7.1219 7.12183C6.8053 7.43843 6.42202 7.68036 6.00002 7.82996V16.17C6.42202 16.3196 6.8053 16.5615 7.1219 16.8781C7.43849 17.1947 7.68042 17.578 7.83002 18V18ZM5.00002 5.99996C5.26524 5.99996 5.51959 5.89461 5.70713 5.70707C5.89467 5.51953 6.00002 5.26518 6.00002 4.99996C6.00002 4.73475 5.89467 4.48039 5.70713 4.29286C5.51959 4.10532 5.26524 3.99996 5.00002 3.99996C4.73481 3.99996 4.48045 4.10532 4.29292 4.29286C4.10538 4.48039 4.00002 4.73475 4.00002 4.99996C4.00002 5.26518 4.10538 5.51953 4.29292 5.70707C4.48045 5.89461 4.73481 5.99996 5.00002 5.99996ZM19 5.99996C19.2652 5.99996 19.5196 5.89461 19.7071 5.70707C19.8947 5.51953 20 5.26518 20 4.99996C20 4.73475 19.8947 4.48039 19.7071 4.29286C19.5196 4.10532 19.2652 3.99996 19 3.99996C18.7348 3.99996 18.4805 4.10532 18.2929 4.29286C18.1054 4.48039 18 4.73475 18 4.99996C18 5.26518 18.1054 5.51953 18.2929 5.70707C18.4805 5.89461 18.7348 5.99996 19 5.99996ZM19 20C19.2652 20 19.5196 19.8946 19.7071 19.7071C19.8947 19.5195 20 19.2652 20 19C20 18.7347 19.8947 18.4804 19.7071 18.2929C19.5196 18.1053 19.2652 18 19 18C18.7348 18 18.4805 18.1053 18.2929 18.2929C18.1054 18.4804 18 18.7347 18 19C18 19.2652 18.1054 19.5195 18.2929 19.7071C18.4805 19.8946 18.7348 20 19 20ZM5.00002 20C5.26524 20 5.51959 19.8946 5.70713 19.7071C5.89467 19.5195 6.00002 19.2652 6.00002 19C6.00002 18.7347 5.89467 18.4804 5.70713 18.2929C5.51959 18.1053 5.26524 18 5.00002 18C4.73481 18 4.48045 18.1053 4.29292 18.2929C4.10538 18.4804 4.00002 18.7347 4.00002 19C4.00002 19.2652 4.10538 19.5195 4.29292 19.7071C4.48045 19.8946 4.73481 20 5.00002 20Z" fill="black"/>
</svg>
