<svg width="24" height="24" viewBox="0 0 24 24" fill="none" xmlns="http://www.w3.org/2000/svg">
<path d="M17.5814 9.44186C17.5814 7.96158 16.9934 6.54193 15.9466 5.49522C14.8999 4.4485 13.4803 3.86047 12 3.86047C10.5197 3.86047 9.10007 4.4485 8.05335 5.49522C7.00664 6.54193 6.4186 7.96158 6.4186 9.44186V16.8837H17.5814V9.44186ZM19.4419 17.5042L19.8139 18C19.8658 18.0691 19.8973 18.1513 19.9051 18.2373C19.9128 18.3233 19.8965 18.4098 19.8579 18.4871C19.8192 18.5643 19.7599 18.6293 19.6864 18.6747C19.6129 18.7201 19.5282 18.7442 19.4419 18.7442H4.55813C4.47176 18.7442 4.38709 18.7201 4.31361 18.6747C4.24013 18.6293 4.18075 18.5643 4.14212 18.4871C4.10349 18.4098 4.08714 18.3233 4.0949 18.2373C4.10265 18.1513 4.13421 18.0691 4.18604 18L4.55813 17.5042V9.44186C4.55813 7.46816 5.34219 5.57529 6.7378 4.17967C8.13342 2.78405 10.0263 2 12 2C13.9737 2 15.8666 2.78405 17.2622 4.17967C18.6578 5.57529 19.4419 7.46816 19.4419 9.44186V17.5042ZM9.67441 19.6744H14.3256C14.3256 20.2912 14.0806 20.8827 13.6444 21.3189C13.2083 21.755 12.6168 22 12 22C11.3832 22 10.7917 21.755 10.3556 21.3189C9.91943 20.8827 9.67441 20.2912 9.67441 19.6744V19.6744Z" fill="black"/>
</svg>
