<svg width="24" height="24" viewBox="0 0 24 24" fill="none" xmlns="http://www.w3.org/2000/svg">
<path d="M9 2V4H15V2H17V4H21C21.2652 4 21.5196 4.10536 21.7071 4.29289C21.8946 4.48043 22 4.73478 22 5V21C22 21.2652 21.8946 21.5196 21.7071 21.7071C21.5196 21.8946 21.2652 22 21 22H3C2.73478 22 2.48043 21.8946 2.29289 21.7071C2.10536 21.5196 2 21.2652 2 21V5C2 4.73478 2.10536 4.48043 2.29289 4.29289C2.48043 4.10536 2.73478 4 3 4H7V2H9ZM20 11H4V20H20V11ZM15.036 12.136L16.45 13.55L11.5 18.5L7.964 14.964L9.38 13.55L11.501 15.672L15.037 12.136H15.036ZM7 6H4V9H20V6H17V7H15V6H9V7H7V6Z" fill="black"/>
</svg>
