<svg width="24" height="24" viewBox="0 0 24 24" fill="none" xmlns="http://www.w3.org/2000/svg">
<path d="M14.8573 2H9.14297V3.90476H14.8573V2ZM11.0477 14.381H12.9525V8.66667H11.0477V14.381ZM18.6953 8.08571L20.0477 6.73333C19.6382 6.24762 19.1906 5.79048 18.7049 5.39048L17.3525 6.74286C15.8763 5.5619 14.0192 4.85714 12.0001 4.85714C7.26678 4.85714 3.42868 8.69524 3.42868 13.4286C3.42868 18.1619 7.25725 22 12.0001 22C16.743 22 20.5715 18.1619 20.5715 13.4286C20.5715 11.4095 19.8668 9.55238 18.6953 8.08571ZM12.0001 20.0952C8.31439 20.0952 5.33344 17.1143 5.33344 13.4286C5.33344 9.74286 8.31439 6.7619 12.0001 6.7619C15.6858 6.7619 18.6668 9.74286 18.6668 13.4286C18.6668 17.1143 15.6858 20.0952 12.0001 20.0952Z" fill="black"/>
</svg>
