<svg width="24" height="24" viewBox="0 0 24 24" fill="none" xmlns="http://www.w3.org/2000/svg">
<path d="M20.1818 4.72727H11.0909L10.1818 2H3.81818C2.81818 2 2 2.81818 2 3.81818V17.4545C2 18.4545 2.81818 19.2727 3.81818 19.2727H11.0909L12 22H20.1818C21.1818 22 22 21.1818 22 20.1818V6.54545C22 5.54545 21.1818 4.72727 20.1818 4.72727ZM7.45455 15.6364C4.94545 15.6364 2.90909 13.6 2.90909 11.0909C2.90909 8.58182 4.94545 6.54545 7.45455 6.54545C8.68182 6.54545 9.70909 7 10.5 7.72727L9.3 8.88182C8.95455 8.55455 8.35455 8.17273 7.45455 8.17273C5.87273 8.17273 4.59091 9.48182 4.59091 11.0909C4.59091 12.7 5.87273 14.0091 7.45455 14.0091C9.28182 14.0091 10.0364 12.7 10.1091 11.8182H7.45455V10.2636H11.7091C11.7727 10.5455 11.8182 10.8182 11.8182 11.1909C11.8182 13.7909 10.0818 15.6364 7.45455 15.6364ZM13.0636 10.7091H16.4273C16.0364 11.8455 15.4182 12.9182 14.5636 13.8636C14.2818 13.5455 14.0182 13.2091 13.7818 12.8636L13.0636 10.7091V10.7091ZM20.6364 19.7273C20.6364 20.2273 20.2273 20.6364 19.7273 20.6364H13.8182L15.6364 18.3636L14.6909 15.5455L17.5091 18.3636L18.3455 17.5273L15.3455 14.5727L15.3636 14.5545C16.3909 13.4182 17.1182 12.1091 17.5455 10.7182H19.2727V9.53636H15.1545V8.36364H13.9818V9.53636H12.6727L11.5091 6.09091H19.7273C20.2273 6.09091 20.6364 6.5 20.6364 7V19.7273Z" fill="black"/>
</svg>
