<svg width="10" height="40" viewBox="0 0 10 40" fill="none" xmlns="http://www.w3.org/2000/svg">
<path d="M6.61157 6.66667V34.1667C6.61157 36.6667 8.01653 38.8333 10 40H0V0C3.63636 0 6.61157 3 6.61157 6.66667Z" fill="white"/>
<mask id="path-2-inside-1_1539_341" fill="white">
<path d="M0 0.833333L0.826446 0.916667C3.63636 1.33333 5.78512 3.75 5.78512 6.66667V34.1667C5.78512 36.5 6.8595 38.5833 8.5124 40H10V39.1667H8.8652C7.5017 37.9353 6.61157 36.1566 6.61157 34.1667V6.66667C6.61157 3 3.63636 0 0 0V0.833333Z"/>
</mask>
<path d="M0 0.833333L0.826446 0.916667C3.63636 1.33333 5.78512 3.75 5.78512 6.66667V34.1667C5.78512 36.5 6.8595 38.5833 8.5124 40H10V39.1667H8.8652C7.5017 37.9353 6.61157 36.1566 6.61157 34.1667V6.66667C6.61157 3 3.63636 0 0 0V0.833333Z" fill="#BAC7D5"/>
<path d="M0 0.833333H-1V1.73757L-0.100325 1.82829L0 0.833333ZM0.826446 0.916667L0.973127 -0.0725173L0.950016 -0.0759442L0.926771 -0.0782881L0.826446 0.916667ZM8.5124 40L7.86163 40.7593L8.14249 41H8.5124V40ZM10 40V41H11V40H10ZM10 39.1667H11V38.1667H10V39.1667ZM8.8652 39.1667L8.19497 39.9088L8.48049 40.1667H8.8652V39.1667ZM0 0V-1H-1V0H0ZM-0.100325 1.82829L0.726122 1.91162L0.926771 -0.0782881L0.100325 -0.161621L-0.100325 1.82829ZM0.679766 1.90585C3.00704 2.25095 4.78512 4.25331 4.78512 6.66667H6.78512C6.78512 3.24669 4.26569 0.415718 0.973127 -0.0725173L0.679766 1.90585ZM4.78512 6.66667V34.1667H6.78512V6.66667H4.78512ZM4.78512 34.1667C4.78512 36.8158 6.00589 39.1688 7.86163 40.7593L9.16316 39.2407C7.71311 37.9979 6.78512 36.1842 6.78512 34.1667H4.78512ZM8.5124 41H10V39H8.5124V41ZM11 40V39.1667H9V40H11ZM10 38.1667H8.8652V40.1667H10V38.1667ZM9.53543 38.4245C8.36413 37.3667 7.61157 35.8506 7.61157 34.1667H5.61157C5.61157 36.4626 6.63928 38.5039 8.19497 39.9088L9.53543 38.4245ZM7.61157 34.1667V6.66667H5.61157V34.1667H7.61157ZM7.61157 6.66667C7.61157 2.45556 4.19646 -1 0 -1V1C3.07627 1 5.61157 3.54444 5.61157 6.66667H7.61157ZM-1 0V0.833333H1V0H-1Z" fill="#BAC7D5" mask="url(#path-2-inside-1_1539_341)"/>
</svg>
