<svg width="10" height="40" viewBox="0 0 10 40" fill="none" xmlns="http://www.w3.org/2000/svg">
<path d="M3.38843 6.66667V34.1667C3.38843 36.6667 1.98347 38.8333 0 40H10V0C6.36364 0 3.38843 3 3.38843 6.66667Z" fill="white"/>
<mask id="path-2-inside-1_899_519" fill="white">
<path d="M10 0.833333L9.17355 0.916667C6.36364 1.33333 4.21488 3.75 4.21488 6.66667V34.1667C4.21488 36.5 3.1405 38.5833 1.4876 40H2.38419e-07V39.1667H1.1348C2.4983 37.9353 3.38843 36.1566 3.38843 34.1667V6.66667C3.38843 3 6.36364 0 10 0V0.833333Z"/>
</mask>
<path d="M10 0.833333L9.17355 0.916667C6.36364 1.33333 4.21488 3.75 4.21488 6.66667V34.1667C4.21488 36.5 3.1405 38.5833 1.4876 40H2.38419e-07V39.1667H1.1348C2.4983 37.9353 3.38843 36.1566 3.38843 34.1667V6.66667C3.38843 3 6.36364 0 10 0V0.833333Z" fill="#BAC7D5"/>
<path d="M10 0.833333H11V1.73757L10.1003 1.82829L10 0.833333ZM9.17355 0.916667L9.02687 -0.0725173L9.04998 -0.0759442L9.07323 -0.0782881L9.17355 0.916667ZM1.4876 40L2.13837 40.7593L1.85751 41H1.4876V40ZM0 40V41H-1V40H0ZM0 39.1667H-1V38.1667H0V39.1667ZM1.1348 39.1667L1.80503 39.9088L1.51951 40.1667H1.1348V39.1667ZM10 0V-1H11V0H10ZM10.1003 1.82829L9.27388 1.91162L9.07323 -0.0782881L9.89968 -0.161621L10.1003 1.82829ZM9.32023 1.90585C6.99296 2.25095 5.21488 4.25331 5.21488 6.66667H3.21488C3.21488 3.24669 5.73431 0.415718 9.02687 -0.0725173L9.32023 1.90585ZM5.21488 6.66667V34.1667H3.21488V6.66667H5.21488ZM5.21488 34.1667C5.21488 36.8158 3.99411 39.1688 2.13837 40.7593L0.836838 39.2407C2.28689 37.9979 3.21488 36.1842 3.21488 34.1667H5.21488ZM1.4876 41H0V39H1.4876V41ZM-1 40V39.1667H1V40H-1ZM0 38.1667H1.1348V40.1667H0V38.1667ZM0.464575 38.4245C1.63587 37.3667 2.38843 35.8506 2.38843 34.1667H4.38843C4.38843 36.4626 3.36072 38.5039 1.80503 39.9088L0.464575 38.4245ZM2.38843 34.1667V6.66667H4.38843V34.1667H2.38843ZM2.38843 6.66667C2.38843 2.45556 5.80354 -1 10 -1V1C6.92373 1 4.38843 3.54444 4.38843 6.66667H2.38843ZM11 0V0.833333H9V0H11Z" fill="#BAC7D5" mask="url(#path-2-inside-1_899_519)"/>
</svg>
