<svg width="16" height="16" viewBox="0 0 16 16" fill="none" xmlns="http://www.w3.org/2000/svg">
<path d="M7.99998 14.2593C7.23149 14.2593 6.47053 14.108 5.76054 13.8139C5.05055 13.5198 4.40543 13.0887 3.86203 12.5453C3.31863 12.0019 2.88757 11.3568 2.59349 10.6468C2.2994 9.93684 2.14803 9.17588 2.14803 8.40739C2.14803 7.6389 2.2994 6.87794 2.59349 6.16795C2.88757 5.45796 3.31863 4.81284 3.86203 4.26944C4.40543 3.72604 5.05055 3.29498 5.76054 3.0009C6.47053 2.70681 7.23149 2.55544 7.99998 2.55544C9.55201 2.55544 11.0405 3.17199 12.1379 4.26944C13.2354 5.36689 13.8519 6.85536 13.8519 8.40739C13.8519 9.95942 13.2354 11.4479 12.1379 12.5453C11.0405 13.6428 9.55201 14.2593 7.99998 14.2593ZM8.6502 8.40739V5.15631H7.34976V9.70782H10.6008V8.40739H8.6502ZM1.33331 4.03924L3.63183 1.74072L4.55188 2.66013L2.25207 4.95929L1.33331 4.03924ZM12.3675 1.74072L14.6666 4.03924L13.7472 4.95929L11.4481 2.66013L12.3681 1.74072H12.3675Z" fill="#242E40"/>
</svg>
