<svg width="14" height="14" viewBox="0 0 14 14" fill="none" xmlns="http://www.w3.org/2000/svg">
<path d="M6.99996 12.4769C6.32753 12.4769 5.66169 12.3444 5.04045 12.0871C4.4192 11.8298 3.85473 11.4526 3.37925 10.9771C2.90377 10.5016 2.5266 9.93716 2.26928 9.31592C2.01195 8.69467 1.87951 8.02883 1.87951 7.3564C1.87951 6.68398 2.01195 6.01813 2.26928 5.39689C2.5266 4.77565 2.90377 4.21118 3.37925 3.7357C3.85473 3.26022 4.4192 2.88305 5.04045 2.62572C5.66169 2.3684 6.32753 2.23595 6.99996 2.23595C8.35799 2.23595 9.66039 2.77543 10.6207 3.7357C11.5809 4.69597 12.1204 5.99838 12.1204 7.3564C12.1204 8.71443 11.5809 10.0168 10.6207 10.9771C9.66039 11.9374 8.35799 12.4769 6.99996 12.4769ZM7.5689 7.3564V4.51171H6.43102V8.49428H9.27572V7.3564H7.5689ZM1.16663 3.53427L3.17783 1.52307L3.98287 2.32755L1.97054 4.33932L1.16663 3.53427ZM10.8215 1.52307L12.8333 3.53427L12.0288 4.33932L10.017 2.32755L10.8221 1.52307H10.8215Z" fill="#242E40"/>
</svg>
