<svg width="14" height="14" viewBox="0 0 14 14" fill="none" xmlns="http://www.w3.org/2000/svg">
<path d="M9.14214 6.97907L6.66705 4.50399C6.43928 4.27622 6.43928 3.90693 6.66705 3.67916C6.89483 3.45138 7.26412 3.45138 7.49189 3.67916L10.0847 6.27197C10.4752 6.66249 10.4752 7.29566 10.0847 7.68618L7.49189 10.279C7.26412 10.5068 6.89483 10.5068 6.66706 10.279C6.43928 10.0512 6.43928 9.68193 6.66706 9.45416L9.14214 6.97907Z" fill="#D0D5DD"/>
<path d="M6.096 6.97907L3.62091 4.50399C3.39314 4.27622 3.39314 3.90693 3.62091 3.67916C3.84868 3.45138 4.21797 3.45138 4.44575 3.67916L7.03856 6.27197C7.42908 6.66249 7.42908 7.29566 7.03856 7.68618L4.44575 10.279C4.21797 10.5068 3.84868 10.5068 3.62091 10.279C3.39314 10.0512 3.39314 9.68193 3.62091 9.45416L6.096 6.97907Z" fill="#D0D5DD"/>
</svg>
