<svg width="16" height="16" viewBox="0 0 16 16" fill="none" xmlns="http://www.w3.org/2000/svg">
<path d="M11.3334 2.66671H14C14.1769 2.66671 14.3464 2.73695 14.4714 2.86197C14.5965 2.98699 14.6667 3.15656 14.6667 3.33337V14C14.6667 14.1769 14.5965 14.3464 14.4714 14.4714C14.3464 14.5965 14.1769 14.6667 14 14.6667H2.00004C1.82323 14.6667 1.65366 14.5965 1.52864 14.4714C1.40361 14.3464 1.33337 14.1769 1.33337 14V3.33337C1.33337 3.15656 1.40361 2.98699 1.52864 2.86197C1.65366 2.73695 1.82323 2.66671 2.00004 2.66671H4.66671V1.33337H6.00004V2.66671H10V1.33337H11.3334V2.66671ZM2.66671 6.66671V13.3334H13.3334V6.66671H2.66671ZM4.00004 8.00004H5.33337V9.33337H4.00004V8.00004ZM7.33337 8.00004H8.66671V9.33337H7.33337V8.00004ZM10.6667 8.00004H12V9.33337H10.6667V8.00004Z" fill="#242E40"/>
</svg>
