<svg width="14" height="14" viewBox="0 0 14 14" fill="none" xmlns="http://www.w3.org/2000/svg">
<path d="M4.85786 6.97907L7.33295 4.50399C7.56072 4.27622 7.56072 3.90693 7.33295 3.67916C7.10517 3.45138 6.73588 3.45138 6.50811 3.67916L3.9153 6.27197C3.52478 6.66249 3.52478 7.29566 3.9153 7.68618L6.50811 10.279C6.73588 10.5068 7.10517 10.5068 7.33295 10.279C7.56072 10.0512 7.56072 9.68193 7.33294 9.45416L4.85786 6.97907Z" fill="#D0D5DD"/>
<path d="M7.904 6.97907L10.3791 4.50399C10.6069 4.27622 10.6069 3.90693 10.3791 3.67916C10.1513 3.45138 9.78203 3.45138 9.55425 3.67916L6.96144 6.27197C6.57092 6.66249 6.57092 7.29566 6.96144 7.68618L9.55425 10.279C9.78203 10.5068 10.1513 10.5068 10.3791 10.279C10.6069 10.0512 10.6069 9.68193 10.3791 9.45416L7.904 6.97907Z" fill="#D0D5DD"/>
</svg>
