<svg width="14" height="14" viewBox="0 0 14 14" fill="none" xmlns="http://www.w3.org/2000/svg">
<path d="M9.91663 2.33329H12.25C12.4047 2.33329 12.553 2.39475 12.6624 2.50415C12.7718 2.61354 12.8333 2.76192 12.8333 2.91663V12.25C12.8333 12.4047 12.7718 12.553 12.6624 12.6624C12.553 12.7718 12.4047 12.8333 12.25 12.8333H1.74996C1.59525 12.8333 1.44688 12.7718 1.33748 12.6624C1.22808 12.553 1.16663 12.4047 1.16663 12.25V2.91663C1.16663 2.76192 1.22808 2.61354 1.33748 2.50415C1.44688 2.39475 1.59525 2.33329 1.74996 2.33329H4.08329V1.16663H5.24996V2.33329H8.74996V1.16663H9.91663V2.33329ZM2.33329 5.83329V11.6666H11.6666V5.83329H2.33329ZM3.49996 6.99996H4.66663V8.16663H3.49996V6.99996ZM6.41663 6.99996H7.58329V8.16663H6.41663V6.99996ZM9.33329 6.99996H10.5V8.16663H9.33329V6.99996Z" fill="#242E40"/>
</svg>
