<svg width="16" height="16" viewBox="0 0 16 16" fill="none" xmlns="http://www.w3.org/2000/svg">
<path d="M3.65552 1.42328V14.5771H13.5662V4.34888L10.6406 1.42328H3.65552Z" fill="#FAFAFA"/>
<path d="M13.6296 4.2852L12.1668 2.82242L10.6777 1.33331H3.56567V14.6666H13.6559V4.31148L13.6296 4.2852ZM10.7303 1.63979L13.3494 4.25891H10.7303V1.63979ZM3.74522 14.4871V1.51286H10.5508V4.34867C10.5508 4.39827 10.591 4.43842 10.6405 4.43842H13.4764V14.4871H3.74522Z" fill="#D0D5DD"/>
<path d="M11.0356 6.39368V6.75653V7.11943H12.6478V6.75653V6.39368H11.0356Z" fill="#D0D5DD"/>
<path d="M9.06079 6.39368V6.75653V7.11943H10.6729V6.75653V6.39368H9.06079Z" fill="#D0D5DD"/>
<path d="M8.07794 4.66663H2.61234C2.27416 4.66663 2 4.94078 2 5.27897V10.7446C2 11.0828 2.27416 11.3569 2.61234 11.3569H8.07794C8.41613 11.3569 8.69029 11.0828 8.69029 10.7446V5.27897C8.69029 4.94078 8.41613 4.66663 8.07794 4.66663Z" fill="#D0D5DD"/>
<path d="M11.0356 7.48273V7.84558V8.20844H12.6478V7.84558V7.48273H11.0356Z" fill="#D0D5DD"/>
<path d="M9.06079 7.48273V7.84558V8.20844H10.6729V7.84558V7.48273H9.06079Z" fill="#D0D5DD"/>
<path d="M11.0356 8.57056V8.93341V9.29627H12.6478V8.93341V8.57056H11.0356Z" fill="#D0D5DD"/>
<path d="M9.06079 8.57056V8.93341V9.29627H10.6729V8.93341V8.57056H9.06079Z" fill="#D0D5DD"/>
<path d="M6.88069 9.94672L5.73234 8.01045L6.8232 6.1463H6.06781L5.35311 7.36805L4.63025 6.1463H3.87486L4.97813 8.00874L3.84351 9.94672H4.5989L5.3581 8.64984L6.12533 9.94672H6.88069Z" fill="white"/>
</svg>
