<svg width="16" height="16" viewBox="0 0 16 16" fill="none" xmlns="http://www.w3.org/2000/svg">
<path d="M1.33331 7.99999C1.91254 4.84505 4.67743 2.45419 7.99998 2.45419C11.3225 2.45419 14.0868 4.84505 14.6666 7.99999C14.0874 11.1549 11.3225 13.5458 7.99998 13.5458C4.67743 13.5458 1.91316 11.1549 1.33331 7.99999ZM7.99998 11.081C8.81711 11.081 9.60078 10.7564 10.1786 10.1786C10.7564 9.60079 11.081 8.81712 11.081 7.99999C11.081 7.18286 10.7564 6.3992 10.1786 5.8214C9.60078 5.2436 8.81711 4.91899 7.99998 4.91899C7.18285 4.91899 6.39918 5.2436 5.82138 5.8214C5.24358 6.3992 4.91898 7.18286 4.91898 7.99999C4.91898 8.81712 5.24358 9.60079 5.82138 10.1786C6.39918 10.7564 7.18285 11.081 7.99998 11.081ZM7.99998 9.84859C7.5097 9.84859 7.0395 9.65383 6.69282 9.30715C6.34614 8.96047 6.15138 8.49027 6.15138 7.99999C6.15138 7.50971 6.34614 7.03951 6.69282 6.69283C7.0395 6.34615 7.5097 6.15139 7.99998 6.15139C8.49026 6.15139 8.96046 6.34615 9.30714 6.69283C9.65382 7.03951 9.84858 7.50971 9.84858 7.99999C9.84858 8.49027 9.65382 8.96047 9.30714 9.30715C8.96046 9.65383 8.49026 9.84859 7.99998 9.84859Z" fill="#242E40"/>
</svg>
