<svg xmlns="http://www.w3.org/2000/svg" fill="none" viewBox="0 0 24 24">
  <path fill="#000" d="M12 21.3889c-1.1527 0-2.29418-.227-3.35916-.6681-1.06499-.4412-2.03266-1.0877-2.84777-1.9029-.8151-.8151-1.46168-1.7827-1.90281-2.8477-.44113-1.065-.66818-2.2064-.66818-3.3592 0-1.1527.22705-2.2942.66818-3.35914.44113-1.06499 1.08771-2.03266 1.90281-2.84776.81511-.81511 1.78278-1.46168 2.84777-1.90282C9.70582 4.06015 10.8473 3.8331 12 3.8331c2.328 0 4.5607.92482 6.2069 2.571 1.6462 1.64618 2.571 3.8789 2.571 6.2069 0 2.3281-.9248 4.5608-2.571 6.2069-1.6462 1.6462-3.8789 2.571-6.2069 2.571Zm.9753-8.7779V7.7344h-1.9506v6.8273h4.8766V12.611h-2.926ZM2 6.05879l3.44777-3.44777 1.38008 1.37911-3.44972 3.44875L2 6.05879Zm16.5513-3.44777L22 6.05879l-1.3791 1.38009-3.4488-3.44875 1.3801-1.37911h-.0009Z"/>
</svg>
