<svg xmlns="http://www.w3.org/2000/svg" fill="none" viewBox="0 0 24 24">
  <path fill="#000" d="M18.3353 16.8055c-.0279-.545-.1783-1.0767-.4399-1.5556-.2617-.4789-.628-.8927-1.0716-1.2106-.4436-.3179-.9531-.5317-1.4907-.6256-.5376-.0938-1.0894-.0653-1.6145.0834-.191-.8751-.6986-1.6489-1.4253-2.1725-.7267-.5237-1.6212-.7605-2.51184-.6647-.8906.0957-1.71445.517-2.31329 1.1832-.59884.6661-.93045 1.53-.93114 2.4257 0 .9806.38859 1.8694 1.01868 2.5222-1.21374-.2936-2.33129-.8951-3.24476-1.7465-.91346-.8515-1.59199-1.924-1.97006-3.1142-.37807-1.1901-.44291-2.45759-.18828-3.68009.25464-1.2225.82016-2.35871 1.64196-3.29891.8218-.94021 1.87212-1.65266 3.04956-2.06858 1.17744-.41591 2.44223-.52123 3.67227-.30579 1.23.21544 2.3837.74436 3.3497 1.53569.966.79134 1.7116 1.81836 2.1649 2.9819 1.2681-.25257 2.5848-.00342 3.6729.69503 1.0881.69845 1.8629 1.79175 2.1613 3.04985.2984 1.2581.0972 2.5829-.5614 3.6956-.6585 1.1128-1.7229 1.9267-2.9694 2.2705h.0009Zm-8.1666-.7209c-.48161 0-.94348-.1913-1.28401-.5318-.34053-.3405-.53184-.8024-.53184-1.284 0-.4816.19131-.9434.53184-1.2839.34053-.3406.8024-.5319 1.28401-.5319.4816 0 .9434.1913 1.2839.5319.3406.3405.5319.8023.5319 1.2839 0 .4816-.1913.9435-.5319 1.284-.3405.3405-.8023.5318-1.2839.5318Zm4.5395 2.7238c-.4816 0-.9434-.1913-1.284-.5319-.3405-.3405-.5318-.8024-.5318-1.2839 0-.4816.1913-.9435.5318-1.284.3406-.3406.8024-.5319 1.284-.5319.4816 0 .9435.1913 1.284.5319.3405.3405.5318.8024.5318 1.284 0 .4815-.1913.9434-.5318 1.2839-.3405.3406-.8024.5319-1.284.5319Zm-4.5395 2.7237c-.48161 0-.94348-.1913-1.28401-.5318-.34053-.3406-.53184-.8024-.53184-1.284 0-.4816.19131-.9435.53184-1.284s.8024-.5318 1.28401-.5318c.4816 0 .9434.1913 1.2839.5318.3406.3405.5319.8024.5319 1.284 0 .4816-.1913.9434-.5319 1.284-.3405.3405-.8023.5318-1.2839.5318Z"/>
</svg>
