<svg xmlns="http://www.w3.org/2000/svg" fill="none" viewBox="0 0 24 24">
  <path fill="#000" d="m5.51272 12.6486 1.94591 1.9459 1.29727-1.2972-1.94499-1.9459L8.7559 9.40545 11.3514 12l1.2972-1.2973-2.5936-2.59544L12 6.16135l1.9459 1.94591 1.2982-1.29727-1.9468-1.94591 2.5954-2.59546c.1721-.172.4054-.26862.6487-.26862.2432 0 .4766.09662.6486.26862l4.5414 4.54137c.172.17205.2686.40536.2686.64864 0 .24327-.0966.47659-.2686.64863L8.10726 21.7314c-.17204.172-.40536.2686-.64863.2686-.24328 0-.47659-.0966-.64864-.2686L2.26862 17.19C2.09662 17.018 2 16.7846 2 16.5414c0-.2433.09662-.4766.26862-.6487l3.2441-3.2441Z"/>
</svg>
