<svg xmlns="http://www.w3.org/2000/svg" fill="none" viewBox="0 0 24 24">
  <path fill="#000" d="M9 3h6l2 2h4c.2652 0 .5196.10536.7071.29289C21.8946 5.48043 22 5.73478 22 6v14c0 .2652-.1054.5196-.2929.7071S21.2652 21 21 21H3c-.26522 0-.51957-.1054-.70711-.2929C2.10536 20.5196 2 20.2652 2 20V6c0-.26522.10536-.51957.29289-.70711C2.48043 5.10536 2.73478 5 3 5h4l2-2Zm3 16c1.5913 0 3.1174-.6321 4.2426-1.7574C17.3679 16.1174 18 14.5913 18 13c0-1.5913-.6321-3.11742-1.7574-4.24264C15.1174 7.63214 13.5913 7 12 7c-1.5913 0-3.11742.63214-4.24264 1.75736C6.63214 9.88258 6 11.4087 6 13s.63214 3.1174 1.75736 4.2426C8.88258 18.3679 10.4087 19 12 19Zm0-2c-1.0609 0-2.07828-.4214-2.82843-1.1716C8.42143 15.0783 8 14.0609 8 13c0-1.0609.42143-2.0783 1.17157-2.8284C9.92172 9.42143 10.9391 9 12 9s2.0783.42143 2.8284 1.1716C15.5786 10.9217 16 11.9391 16 13c0 1.0609-.4214 2.0783-1.1716 2.8284C14.0783 16.5786 13.0609 17 12 17Z"/>
</svg>
