<svg xmlns="http://www.w3.org/2000/svg" fill="none" viewBox="0 0 24 24">
  <path fill="#000" d="M9.879 12 7.562 9.68298c-.85463.36242-1.8087.41632-2.69869.15238-.89-.26389-1.6605-.82911-2.17945-1.59879-.51896-.76969-.75405-1.69591-.665-2.61992.08906-.92401.49672-1.78828 1.15313-2.44468.6564-.6564 1.52067-1.06407 2.44468-1.15312.92401-.08906 1.85023.14603 2.61991.66499.76969.51895 1.33491 1.28946 1.5988 2.17945.26392.88999.21002 1.84406-.15238 2.69869L12 9.87998l6.374-6.375c.1857-.1858.4062-.33319.6489-.43375.2427-.10056.5029-.15232.7656-.15232.2627 0 .5229.05176.7656.15232.2427.10056.4632.24795.6489.43375l.707.707L9.683 16.438c.3624.8546.4163 1.8087.15238 2.6987-.26389.89-.82911 1.6605-1.5988 2.1794-.76968.519-1.6959.7541-2.61991.665-.92401-.089-1.78828-.4967-2.44468-1.1531-.65641-.6564-1.06407-1.5207-1.15313-2.4447-.08905-.924.14604-1.8502.665-2.6199.51895-.7697 1.28945-1.3349 2.17945-1.5988.88999-.2639 1.84406-.21 2.69869.1524L9.88 12h-.001ZM6 7.99998c.53043 0 1.03914-.21071 1.41421-.58578C7.78929 7.03912 8 6.53042 8 5.99998c0-.53043-.21071-1.03914-.58579-1.41421C7.03914 4.2107 6.53043 3.99998 6 3.99998s-1.03914.21072-1.41421.58579C4.21071 4.96084 4 5.46955 4 5.99998c0 .53044.21071 1.03914.58579 1.41422.37507.37507.88378.58578 1.41421.58578ZM6 20c.53043 0 1.03914-.2107 1.41421-.5858C7.78929 19.0391 8 18.5304 8 18c0-.5305-.21071-1.0392-.58579-1.4142C7.03914 16.2107 6.53043 16 6 16s-1.03914.2107-1.41421.5858C4.21071 16.9608 4 17.4695 4 18c0 .5304.21071 1.0391.58579 1.4142C4.96086 19.7893 5.46957 20 6 20Zm9.535-6.587 6.375 6.376-.707.707c-.1857.1858-.4062.3332-.6489.4337-.2427.1006-.5029.1524-.7656.1524-.2627 0-.5229-.0518-.7656-.1524-.2427-.1005-.4632-.2479-.6489-.4337l-4.96-4.961 2.12-2.122h.001ZM16 11h2v2h-2v-2Zm4 0h2v2h-2v-2ZM6 11h2v2H6v-2Zm-4 0h2v2H2v-2Z"/>
</svg>
