<svg xmlns="http://www.w3.org/2000/svg" fill="none" viewBox="0 0 24 24">
  <path fill="#000" d="m19.4419 17.5042.372.4958c.0519.0691.0834.1513.0912.2373.0077.086-.0086.1725-.0472.2498-.0387.0772-.098.1422-.1715.1876-.0735.0454-.1582.0695-.2445.0695H4.55813c-.08637 0-.17104-.0241-.24452-.0695-.07348-.0454-.13286-.1104-.17149-.1876-.03863-.0773-.05498-.1638-.04722-.2498.00775-.086.03931-.1682.09114-.2373l.37209-.4958V9.44186c0-1.9737.78406-3.86657 2.17967-5.26219C8.13342 2.78405 10.0263 2 12 2s3.8666.78405 5.2622 2.17967 2.1797 3.28849 2.1797 5.26219v8.06234Zm-9.76749 2.1702h4.65119c0 .6168-.245 1.2083-.6812 1.6445C13.2083 21.755 12.6168 22 12 22s-1.2083-.245-1.6444-.6811c-.43617-.4362-.68119-1.0277-.68119-1.6445Z"/>
</svg>
