<svg xmlns="http://www.w3.org/2000/svg" fill="none" viewBox="0 0 24 24">
  <path fill="#000" d="M12 2c5.52 0 10 4.48 10 10s-4.48 10-10 10S2 17.52 2 12 6.48 2 12 2ZM6.023 15.416C7.491 17.606 9.695 19 12.16 19c2.464 0 4.669-1.393 6.136-3.584-1.6643-1.5554-3.8581-2.4192-6.136-2.416-2.27829-.0034-4.47249.8604-6.137 2.416ZM12 11c.7956 0 1.5587-.3161 2.1213-.8787C14.6839 9.55871 15 8.79565 15 8c0-.79565-.3161-1.55871-.8787-2.12132C13.5587 5.31607 12.7956 5 12 5c-.7956 0-1.5587.31607-2.12132.87868C9.31607 6.44129 9 7.20435 9 8s.31607 1.55871.87868 2.1213C10.4413 10.6839 11.2044 11 12 11Z"/>
</svg>
