<svg xmlns="http://www.w3.org/2000/svg" fill="none" viewBox="0 0 24 24">
  <path fill="#000" d="M17.9583 18.8336H4.76249c-.08401 0-.16635-.0234-.23781-.0676-.07146-.0441-.12921-.1073-.16678-.1825-.03757-.0751-.05347-.1592-.04593-.2429.00755-.0837.03824-.1636.08864-.2308l.36188-.4822V9.78667c0-1.20323.29312-2.33772.81332-3.33559L2.40396 3.28014 3.6841 2l17.912 17.9129-1.2802 1.2792-2.3576-2.3585Zm1.2792-3.8124L7.98228 3.76596c1.08993-.72742 2.35692-1.14529 3.66572-1.20903 1.3088-.06373 2.6104.22906 3.7658.84713 1.1555.61808 2.1214 1.53825 2.7949 2.66233.6734 1.12409 1.029 2.40991 1.0288 3.72028v5.23453Zm-9.49921 4.7171h4.52341c0 .5998-.2382 1.1751-.6624 1.5993C13.1751 21.7617 12.5999 22 12 22c-.5998 0-1.1751-.2383-1.5993-.6624-.42412-.4242-.66241-.9995-.66241-1.5993Z"/>
</svg>
