<svg xmlns="http://www.w3.org/2000/svg" fill="none" viewBox="0 0 24 24">
  <path fill="#000" d="m12.002 12.517 6 9H6.00197l6.00003-9Zm-1.06-2.44c-.1474-.13732-.2656-.30293-.3476-.48692-.082-.184-.1261-.38263-.1296-.58404-.0036-.2014.0335-.40146.1089-.58824.0755-.18677.1878-.35644.3302-.49888s.3121-.25472.4989-.33017c.1868-.07544.3868-.11249.5882-.10893.2014.00355.4.04763.584.12962.184.08198.3496.20019.487.34756.2649.28435.4092.66044.4023 1.04904-.0068.38861-.1643.75938-.4391 1.03416-.2748.2749-.6456.4323-1.0342.4391-.3886.0069-.7647-.1373-1.049-.4023ZM5.28297 2.3l1.415 1.415c-1.40634 1.4065-2.1964 3.31402-2.1964 5.303 0 1.989.79006 3.8965 2.1964 5.303l-1.415 1.415c-.8823-.8822-1.58219-1.9295-2.05969-3.0822C2.74577 11.5011 2.5 10.2657 2.5 9.018c0-1.24767.24577-2.48313.72328-3.63581C3.70078 4.22951 4.40067 3.18217 5.28297 2.3Zm13.43603 0c.8823.88217 1.5822 1.92951 2.0597 3.08219.4775 1.15268.7232 2.38814.7232 3.63581 0 1.2477-.2457 2.4831-.7232 3.6358-.4775 1.1527-1.1774 2.2-2.0597 3.0822l-1.415-1.415c1.4063-1.4065 2.1964-3.314 2.1964-5.303 0-1.98898-.7901-3.8965-2.1964-5.303L18.719 2.3ZM8.11197 5.128l1.414 1.414c-.32504.32501-.58288.71086-.7588 1.13552-.17591.42467-.26645.87982-.26645 1.33948 0 .45966.09054.91481.26645 1.3395.17592.4246.43376.8105.7588 1.1355l-1.414 1.414c-1.0314-1.0314-1.61082-2.4304-1.61082-3.889 0-1.45865.57942-2.85756 1.61082-3.889Zm7.77803 0c1.0314 1.03144 1.6108 2.43035 1.6108 3.889 0 1.4586-.5794 2.8576-1.6108 3.889l-1.414-1.414c.325-.325.5829-.7109.7588-1.1355.1759-.42469.2664-.87984.2664-1.3395 0-.45966-.0905-.91481-.2664-1.33948-.1759-.42466-.4338-.81051-.7588-1.13552l1.414-1.414Z"/>
</svg>
