<svg xmlns="http://www.w3.org/2000/svg" fill="none" viewBox="0 0 24 24">
  <path fill="#000" d="M13.9048 4.85714h1.9047c1.263 0 2.4742.5017 3.3672 1.39473.893.89303 1.3947 2.10424 1.3947 3.36718v3.80955h-1.9047V9.61905c0-.75776-.301-1.48449-.8369-2.02031-.5358-.53582-1.2625-.83684-2.0203-.83684h-1.9047v2.85715L9.14287 5.80952 13.9048 2v2.85714Zm.9524 6.66666v9.5238c0 .2526-.1004.4948-.279.6735-.1786.1786-.4208.2789-.6734.2789H4.38097c-.25259 0-.49483-.1003-.67344-.2789-.1786-.1787-.27894-.4209-.27894-.6735v-9.5238c0-.2526.10034-.4948.27894-.6734.17861-.1786.42085-.279.67344-.279h9.52383c.2526 0 .4948.1004.6734.279.1786.1786.279.4208.279.6734Z"/>
</svg>
