<svg xmlns="http://www.w3.org/2000/svg" fill="none" viewBox="0 0 24 24">
  <path fill="#000" d="m12.0006 13.7227-2.31705 2.317c.36245.8547.41625 1.8087.15239 2.6987-.26389.89-.82912 1.6605-1.5988 2.1795-.76969.5189-1.69591.754-2.61992.665-.92401-.0891-1.78828-.4968-2.44468-1.1532-.6564-.6564-1.06407-1.5206-1.15312-2.4446-.08906-.9241.14604-1.8503.66499-2.62.51896-.7696 1.28946-1.3349 2.17945-1.5988.89-.2638 1.84406-.21 2.69869.1524l2.318-2.317-5.67-5.66697c-.1858-.18573-.33319-.40624-.43375-.64895-.10056-.2427-.15232-.50284-.15232-.76555s.05176-.52285.15232-.76556c.10056-.2427.24795-.46321.43375-.64894l.708-.707 7.08205 7.083 7.081-7.082.708.707c.1858.18573.3331.40624.4337.64894.1006.24271.1523.50285.1523.76556s-.0517.52285-.1523.76555c-.1006.24271-.2479.46322-.4337.64895l-5.669 5.66597 2.317 2.317c.8546-.3624 1.8087-.4162 2.6986-.1524.89.2639 1.6605.8292 2.1795 1.5988.519.7697.754 1.6959.665 2.62-.0891.924-.4967 1.7882-1.1531 2.4446-.6564.6564-1.5207 1.0641-2.4447 1.1532-.924.089-1.8502-.1461-2.6199-.665-.7697-.519-1.3349-1.2895-1.5988-2.1795-.2639-.89-.21-1.844.1524-2.6987l-2.316-2.318v.001Zm-6.00005 5.879c.53044 0 1.03915-.2107 1.41422-.5858.37507-.375.58578-.8837.58578-1.4142 0-.5304-.21071-1.0391-.58578-1.4142-.37507-.3751-.88378-.5858-1.41422-.5858-.53043 0-1.03914.2107-1.41421.5858s-.58579.8838-.58579 1.4142c0 .5305.21072 1.0392.58579 1.4142.37507.3751.88378.5858 1.41421.5858Zm12.00005 0c.5304 0 1.0391-.2107 1.4142-.5858.375-.375.5858-.8837.5858-1.4142 0-.5304-.2108-1.0391-.5858-1.4142-.3751-.3751-.8838-.5858-1.4142-.5858-.5305 0-1.0392.2107-1.4143.5858-.375.3751-.5857.8838-.5857 1.4142 0 .5305.2107 1.0392.5857 1.4142.3751.3751.8838.5858 1.4143.5858Z"/>
</svg>
