<svg xmlns="http://www.w3.org/2000/svg" fill="none" viewBox="0 0 24 24">
  <path fill="#000" d="M5.21821 2H18.7817c.257 0 .5034.10207.6851.28376.1817.18169.2837.42811.2837.68506V21.515c.0001.0866-.023.1717-.0669.2463-.0439.0747-.1071.1362-.1829.1781-.0758.042-.1614.0628-.248.0604-.0866-.0024-.1709-.028-.2443-.074L12 17.5302l-7.00849 4.3946c-.07328.046-.15755.0716-.24405.074-.0865.0025-.17208-.0183-.24783-.0601-.07575-.0419-.13892-.1032-.18292-.1777-.04401-.0745-.06726-.1595-.06732-.246V2.96882c0-.25695.10207-.50337.28376-.68506C4.71484 2.10207 4.96126 2 5.21821 2Z"/>
</svg>
