<svg xmlns="http://www.w3.org/2000/svg" fill="none" viewBox="0 0 24 24">
  <path fill="#000" d="M11.019 14.381V22H3.4c0-2.0207.80272-3.9586 2.23157-5.3875 1.42885-1.4288 3.36678-2.2315 5.38743-2.2315Zm0-.9524c-3.15709 0-5.71424-2.5572-5.71424-5.71431C5.30476 4.55714 7.86191 2 11.019 2c3.1572 0 5.7143 2.55714 5.7143 5.71429 0 3.15711-2.5571 5.71431-5.7143 5.71431Zm8.5715 3.8095h.9524V22h-7.6191v-4.7619h.9524v-.9524c0-.7577.301-1.4845.8368-2.0203.5358-.5358 1.2626-.8368 2.0203-.8368.7578 0 1.4845.301 2.0203.8368.5359.5358.8369 1.2626.8369 2.0203v.9524Zm-1.9048 0v-.9524c0-.2526-.1003-.4948-.2789-.6734-.1786-.1786-.4209-.279-.6735-.279s-.4948.1004-.6734.279c-.1786.1786-.2789.4208-.2789.6734v.9524h1.9047Z"/>
</svg>
