<svg xmlns="http://www.w3.org/2000/svg" fill="none" viewBox="0 0 24 24">
  <path fill="#000" fill-rule="evenodd" d="M11.9988 12.9284c2.5246 0 4.9558-.142 7.307-.457.1883-.0275.3765-.0537.5647-.0812.614-.0919 1.1295-.494 1.1295-1.0955 0-.568-.4503-1.0453-1.0286-1.0954v-.0036c0-3.02386-1.7926-5.642-4.3985-6.9105l-.3346 1.83652-.3937 2.16826c-.0529.27446-.3248.45942-.6066.41288-.283-.05131-.4737-.31503-.4257-.5883l.4503-2.47256.363-1.9988C14.5038 2.27088 14.1408 2 13.7151 2h-3.4314c-.42574 0-.785.27088-.91049.6432l.36295 1.9988.45034 2.47256c.0492.27446-.1428.53818-.42573.5883-.28299.04774-.55489-.13842-.60657-.41288l-.39371-2.16826-.33096-1.83652c-2.60834 1.2685-4.39727 3.88664-4.39727 6.9105v.0036C3.45031 10.2506 3 10.7267 3 11.2947c0 .6027.51675 1.0048 1.13315 1.0955.18455.0275.3728.0537.56104.0776 2.3512.3174 4.78483.4594 7.30701.4594l-.0024.0012Zm7.3169.5644c-2.4238.3175-4.8722.4499-7.3169.4499-2.44473 0-4.89313-.1324-7.31691-.4499.07013 1.9547.65946 3.7483 1.60437 5.1755.84402 1.2792 1.97348 2.2661 3.2715 2.8245.76404.3282 1.58344.5072 2.44104.5072.8575 0 1.6769-.179 2.4447-.5072 1.2943-.5584 2.4238-1.5453 3.2678-2.8245.9449-1.4272 1.5342-3.2208 1.6044-5.1755Z" clip-rule="evenodd"/>
</svg>
