<svg xmlns="http://www.w3.org/2000/svg" fill="none" viewBox="0 0 24 24">
  <path fill="#000" d="M11.091 17.0014v2.7279H9.27232v-2.7279c-1.32393-.0005-2.62264-.3622-3.75617-1.0462-1.13353-.684-2.05891-1.6644-2.67641-2.8355-.6175-1.1711-.9037-2.4885-.82776-3.81021.07594-1.32175.51114-2.59771 1.25869-3.69038.74756-1.09267 1.77913-1.96061 2.98355-2.5103 1.20441-.54969 2.536-.76027 3.85128-.60906 1.3152.15121 2.5643.65849 3.6125 1.46716 1.0483.80867 1.856 1.88808 2.3361 3.12189.6841-.13159 1.3882-.1188 2.067.03755.6789.15636 1.3177.45282 1.8753.87039.5577.41758 1.0219.94705 1.3631 1.55449.3411.60747.5515 1.27947.6178 1.97297.0663.6935-.013 1.3932-.2329 2.0542-.2199.6611-.5754 1.2689-1.0438 1.7846-.4685.5156-1.0395.9277-1.6765 1.2099-.637.2821-1.3259.4281-2.0225.4285H11.091Zm1.8186 1.8186h1.8187v2.728h-1.8187V18.82Z"/>
</svg>
