<svg xmlns="http://www.w3.org/2000/svg" fill="none" viewBox="0 0 24 24">
  <path fill="#000" d="M5 8c-.79565 0-1.55871-.31607-2.12132-.87868C2.31607 6.55871 2 5.79565 2 5s.31607-1.55871.87868-2.12132C3.44129 2.31607 4.20435 2 5 2s1.55871.31607 2.12132.87868C7.68393 3.44129 8 4.20435 8 5s-.31607 1.55871-.87868 2.12132C6.55871 7.68393 5.79565 8 5 8Zm14 0c-.7956 0-1.5587-.31607-2.1213-.87868C16.3161 6.55871 16 5.79565 16 5s.3161-1.55871.8787-2.12132C17.4413 2.31607 18.2044 2 19 2c.7956 0 1.5587.31607 2.1213.87868C21.6839 3.44129 22 4.20435 22 5s-.3161 1.55871-.8787 2.12132C20.5587 7.68393 19.7956 8 19 8Zm0 14c-.7956 0-1.5587-.3161-2.1213-.8787C16.3161 20.5587 16 19.7956 16 19c0-.7956.3161-1.5587.8787-2.1213C17.4413 16.3161 18.2044 16 19 16c.7956 0 1.5587.3161 2.1213.8787C21.6839 17.4413 22 18.2044 22 19c0 .7956-.3161 1.5587-.8787 2.1213C20.5587 21.6839 19.7956 22 19 22ZM5 22c-.79565 0-1.55871-.3161-2.12132-.8787C2.31607 20.5587 2 19.7956 2 19c0-.7956.31607-1.5587.87868-2.1213C3.44129 16.3161 4.20435 16 5 16s1.55871.3161 2.12132.8787C7.68393 17.4413 8 18.2044 8 19c0 .7956-.31607 1.5587-.87868 2.1213C6.55871 21.6839 5.79565 22 5 22ZM9 4h6v2H9V4Zm0 14h6v2H9v-2ZM4 9h2v6H4V9Zm14 0h2v6h-2V9Z"/>
</svg>
