<svg xmlns="http://www.w3.org/2000/svg" fill="none" viewBox="0 0 24 24">
  <path fill="#000" d="M12 2c5.523 0 10 4.477 10 10s-4.477 10-10 10S2 17.523 2 12 6.477 2 12 2ZM8 13l-3.938.001c.22279 1.7622 1.02543 3.4003 2.28151 4.6562C7.5996 18.9131 9.23775 19.7155 11 19.938V16c-.7956 0-1.55871-.3161-2.12132-.8787C8.31607 14.5587 8 13.7956 8 13Zm11.938.001L16 13c0 .7956-.3161 1.5587-.8787 2.1213C14.5587 15.6839 13.7956 16 13 16l.001 3.938c1.7621-.2227 3.4-1.0252 4.6559-2.2811s2.0584-2.8938 2.2811-4.6559ZM12 4c-1.9486.00003-3.83023.71119-5.29175 2C5.24673 7.28882 4.30579 9.0667 4.062 11H8c0-.2652.10536-.5196.29289-.7071C8.48043 10.1054 8.73478 10 9 10h6c.2652 0 .5196.1054.7071.2929S16 10.7348 16 11h3.938c-.2438-1.9333-1.1847-3.71118-2.6463-5C15.8302 4.71119 13.9486 4.00003 12 4Z"/>
</svg>
