<svg xmlns="http://www.w3.org/2000/svg" fill="none" viewBox="0 0 24 24">
  <path fill="#000" d="M11.5785 14.0149v7.3017H3.3c-.00009-1.0441.22199-2.0763.65149-3.0279.42951-.9516 1.05661-1.801 1.83963-2.4916.78302-.6906 1.70405-1.2067 2.70189-1.514.99783-.3073 2.04959-.3987 3.08549-.2682Zm-.9198-.9769c-3.04926 0-5.51902-2.4697-5.51902-5.51898C5.13968 4.46976 7.60944 2 10.6587 2c3.0493 0 5.519 2.46976 5.519 5.51902 0 3.04928-2.4697 5.51898-5.519 5.51898Zm5.3286 6.3598 3.2516-3.2516 1.3016 1.3006L15.9873 22l-3.2525-3.2525 1.3015-1.3007 1.9501 1.951h.0009Z"/>
</svg>
