<svg xmlns="http://www.w3.org/2000/svg" fill="none" viewBox="0 0 24 24">
  <path fill="#000" fill-rule="evenodd" d="M13.2033 22h-2.4896c-.166 0-.332-.1667-.4149-.3333l-.66395-2.5834c-.11611-.0466-.22573-.0867-.33249-.1258-.27473-.1005-.53051-.1941-.82933-.3742l-2.24066 1.3334c-.16598.0833-.33196.0833-.49793-.0834l-1.74274-1.75c-.16597-.1666-.16597-.3333-.08299-.5l1.41079-2.1666c-.16597-.3334-.33195-.75-.49792-1.1667l-2.48963-.5833C2.16598 13.5833 2 13.4167 2 13.25v-2.5c0-.1667.16598-.3333.33195-.4167l2.57261-.66663c.08299-.33334.24897-.75.41494-1.08334l-1.3278-2.25c-.08299-.16666-.08299-.41666.08299-.5l1.74274-1.75c.08298-.16666.33195-.16666.49792-.08333l2.24067 1.33333c.33195-.16666.74688-.33333 1.16182-.5l.58096-2.5C10.3817 2.16667 10.5477 2 10.7137 2h2.4896c.166 0 .332.16667.415.33333l.6639 2.58334c.1161.04664.2257.08675.3325.12582.2747.10054.5305.19414.8293.37418l2.2406-1.33334c.166-.08333.332-.08333.498.08334l1.7427 1.75c.166.16666.166.33333.083.5l-1.4032 2.15501.0158.05912c.1582.32495.3163.72204.4745 1.11913V9.75l2.5727.6667c.1659.0833.3319.25.3319.4166v2.5c0 .1667-.166.3334-.3319.4167l-2.5727.6667c-.0464.1166-.0864.2266-.1253.3339-.1001.2758-.1933.5327-.3726.8327l1.3278 2.25c.083.1667.083.3334-.083.5l-1.7427 1.75c-.166.1667-.332.1667-.4979.0834l-2.2407-1.5c-.3255.1634-.7307.3268-1.1375.4902l-.0446.0969-.5606 2.4129c-.083.1666-.249.3333-.415.3333ZM6.15076 4.83419l-.01153.00934.01015-.0102.00138.00086ZM12 15c1.6569 0 3-1.3431 3-3s-1.3431-3-3-3-3 1.3431-3 3 1.3431 3 3 3Z" clip-rule="evenodd"/>
</svg>
