<svg xmlns="http://www.w3.org/2000/svg" fill="none" viewBox="0 0 24 24">
  <path fill="#000" d="m16.536 17.5492 1.1057-1.4367c.1555-.2019.2512-.4433.2765-.6969.0252-.2535-.021-.509-.1336-.7376-.1125-.2286-.2868-.4211-.5032-.5557-.2163-.1346-.466-.2059-.7208-.2058h-1.8323V10.301c.0001-.2851-.089-.56302-.255-.7948-.1659-.23177-.4003-.40574-.6702-.49744-.2699-.09171-.5618-.09655-.8346-.01385-.2728.08271-.5128.2488-.6863.47494L6.49432 17c-1.55541-.6436-2.83957-1.8066-3.63369-3.2908-.79413-1.4842-1.04909-3.1979-.72146-4.84901.32762-1.65112 1.21758-3.13758 2.51825-4.20614C5.95809 3.5855 7.589 3.00095 9.27231 3c1.46589-.00009 2.89759.44252 4.10769 1.26986 1.2101.82733 2.1421 2.00082 2.6741 3.36679.6841-.13158 1.3882-.11879 2.0671.03756.6788.15635 1.3176.45282 1.8752.87039.5577.41757 1.0219.94705 1.3631 1.5545.3411.6074.5515 1.2794.6178 1.9729.0663.6935-.013 1.3932-.2329 2.0543-.2199.6611-.5754 1.2689-1.0438 1.7845-.4685.5157-1.0395.9278-1.6765 1.2099-.637.2822-1.3259.4281-2.0225.4285h-.4656Zm-3.6264-1.8141h2.728l-4.5466 5.9106v-4.0919H8.36299l4.54661-5.9152v4.0965Z"/>
</svg>
