<svg xmlns="http://www.w3.org/2000/svg" fill="none" viewBox="0 0 24 24">
  <path fill="#000" d="M7.29101 20.824 2.00001 22l1.176-5.291c-.77447-1.4486-1.17847-3.0664-1.176-4.709 0-5.523 4.477-10 9.99999-10 5.523 0 10 4.477 10 10s-4.477 10-10 10c-1.6426.0025-3.26037-.4015-4.70899-1.176Zm.29-2.113.653.35c1.15855.6191 2.45239.9417 3.76599.939 1.5823 0 3.129-.4692 4.4446-1.3482 1.3156-.8791 2.3409-2.1285 2.9464-3.5903.6055-1.4618.764-3.0704.4553-4.6222-.3087-1.55187-1.0706-2.97733-2.1894-4.09615-1.1189-1.11882-2.5443-1.88075-4.0962-2.18943-1.5518-.30868-3.1603-.15026-4.62216.45524-1.4618.60551-2.71123 1.63088-3.59029 2.94648C4.4692 8.87103 4.00001 10.4177 4.00001 12c0 1.334.325 2.618.94 3.766l.349.653-.655 2.947 2.947-.655Z"/>
</svg>
