<svg xmlns="http://www.w3.org/2000/svg" fill="none" viewBox="0 0 24 24">
  <path fill="#000" d="M12.4762 14.621v1.9904c-.862-.3047-1.7845-.3982-2.69011-.2726-.90559.1257-1.76782.4668-2.51426.9947-.74645.528-1.35532 1.2273-1.7755 2.0393-.42017.812-.63937 1.7129-.6392 2.6272l-1.90476-.001c-.0003-1.1629.26564-2.3105.77743-3.3548.51179-1.0443 1.25584-1.9576 2.17516-2.6699.91931-.7123 1.98948-1.2046 3.12851-1.4394 1.13903-.2348 2.31663-.2047 3.44273.0861Zm-1.9048-1.1924c-3.15713 0-5.71427-2.5572-5.71427-5.71431C4.85713 4.55714 7.41427 2 10.5714 2c3.1572 0 5.7143 2.55714 5.7143 5.71429 0 3.15711-2.5571 5.71431-5.7143 5.71431Zm0-1.9048c2.1048 0 3.8095-1.70475 3.8095-3.80951 0-2.10477-1.7047-3.80953-3.8095-3.80953-2.10474 0-3.80951 1.70476-3.80951 3.80953 0 2.10476 1.70477 3.80951 3.80951 3.80951Zm5.7143 5.7143V14.381h1.9048v2.8571h2.8571v1.9048h-2.8571V22h-1.9048v-2.8571h-2.8571v-1.9048h2.8571Z"/>
</svg>
