<svg xmlns="http://www.w3.org/2000/svg" fill="none" viewBox="0 0 24 24">
  <path fill="#000" d="M7.71429 18.6667H2.95238c-.25259 0-.49483-.1004-.67343-.279C2.10034 18.2091 2 17.9669 2 17.7143V6.28572c0-.25259.10034-.49483.27895-.67344.1786-.1786.42084-.27894.67343-.27894H9.2619L8.15048 7.2381H3.90476v9.5238h3.80953v1.9048Zm4.16671 0 1.1114-1.9048h4.2457V7.2381h-3.8095V5.33334h4.7619c.2526 0 .4948.10034.6734.27894.1786.17861.279.42085.279.67344V17.7143c0 .2526-.1004.4948-.279.6734-.1786.1786-.4208.279-.6734.279H11.881Zm8.2142-9.52384H22v5.71424h-1.9048V9.14286Zm-8.5714 1.90474h2.8572l-4.76195 7.6191v-5.7143H6.7619l4.7619-7.61906v5.71426Z"/>
</svg>
