<svg xmlns="http://www.w3.org/2000/svg" fill="none" viewBox="0 0 24 24">
  <path fill="#000" d="m9.828 5-2 2H4v12h16V7h-3.828l-2-2H9.828ZM9 3h6l2 2h4c.2652 0 .5196.10536.7071.29289C21.8946 5.48043 22 5.73478 22 6v14c0 .2652-.1054.5196-.2929.7071S21.2652 21 21 21H3c-.26522 0-.51957-.1054-.70711-.2929C2.10536 20.5196 2 20.2652 2 20V6c0-.26522.10536-.51957.29289-.70711C2.48043 5.10536 2.73478 5 3 5h4l2-2Zm3 15c-1.4587 0-2.85764-.5795-3.88909-1.6109C7.07946 15.3576 6.5 13.9587 6.5 12.5c0-1.4587.57946-2.85764 1.61091-3.88909S10.5413 7 12 7c1.4587 0 2.8576.57946 3.8891 1.61091C16.9205 9.64236 17.5 11.0413 17.5 12.5c0 1.4587-.5795 2.8576-1.6109 3.8891C14.8576 17.4205 13.4587 18 12 18Zm0-2c.9283 0 1.8185-.3687 2.4749-1.0251.6564-.6564 1.0251-1.5466 1.0251-2.4749 0-.9283-.3687-1.8185-1.0251-2.4749C13.8185 9.36875 12.9283 9 12 9c-.9283 0-1.8185.36875-2.47487 1.0251C8.86875 10.6815 8.5 11.5717 8.5 12.5c0 .9283.36875 1.8185 1.02513 2.4749C10.1815 15.6313 11.0717 16 12 16Z"/>
</svg>
