<svg xmlns="http://www.w3.org/2000/svg" fill="none" viewBox="0 0 24 24">
  <path fill="#000" d="m8.328 11.964 4.243-4.243c.3905-.39046.3905-1.02353 0-1.414-.3905-.39046-1.0235-.39046-1.414 0l-4.94989 4.9499c-.39053.3905-.39053 1.0237 0 1.4142L11.157 17.621c.3905.3905 1.0235.3905 1.414 0 .3905-.3905.3905-1.0235 0-1.414l-4.243-4.243Z"/>
  <path fill="#000" d="m13.55 11.964 4.243-4.24297c.3905-.39046.3905-1.02353 0-1.414-.3905-.39046-1.0235-.39046-1.414 0l-4.9499 4.94987c-.3905.3906-.3905 1.0237 0 1.4142l4.9499 4.9499c.3905.3905 1.0235.3905 1.414 0 .3905-.3904.3905-1.0235 0-1.414l-4.243-4.243Z"/>
</svg>
