<svg xmlns="http://www.w3.org/2000/svg" fill="none" viewBox="0 0 24 24">
  <path fill="#000" d="M10.885 14.093v1.8605c-1.48028 0-2.89993.588-3.94665 1.6347-1.04671 1.0468-1.63475 2.4664-1.63475 3.9467H3.44313c0-1.9737.78406-3.8666 2.17967-5.2622 1.39562-1.3956 3.28849-2.1797 5.2622-2.1797Zm0-.9302c-3.08373 0-5.5814-2.4977-5.5814-5.5814C5.3036 4.49767 7.80127 2 10.885 2c3.0837 0 5.5814 2.49767 5.5814 5.5814 0 3.0837-2.4977 5.5814-5.5814 5.5814Zm0-1.8605c2.0558 0 3.7209-1.66509 3.7209-3.7209 0-2.05582-1.6651-3.72093-3.7209-3.72093-2.05582 0-3.72094 1.66511-3.72094 3.72093 0 2.05581 1.66512 3.7209 3.72094 3.7209Zm2.4139 7.267c-.1179-.4963-.1179-1.0134 0-1.5098l-.9227-.533.9302-1.6112.9228.5331c.3704-.3508.8181-.6096 1.307-.7554v-1.0651h1.8604v1.0651c.4949.147.9414.4093 1.307.7554l.9228-.5331.9302 1.6112-.9228.533c.1178.4961.1178 1.0128 0 1.5089l.9228.533-.9302 1.6112-.9228-.5331c-.3704.3508-.8181.6096-1.307.7554V22h-1.8604v-1.0651c-.4889-.1458-.9366-.4046-1.307-.7554l-.9228.5331-.9302-1.6112.9227-.5321Zm3.1675.64c.3701 0 .725-.147.9866-.4087.2617-.2617.4087-.6166.4087-.9866 0-.3701-.147-.725-.4087-.9867-.2616-.2617-.6165-.4087-.9866-.4087s-.725.147-.9867.4087c-.2616.2617-.4087.6166-.4087.9867 0 .37.1471.7249.4087.9866.2617.2617.6166.4087.9867.4087Z"/>
</svg>
