<svg xmlns="http://www.w3.org/2000/svg" fill="none" viewBox="0 0 24 24">
  <path fill="#000" d="M12 17.4545c-1.4466 0-2.83402-.5746-3.85695-1.5976C7.12013 14.834 6.54545 13.4466 6.54545 12s.57468-2.83402 1.5976-3.85695C9.16598 7.12013 10.5534 6.54545 12 6.54545c1.4466 0 2.834.57468 3.8569 1.5976C16.8799 9.16598 17.4545 10.5534 17.4545 12c0 1.4466-.5746 2.834-1.5976 3.8569-1.0229 1.023-2.4103 1.5976-3.8569 1.5976Zm0-1.8181c.9644 0 1.8893-.3832 2.5713-1.0651.6819-.682 1.0651-1.6069 1.0651-2.5713 0-.9644-.3832-1.8893-1.0651-2.5713-.682-.68195-1.6069-1.06506-2.5713-1.06506-.9644 0-1.8893.38311-2.5713 1.06506-.68195.682-1.06506 1.6069-1.06506 2.5713 0 .9644.38311 1.8893 1.06506 2.5713.682.6819 1.6069 1.0651 2.5713 1.0651ZM11.0909 2h1.8182v2.72727h-1.8182V2Zm0 17.2727h1.8182V22h-1.8182v-2.7273ZM4.28636 5.57182l1.28546-1.28546L7.5 6.21455 6.21455 7.5 4.28636 5.57182ZM16.5 17.7855 17.7855 16.5l1.9281 1.9282-1.2854 1.2854L16.5 17.7855Zm1.9282-13.50005 1.2854 1.28637L17.7855 7.5 16.5 6.21455l1.9282-1.92819v-.00091ZM6.21455 16.5 7.5 17.7855l-1.92818 1.9281-1.28546-1.2854L6.21455 16.5ZM22 11.0909v1.8182h-2.7273v-1.8182H22Zm-17.27273 0v1.8182H2v-1.8182h2.72727Z"/>
</svg>
