<svg xmlns="http://www.w3.org/2000/svg" fill="none" viewBox="0 0 24 24">
  <path fill="#000" d="m10 10.5 1.038-3.635c.0594-.20934.1855-.39358.3591-.52478.1736-.13119.3853-.20217.6029-.20217.2176 0 .4293.07098.6029.20217.1736.1312.2997.31544.3591.52478L14 10.5V12h.72c.2229 0 .4395.0745.6152.2117.1758.1371.3006.3291.3548.5453l1.361 5.447c1.281-1.0429 2.2077-2.4569 2.6529-4.0476.4453-1.5907.3872-3.2803-.1663-4.83665-.5535-1.55639-1.5752-2.90329-2.9248-3.85576C15.2632 4.51152 13.6519 4.00018 12 4.00018s-3.26323.51134-4.61284 1.46381c-1.34961.95247-2.37129 2.29937-2.92475 3.85576-.55346 1.55635-.61157 3.24595-.16635 4.83665.44523 1.5907 1.37196 3.0047 2.65294 4.0476l1.362-5.447c.05413-.2161.17886-.4079.3544-.545.17554-.1372.39184-.2118.6146-.212H10v-1.5Zm2 9.5c1.1252.0023 2.238-.2343 3.265-.694L13.938 14h-3.876l-1.327 5.306c1.02696.4598 2.1398.6963 3.265.694Zm0 2C6.477 22 2 17.523 2 12S6.477 2 12 2s10 4.477 10 10-4.477 10-10 10Z"/>
</svg>
