<svg xmlns="http://www.w3.org/2000/svg" fill="none" viewBox="0 0 24 24">
  <path fill="#000" d="M7 10.0013h13c.2652 0 .5196.1053.7071.2928.1875.1876.2929.4419.2929.7072v9.9999c0 .2653-.1054.5196-.2929.7072-.1875.1875-.4419.2928-.7071.2928H4c-.26522 0-.51957-.1053-.70711-.2928C3.10536 21.5208 3 21.2665 3 21.0012v-9.9999c0-.2653.10536-.5196.29289-.7072.18754-.1875.44189-.2928.70711-.2928h1V9.00125c-.00057-1.5773.53158-3.10856 1.51019-4.34557.97861-1.237 2.34631-2.10725 3.88141-2.46967 1.5351-.36242 3.1476-.19576 4.5761.47295 1.4286.66871 2.5894 1.80029 3.2943 3.21129l-1.789.894c-.5035-1.00798-1.3327-1.81635-2.3532-2.29405-1.0204-.4777-2.1723-.59673-3.2689-.33777-1.0966.25895-2.07357.88069-2.77254 1.76443C7.37939 6.78059 6.9994 7.87451 7 9.00125v1.00005Zm-2 2v7.9999h14v-7.9999H5Zm5 3h4v2h-4v-2Z"/>
</svg>
