<svg xmlns="http://www.w3.org/2000/svg" fill="none" viewBox="0 0 24 24">
  <path fill="#000" fill-rule="evenodd" d="M20 12c0 4.4183-3.5817 8-8 8-4.41828 0-8-3.5817-8-8 0-4.41828 3.58172-8 8-8 4.4183 0 8 3.58172 8 8Zm2 0c0 5.5228-4.4772 10-10 10-5.52285 0-10-4.4772-10-10C2 6.47715 6.47715 2 12 2c5.5228 0 10 4.47715 10 10Zm-10 1.5c.8284 0 1.5-.6716 1.5-1.5s-.6716-1.5-1.5-1.5-1.5.6716-1.5 1.5.6716 1.5 1.5 1.5Zm6.4983-1.5c0 .8284-.6716 1.5-1.5 1.5s-1.5-.6716-1.5-1.5.6716-1.5 1.5-1.5 1.5.6716 1.5 1.5ZM7.00195 13.5c.82843 0 1.5-.6716 1.5-1.5s-.67157-1.5-1.5-1.5c-.82842 0-1.5.6716-1.5 1.5s.67158 1.5 1.5 1.5Z" clip-rule="evenodd"/>
</svg>
