<svg xmlns="http://www.w3.org/2000/svg" fill="none" viewBox="0 0 24 24">
  <path fill="#000" d="m6.265 3.807 1.147 1.639c-1.39382.97577-2.44024 2.3705-2.98726 3.9816-.54702 1.6111-.56614 3.3546-.05459 4.9773.51156 1.6227 1.52714 3.0401 2.89922 4.0462C8.64146 19.4572 10.2986 19.9996 12 19.9996c1.7014 0 3.3585-.5424 4.7306-1.5485s2.3877-2.4235 2.8993-4.0462c.5115-1.6227.4924-3.3662-.0546-4.9773-.5471-1.6111-1.5935-3.00583-2.9873-3.9816l1.147-1.639c1.318.92143 2.3939 2.14746 3.1365 3.57387C21.614 8.80728 22.0012 10.3919 22 12c0 5.523-4.477 10-10 10S2 17.523 2 12c-.00116-1.6081.38599-3.19272 1.12853-4.61913C3.87107 5.95446 4.94705 4.72843 6.265 3.807ZM11 12V2h2v10h-2Z"/>
</svg>
