<svg xmlns="http://www.w3.org/2000/svg" fill="none" viewBox="0 0 24 24">
  <path fill="#000" d="M10.1643 6.16299c.3689-.70256.8754-1.32365 1.4895-1.82624.6141-.50259 1.3231-.8764 2.0847-1.09913.7616-.22273 1.5603-.28983 2.3484-.19729.7881.09253 1.5495.34281 2.2388.7359.6893.39309 1.2924.92095 1.7734 1.55211.4809.63117.8299 1.35271 1.026 2.12161.1961.7689.2354 1.56942.1156 2.35384-.1199.78441-.3965 1.53671-.8133 2.21191.7294.6869 1.2357 1.577 1.4533 2.5551.2175.978.1363 1.9989-.2331 2.9302-.3695.9313-1.0101 1.7303-1.8389 2.2932-.8289.563-1.8077.864-2.8096.8641l-7.72966-.0009c-.99265-.0007-1.97464-.2046-2.88555-.5991-.9109-.3945-1.73143-.9712-2.4111-1.6947-.67967-.7234-1.20409-1.5783-1.54099-2.5121-.33689-.9337-.47914-1.9265-.41798-2.9173.06116-.9907.32444-1.9585.77362-2.8437.44918-.88521 1.07477-1.66912 1.83826-2.3035.76349-.63438 1.64873-1.1058 2.60123-1.38525.95251-.27945 1.95213-.36101 2.93737-.23967v.00091Zm1.8833.4947c.9083.3765 1.7312.93266 2.4192 1.63508.6881.70242 1.2271 1.53662 1.5847 2.45253.9529-.1826 1.9382-.0857 2.8372.2792.4216-.8996.5015-1.92182.2248-2.87598-.2766-.95416-.8909-1.7751-1.7283-2.30967-.8374-.53457-1.8406-.74627-2.8226-.5956-.9819.15067-1.8755.65341-2.5141 1.41444h-.0009Zm4.9515 12.18191c.5247-.0001 1.0413-.1299 1.5037-.3779.4625-.248.8564-.6065 1.1468-1.0435.2904-.4371.4682-.9392.5177-1.4616.0494-.5224-.0311-1.0489-.2344-1.5327-.2032-.4838-.523-.9098-.9307-1.2401-.4077-.3303-.8908-.5547-1.4062-.6532-.5154-.0985-1.0472-.068-1.548.0887-.5008.1567-.955.4348-1.3223.8096v-.0455c0-1.0792-.32-2.1341-.9196-3.0313-.5995-.8973-1.4517-1.59663-2.4487-2.0096-.9969-.41297-2.09401-.52102-3.15241-.31049-1.0584.21053-2.03061.73018-2.79367 1.49325-.76307.76304-1.28272 1.73524-1.49325 2.79364-.21053 1.0584-.10248 2.1555.31049 3.1525.41296.997 1.1123 1.8491 2.00957 2.4487.89727.5995 1.95217.9195 3.03131.9195h7.72966Z"/>
</svg>
