<svg xmlns="http://www.w3.org/2000/svg" fill="none" viewBox="0 0 24 24">
  <path fill="#000" fill-rule="evenodd" d="M4.26454 11.9954c.18795.1885.45881.3122.75528.3558.1661.0247.33552.0483.50494.0698.03593.0048.07188.0096.10786.0144 1.99603.2641 4.058.3885 6.19058.3984.0916.0005.1833.0007.2752.0007-.0002 0 .0001 0 0 0h.0027l-.0022.001h.0022c-.0002 0 .0002 0 0 0 .0918 0 .1839-.0002.2754-.0006 2.1339-.0099 4.1935-.1341 6.1891-.3961.0365-.0048.0731-.0097.1096-.0146.0847-.0123.1694-.0244.2541-.0365.0848-.0121.1695-.0242.2542-.0365.2937-.044.5624-.1668.7496-.3536.1651-.1646.2669-.3788.2669-.6323 0-.5113-.4053-.9409-.9257-.986v-.0032c0-2.27156-1.1241-4.28874-2.8595-5.55749-.2721-.19889-.5592-.37939-.8593-.5396-.0791-.0422-.159-.08299-.2399-.12234l-.6555 3.6043c-.0003.00169-.0007.00338-.001.00507-.0004.00195-.0008.0039-.0012.00584-.0527.24098-.2939.40195-.5437.36069-.2547-.04619-.4263-.28354-.3831-.52948l.7319-4.02422c-.0405-.12384-.1107-.23521-.2024-.32641-.1564-.15558-.3755-.25247-.617-.25247h-3.0883c-.2401 0-.4568.09576-.61285.24974-.09295.09171-.16442.20406-.20658.32914l.73193 4.02422c.0443.24702-.1284.48437-.3831.52948-.25093.04232-.49217-.11967-.54373-.36068-.00018-.00084-.00036-.00167-.00053-.00251-.00058-.0028-.00114-.0056-.00167-.00841l-.35434-1.95144-.29787-1.65286c-.08187.03982-.16285.08112-.2429.12385-.29942.15987-.58577.33991-.85711.53823-1.7359 1.26876-2.85753 3.28587-2.85753 5.55735v.0032c-.52376.0462-.92903.4747-.92903.986 0 .2525.10081.4659.26455.6301Zm-.4939-2.43846c-.58055.39046-.97065 1.04666-.97065 1.80836 0 1.1091.76229 1.759 1.51502 2.0364.0732 1.9648.66698 3.789 1.64136 5.2612.87266 1.3224 2.06319 2.3771 3.47133 2.9829.8303.3567 1.7291.5542 2.6712.5542.9423 0 1.8398-.1974 2.6719-.553l.0037-.0016c1.4042-.6059 2.5944-1.6604 3.4669-2.9826.9742-1.4718 1.5679-3.2956 1.6413-5.2599.7527-.277 1.5173-.9275 1.5173-2.0376 0-.7584-.3879-1.41579-.9673-1.80736-.2922-2.85834-2.0982-5.26633-4.5919-6.48023l-.3665-.17841c-.3485-.66646-1.0518-1.09931-1.8307-1.09931h-3.0883c-.78828 0-1.48384.44037-1.83055 1.10099l-.363.17654C5.8653 4.2916 4.06264 6.69967 3.77064 9.55694ZM17.4763 13.4848c.4032-.0416.8059-.0886 1.2078-.1413-.0035.0978-.0085.1951-.0149.2919-.0208.3167-.0568.6282-.107.9335-.211 1.2813-.6734 2.4528-1.3221 3.4325-.7596 1.1513-1.7761 2.0395-2.941 2.5421-.691.2954-1.4284.4565-2.2002.4565-.7718 0-1.5093-.1611-2.19693-.4565-1.16822-.5026-2.18473-1.3908-2.94435-2.5421-.64862-.9797-1.11109-2.1512-1.32204-3.4325-.05044-.3064-.0865-.6191-.10729-.9369-.00626-.0957-.01114-.1918-.0146-.2885.4019.0527.80456.0997 1.20781.1413 1.7636.182 3.5385.2617 5.3115.2636h.0681c.1464 0 .2928-.0005.4392-.0016h.0027c.0142-.0001.0285-.0002.0427-.0003 1.6328-.0133 3.2665-.0941 4.8906-.2617Z" clip-rule="evenodd"/>
</svg>
