<svg xmlns="http://www.w3.org/2000/svg" fill="none" viewBox="0 0 24 24">
  <path fill="#000" d="M13.8199 17.4583v-1.8185h3.1823c.5246 0 1.0411-.1298 1.5035-.3778.4623-.248.8562-.6064 1.1466-1.0434.2903-.437.4681-.939.5175-1.4613.0494-.5223-.031-1.0488-.2343-1.5324-.2032-.4837-.5229-.9097-.9305-1.23996-.4077-.33027-.8907-.55463-1.406-.65311-.5153-.09847-1.047-.068-1.5477.08869-.5007.1567-.9549.43476-1.3222.80948v-.0455c0-1.44684-.5748-2.83443-1.5978-3.8575-1.0231-1.02307-2.4107-1.59783-3.85753-1.59783-1.44684 0-2.83442.57476-3.8575 1.59783-1.02307 1.02307-1.59782 2.41066-1.59782 3.8575v.0064H2v-.0064c-.00137-1.69738.59091-3.34179 1.67427-4.64846 1.08337-1.30668 2.5896-2.19333 4.25786-2.50641 1.66825-.31308 3.39347-.03287 4.87687.7921 1.4834.82496 2.6316 2.14274 3.2457 3.72512.6841-.13157 1.3881-.11878 2.0669.03755.6788.15634 1.3175.45277 1.8751.87029.5575.41753 1.0218.94694 1.3628 1.55431.3411.6074.5515 1.2793.6178 1.9727.0663.6934-.013 1.3931-.2329 2.054-.2198.661-.5753 1.2688-1.0437 1.7844-.4684.5156-1.0393.9276-1.6762 1.2097s-1.3258.4281-2.0223.4285h-3.1823Zm-7.27379 1.8184h9.09219v1.8185H6.54611v-1.8185Zm0-7.2738h7.27379v1.8185H6.54611v-1.8185Zm-3.63689 3.6369h9.09218v1.8185H2.90922v-1.8185Z"/>
</svg>
