<svg xmlns="http://www.w3.org/2000/svg" fill="none" viewBox="0 0 24 24">
  <path fill="#000" d="M12 22C6.477 22 2 17.523 2 12c0-4.478 2.943-8.268 7-9.542v2.124c-1.71908.69804-3.1422 1.97171-4.02594 3.60312-.88374 1.6314-1.17318 3.51918-.81881 5.34038.35438 1.8213 1.33054 3.4628 2.76151 4.6438C8.34774 19.3503 10.1446 19.9975 12 20c1.5938 0 3.1513-.476 4.4728-1.3668C17.7944 17.7424 18.82 16.4773 19.418 15h2.124c-1.274 4.057-5.064 7-9.542 7Zm9.95-9H11V2.05c.329-.033.663-.05 1-.05 5.523 0 10 4.477 10 10 0 .337-.017.671-.05 1ZM13 4.062V11h6.938c-.2226-1.76239-1.0251-3.40066-2.2812-4.65676C16.4007 5.08713 14.7624 4.28459 13 4.062Z"/>
</svg>
