<svg xmlns="http://www.w3.org/2000/svg" fill="none" viewBox="0 0 24 24">
  <g clip-path="url(#a)">
    <path fill="#242E40" d="M3 18c0 .5523.44772 1 1 1h16c.5523 0 1-.4477 1-1v-.3333c0-.5523-.4477-1-1-1H4c-.55228 0-1 .4477-1 1V18Zm0-5.8333c0 .5523.44772 1 1 1h16c.5523 0 1-.4477 1-1v-.3334c0-.5523-.4477-1-1-1H4c-.55228 0-1 .4477-1 1v.3334ZM4 5c-.55228 0-1 .44772-1 1v.33333c0 .55229.44772 1 1 1h16c.5523 0 1-.44771 1-1V6c0-.55228-.4477-1-1-1H4Z"/>
  </g>
  <defs>
    <clipPath id="a">
      <path fill="#fff" d="M0 0h24v24H0z"/>
    </clipPath>
  </defs>
</svg>
