<svg xmlns="http://www.w3.org/2000/svg" fill="none" viewBox="0 0 24 24">
  <path stroke="#000" stroke-width="1.3" d="M2.96569 8.65H5.35V19c0 .9113.73881 1.65 1.65004 1.65.91118 0 1.64997-.7386 1.65004-1.6499L8.65095 8.65h2.38335c.9355 0 1.4039-1.131.7425-1.79246L7.74246 2.82322c-.41005-.41005-1.07487-.41005-1.48492 0L2.22322 6.85754C1.56176 7.519 2.03024 8.65 2.96569 8.65ZM17.7425 21.1768l4.0343-4.0343c.6614-.6615.193-1.7925-.7425-1.7925H18.65V5c0-.91127-.7387-1.65-1.65-1.65-.9113 0-1.65.73873-1.65 1.65v10.35h-2.3843c-.9355 0-1.4039 1.131-.7425 1.7925l4.0343 4.0343c.4101.41 1.0749.41 1.485 0Z"/>
</svg>
