<svg xmlns="http://www.w3.org/2000/svg" fill="none" viewBox="0 0 24 24">
  <path fill="#000" d="m2 5 7-3 6 3 6.303-2.701c.0761-.03262.1591-.04583.2415-.03846.0825.00738.1618.03511.2309.0807.0691.0456.1258.10764.165.18056.0392.07291.0597.15442.0596.2372V19l-7 3-6-3-6.303 2.701c-.07609.0326-.15908.0458-.24153.0385-.08246-.0074-.16179-.0351-.23088-.0807-.06909-.0456-.12578-.1077-.16498-.1806-.0392-.0729-.05968-.1544-.05961-.2372V5Zm14 14.395 4-1.714V5.033l-4 1.714v12.648Zm-2-.131V6.736l-4-2v12.528l4 2Zm-6-2.011V4.605L4 6.319v12.648l4-1.714Z"/>
</svg>
