<svg xmlns="http://www.w3.org/2000/svg" fill="none" viewBox="0 0 24 24">
  <mask id="a" width="21" height="21" x="1.5" y="1.5" fill="#000" maskUnits="userSpaceOnUse">
    <path fill="#fff" d="M1.5 1.5h21v21h-21z"/>
    <path fill-rule="evenodd" d="M10.778 21.5h2.3652c.1576 0 .3153-.1583.3941-.3167l.5519-2.375c.3942-.1583.7884-.3166 1.1037-.475l2.1287 1.425c.1577.0792.3153.0792.473-.0791l1.6556-1.6625c.1577-.1584.1577-.3167.0788-.475l-1.2614-2.1375c.1704-.2851.2589-.5291.354-.7912.037-.1018.0749-.2064.1191-.3172l2.4439-.6333c.1577-.0792.3154-.2375.3154-.3958v-2.375c0-.1584-.1577-.3167-.3154-.3959l-2.4439-.6333-.0001-.00008c-.1576-.39581-.3153-.79161-.473-1.10825l1.3403-2.05834c.0788-.15833.0788-.31666-.0789-.475l-1.6556-1.6625c-.1576-.15833-.3153-.15833-.473-.07916l-2.1286 1.26666c-.2839-.17103-.5269-.25995-.7879-.35546-.1014-.03712-.2055-.07523-.3159-.11954l-.6307-2.45416c-.0788-.15834-.2365-.31667-.3941-.31667H10.778c-.1577 0-.3153.15833-.3942.31667l-.55185 2.375c-.39419.15833-.78838.31666-1.10373.475L6.59958 4.4c-.15767-.07917-.39419-.07917-.47302.07917l-1.65561 1.6625c-.15767.07916-.15767.31666-.07883.475l1.26141 2.1375c-.15768.31666-.31536.7125-.39419 1.02916l-2.44399.63337c-.15767.0791-.31535.2375-.31535.3958v2.375c0 .1583.15768.3167.31535.3958l2.36515.5542h.00001c.15767.3958.31534.7917.47302 1.1083l-1.34025 2.0584c-.07884.1583-.07884.3166.07884.475l1.6556 1.6625c.15767.1583.31535.1583.47303.0791l2.12863-1.2666c.28387.171.52686.2599.78785.3554.10142.0371.20557.0753.31588.1196l.63069 2.4541c.0789.1584.2365.3167.3942.3167Zm2.0498-.7917h-1.7344l-.5519-2.2958c-.0788-.1583-.1577-.3167-.3154-.3167-.47299-.1583-.94602-.3166-1.34021-.5541-.07884-.0792-.23651-.0792-.39419 0l-2.04979 1.2666-1.26141-1.2666 1.26141-1.9792v-.0792c.07884-.1583.07884-.2375 0-.3958-.23652-.3958-.39419-.8708-.55187-1.3458-.07884-.1584-.15767-.3167-.31535-.3167l-2.36515-.5542v-1.7416l2.36515-.5542c.15768-.0792.31535-.1583.31535-.3167.15768-.47497.31536-.94997.55187-1.3458.07884-.07917.07884-.2375 0-.31667v-.07916L5.1805 6.45833l1.26141-1.26666L8.4917 6.45833c.15768.07917.31535.07917.39419 0 .39419-.2375.86722-.39583 1.34021-.55416.1577-.07917.3154-.15834.3154-.31667l.5519-2.375h1.7344l.5519 2.375c.0788.15833.1576.31667.3153.31667.473.15833.9461.31666 1.3403.55416.0788.07917.2365.07917.3942 0l2.0498-1.26666 1.2614 1.26666-1.2614 1.97917v.07917c-.0789.15833-.0789.2375 0 .39583.2365.39583.3941.87083.5518 1.3458.0789.1584.1577.3167.3154.3167l2.3651.5542v1.7416l-2.3651.5542c-.1577.0792-.3154.1583-.3154.3167-.1577.475-.3153.95-.5518 1.3458-.0789.1583-.0789.2375 0 .3958l1.2614 1.9-1.2614 1.2667-2.0498-1.1875c-.0789-.0792-.2366-.0792-.3942 0-.3942.2375-.8673.3958-1.3403.5542-.1577.0791-.3153.1583-.3153.3166l-.5519 2.375ZM8.99867 12c0 1.68 1.32003 3 3.00003 3 1.68 0 3-1.32 3-3s-1.32-3.00001-3-3.00001S8.99867 10.32 8.99867 12Zm.6 0c0-1.32 1.08003-2.40001 2.40003-2.40001s2.4 1.08001 2.4 2.40001-1.08 2.4-2.4 2.4c-1.32 0-2.40003-1.08-2.40003-2.4Z" clip-rule="evenodd"/>
  </mask>
  <path fill="#000" fill-rule="evenodd" d="M10.778 21.5h2.3652c.1576 0 .3153-.1583.3941-.3167l.5519-2.375c.3942-.1583.7884-.3166 1.1037-.475l2.1287 1.425c.1577.0792.3153.0792.473-.0791l1.6556-1.6625c.1577-.1584.1577-.3167.0788-.475l-1.2614-2.1375c.1704-.2851.2589-.5291.354-.7912.037-.1018.0749-.2064.1191-.3172l2.4439-.6333c.1577-.0792.3154-.2375.3154-.3958v-2.375c0-.1584-.1577-.3167-.3154-.3959l-2.4439-.6333-.0001-.00008c-.1576-.39581-.3153-.79161-.473-1.10825l1.3403-2.05834c.0788-.15833.0788-.31666-.0789-.475l-1.6556-1.6625c-.1576-.15833-.3153-.15833-.473-.07916l-2.1286 1.26666c-.2839-.17103-.5269-.25995-.7879-.35546-.1014-.03712-.2055-.07523-.3159-.11954l-.6307-2.45416c-.0788-.15834-.2365-.31667-.3941-.31667H10.778c-.1577 0-.3153.15833-.3942.31667l-.55185 2.375c-.39419.15833-.78838.31666-1.10373.475L6.59958 4.4c-.15767-.07917-.39419-.07917-.47302.07917l-1.65561 1.6625c-.15767.07916-.15767.31666-.07883.475l1.26141 2.1375c-.15768.31666-.31536.7125-.39419 1.02916l-2.44399.63337c-.15767.0791-.31535.2375-.31535.3958v2.375c0 .1583.15768.3167.31535.3958l2.36515.5542h.00001c.15767.3958.31534.7917.47302 1.1083l-1.34025 2.0584c-.07884.1583-.07884.3166.07884.475l1.6556 1.6625c.15767.1583.31535.1583.47303.0791l2.12863-1.2666c.28387.171.52686.2599.78785.3554.10142.0371.20557.0753.31588.1196l.63069 2.4541c.0789.1584.2365.3167.3942.3167Zm2.0498-.7917h-1.7344l-.5519-2.2958c-.0788-.1583-.1577-.3167-.3154-.3167-.47299-.1583-.94602-.3166-1.34021-.5541-.07884-.0792-.23651-.0792-.39419 0l-2.04979 1.2666-1.26141-1.2666 1.26141-1.9792v-.0792c.07884-.1583.07884-.2375 0-.3958-.23652-.3958-.39419-.8708-.55187-1.3458-.07884-.1584-.15767-.3167-.31535-.3167l-2.36515-.5542v-1.7416l2.36515-.5542c.15768-.0792.31535-.1583.31535-.3167.15768-.47497.31536-.94997.55187-1.3458.07884-.07917.07884-.2375 0-.31667v-.07916L5.1805 6.45833l1.26141-1.26666L8.4917 6.45833c.15768.07917.31535.07917.39419 0 .39419-.2375.86722-.39583 1.34021-.55416.1577-.07917.3154-.15834.3154-.31667l.5519-2.375h1.7344l.5519 2.375c.0788.15833.1576.31667.3153.31667.473.15833.9461.31666 1.3403.55416.0788.07917.2365.07917.3942 0l2.0498-1.26666 1.2614 1.26666-1.2614 1.97917v.07917c-.0789.15833-.0789.2375 0 .39583.2365.39583.3941.87083.5518 1.3458.0789.1584.1577.3167.3154.3167l2.3651.5542v1.7416l-2.3651.5542c-.1577.0792-.3154.1583-.3154.3167-.1577.475-.3153.95-.5518 1.3458-.0789.1583-.0789.2375 0 .3958l1.2614 1.9-1.2614 1.2667-2.0498-1.1875c-.0789-.0792-.2366-.0792-.3942 0-.3942.2375-.8673.3958-1.3403.5542-.1577.0791-.3153.1583-.3153.3166l-.5519 2.375ZM8.99867 12c0 1.68 1.32003 3 3.00003 3 1.68 0 3-1.32 3-3s-1.32-3.00001-3-3.00001S8.99867 10.32 8.99867 12Zm.6 0c0-1.32 1.08003-2.40001 2.40003-2.40001s2.4 1.08001 2.4 2.40001-1.08 2.4-2.4 2.4c-1.32 0-2.40003-1.08-2.40003-2.4Z" clip-rule="evenodd"/>
  <path fill="#000" d="m13.5373 21.1833.3581.1783.0209-.042.0107-.0457-.3897-.0906Zm.5519-2.375-.1491-.3711-.1933.0776-.0472.203.3896.0905Zm1.1037-.475.2226-.3324-.1937-.1296-.2083.1046.1794.3574Zm2.1287 1.425-.2225.3324.0207.0139.0223.0112.1795-.3575Zm.473-.0791.2834.2822-.2834-.2822Zm1.6556-1.6625.2834.2822-.2834-.2822Zm.0788-.475.3581-.1783-.0063-.0128-.0073-.0122-.3445.2033Zm-1.2614-2.1375-.3433-.2052-.1219.2039.1207.2046.3445-.2033Zm.354-.7912.376.1365-.376-.1365Zm.1191-.3172-.1004-.3872-.1962.0509-.075.1883.3716.148Zm2.4439-.6333.1004.3872.0411-.0107.038-.019-.1795-.3575Zm0-3.1667.1795-.3574-.038-.0191-.0411-.0107-.1004.3872Zm-2.4439-.6333-.3699.1524.0762.1847.1933.0501.1004-.3872Zm-.0001-.00008-.3716.14808.0018.0043.3698-.15238Zm-.473-1.10825-.3352-.21827-.1248.19174.102.20482.358-.17829Zm1.3403-2.05834.3352.21827.0126-.01933.0103-.02065-.3581-.17829Zm-.0789-.475.2835-.28225-.2835.28225Zm-1.6556-1.6625.2835-.28225-.2835.28225Zm-.473-.07916-.1795-.35748-.0127.00642-.0123.00731.2045.34375Zm-2.1286 1.26666-.2064.34262.2051.12361.2058-.12248-.2045-.34375Zm-.7879-.35546-.1374.37563.1374-.37563Zm-.3159-.11954-.3874.09957.0504.19613.188.07548.149-.37118Zm-.6307-2.45416.3875-.09957-.0106-.04091-.0188-.03781-.3581.17829Zm-3.1535 0-.358-.17829-.021.04202-.0106.04573.3896.09054Zm-.55185 2.375.14909.37117.19336-.07767.0472-.20297-.38965-.09053Zm-1.10373.475-.20455.34374.18825.11202.19578-.09829-.17948-.35747ZM6.59958 4.4l.20455-.34374-.01229-.00732-.01277-.00641L6.59958 4.4Zm-.47302.07917.28343.28225.04574-.04593.02889-.05803-.35806-.17829Zm-1.65561 1.6625.17949.35747.05808-.02916.04586-.04606-.28343-.28225Zm-.07883.475-.35807.17829.00634.01274.00724.01226.34449-.20329Zm1.26141 2.1375.35806.17829.09684-.19448-.11042-.18711-.34448.2033Zm-.39419 1.02916.10034.38717.23033-.0596.05748-.23093-.38815-.09664Zm-2.44399.63337-.10034-.3872-.04115.0106-.03799.0191.17948.3575Zm0 3.1666-.17948.3575.04223.0212.046.0108.09125-.3895Zm2.36515.5542.37058-.1506-.07787-.1917-.20146-.0472-.09125.3895Zm.00001 0 .37161-.148-.00103-.0025-.37058.1505Zm.47302 1.1083.3352.2183.12485-.1917-.10199-.2049-.35806.1783Zm-1.34025 2.0584-.33521-.2183-.01258.0193-.01028.0207.35807.1783Zm.07884.475-.28343.2822.28343-.2822Zm1.6556 1.6625-.28343.2822.28343-.2822Zm.47303.0791.17948.3575.01278-.0064.01229-.0073-.20455-.3438Zm2.12863-1.2666.20642-.3427-.20515-.1236-.20582.1225.20455.3438Zm.78785.3554-.13746.3757.13746-.3757Zm.31588.1196.38739-.0996-.0504-.1961-.1879-.0755-.14909.3712Zm.63069 2.4541-.38739.0996.01049.0409.0189.0378.358-.1783Zm.7096-.475-.389.0935.0737.3065h.3153v-.4Zm1.7344 0v.4h.3177l.0719-.3094-.3896-.0906Zm-2.2863-2.2958.3889-.0935-.0106-.0441-.0202-.0407-.3581.1783Zm-.3154-.3167-.1098.3846.0538.0154h.056v-.4Zm0 0-.1269.3793.0084.0029.0086.0024.1099-.3846Zm-1.34021-.5541-.28343.2822.03478.0349.04222.0255.20643-.3426Zm-.39419 0-.17948-.3575-.01577.0079-.01502.0093.21027.3403Zm-2.04979 1.2666-.28343.2823.22384.2248.26986-.1668-.21027-.3403ZM5.1805 17.5417l-.33732-.215-.17221.2702.2261.227.28343-.2822Zm1.26141-1.9792.33731.215.06269-.0984v-.1166h-.4Zm0-.0792-.35807-.1783-.04193.0843v.094h.4Zm0-.3958.35807-.1783-.00684-.0137-.00786-.0132-.34337.2052Zm-.55187-1.3458.37963-.1261-.00893-.0269-.01263-.0253-.35807.1783Zm-.31535-.3167-.09125.3895.04501.0105h.04624v-.4Zm-2.36515-.5542h-.4v.3171l.30875.0724.09125-.3895Zm0-1.7416-.09125-.3895-.30875.0724v.3171h.4Zm2.36515-.5542.09125.3895.046-.0108.04223-.0212-.17948-.3575Zm.31535-.3167-.384-.112-.016.0549v.0571h.4Zm0 0-.37963-.126-.00231.007-.00206.007.384.112Zm.55187-1.3458-.28343-.28225-.03471.03485-.02523.04223.34337.20517Zm0-.31667h-.4v.1652l.11657.11706.28343-.28226Zm0-.07916h.4v-.11282l-.05895-.09619-.34105.20901ZM5.1805 6.45833l-.28343-.28225-.22204.22296.16442.2683.34105-.20901Zm1.26141-1.26666.21027-.34028-.26986-.16675-.22384.22477.28343.28226ZM8.4917 6.45833l-.21027.34028.01502.00928.01577.00792.17948-.35748Zm.39419 0-.20643-.34262-.04222.02544-.03478.03493.28343.28225Zm1.34021-.55416.127.37931.027-.00905.0255-.01279-.1795-.35747Zm.3154-.31667-.3896-.09053-.0104.04467v.04586h.4Zm.5519-2.375v-.4h-.3177l-.072.30947.3897.09053Zm1.7344 0 .3896-.09053-.0719-.30947h-.3177v.4Zm.5519 2.375-.3897.09053.0107.04573.0209.04203.3581-.17829Zm.3153.31667.127-.37932-.0618-.02068h-.0652v.4Zm1.3403.55416.2834-.28225-.0348-.03493-.0422-.02544-.2064.34262Zm.3942 0 .1794.35748.0158-.00792.015-.00928-.2102-.34028Zm2.0498-1.26666.2834-.28226-.2239-.22477-.2698.16675.2103.34028Zm1.2614 1.26666.3373.21499.1722-.2702-.2261-.22704-.2834.28225ZM17.4793 8.4375l-.3374-.21499-.0626.09836v.11663h.4Zm0 .07917.358.17829.042-.08422v-.09407h-.4Zm0 .39583-.3581.17829.0068.01372.0079.01316.3434-.20517Zm.5518 1.3458-.3796.1261.0089.0269.0127.0253.358-.1783Zm.3154.3167.0912-.3895-.045-.0105h-.0462v.4Zm2.3651.5542h.4v-.3171l-.3087-.0724-.0913.3895Zm0 1.7416.0913.3895.3087-.0724v-.3171h-.4Zm-2.3651.5542-.0913-.3895-.046.0108-.0422.0212.1795.3575Zm-.3154.3167.3797.126.0203-.0614v-.0646h-.4Zm-.5518 1.3458-.3434-.2052-.0079.0132-.0068.0137.3581.1783Zm0 .3958-.3581.1783.0111.0223.0137.0207.3333-.2213Zm1.2614 1.9.2834.2823.2304-.2314-.1806-.2721-.3332.2212ZM17.4793 18.65l-.2006.3461.2666.1544.2174-.2182-.2834-.2823Zm-2.0498-1.1875-.2835.2823.0373.0374.0456.0264.2006-.3461Zm-.3942 0-.1795-.3575-.0138.0069-.0132.008.2065.3426Zm-1.3403.5542-.1269-.3793-.0271.009-.0255.0128.1795.3575Zm-.3153.3166.3896.0906.0104-.0447v-.0459h-.4ZM13.1432 21.1H10.778v.8h2.3652v-.8Zm.0361-.095c-.0082.0164-.0193.0344-.0326.0519-.0133.0175-.0266.0313-.0378.041-.0116.01-.0169.0119-.0139.0106.0033-.0015.0202-.0085.0482-.0085v.8c.2108 0 .3792-.1025.4876-.1958.1129-.0972.2037-.2202.2646-.3426l-.7161-.3566Zm.5203-2.2872-.5519 2.375.7793.1811.5518-2.375-.7792-.1811Zm1.3139-.7419c-.2974.1493-.6745.301-1.0734.4613l.2982.7423c.3895-.1564.8008-.3213 1.1341-.4887l-.3589-.7149Zm2.5306 1.45-2.1286-1.425-.4451.6648 2.1287 1.425.445-.6648Zm-.0329-.029c-.016.0161-.0241.0202-.0231.0196.0005-.0002.0028-.0014.0066-.0026.004-.0013.0086-.0023.0136-.003.0049-.0006.0093-.0007.0126-.0005.0033.0002.0049.0006.0048.0005-.0008-.0001-.0086-.002-.0246-.01l-.359.7149c.125.0628.2848.1116.4658.0889.1853-.0233.3425-.1151.4701-.2433l-.5668-.5645Zm1.6556-1.6625-1.6556 1.6625.5668.5645 1.6556-1.6625-.5668-.5645Zm.0042-.0144c.0081.0162.0101.0244.0103.0256.0001.0003-.0012-.0058.0001-.0158.0006-.0048.0016-.0091.0027-.0128.0012-.0037.0023-.0058.0025-.0061.0003-.0008-.0038.0074-.0198.0235l.5668.5645c.1277-.1282.2186-.2855.2417-.4703.0224-.1805-.0258-.34-.0882-.4652l-.7161.3566Zm-1.2479-2.1125 1.2615 2.1375.6889-.4066-1.2614-2.1375-.689.4066Zm.3225-1.1309c-.0951.2621-.1726.4735-.3213.7224l.6867.4103c.192-.3212.2915-.5977.3866-.8598l-.752-.2729Zm.1235-.3288c-.0468.1174-.0867.2276-.1235.3288l.752.2729c.0372-.1025.0732-.2015.1147-.3056l-.7432-.2961Zm2.7152-.8725-2.444.6333.2007.7744 2.444-.6333-.2007-.7744Zm.0157-.0086c0-.0273.0068-.0436.0081-.0466.0012-.0026-.0009.0028-.0109.0145-.0096.0113-.0234.0246-.0408.038-.0173.0133-.0351.0243-.0512.0324l.3589.715c.1222-.0614.2448-.1527.3416-.266.0929-.1089.1943-.2773.1943-.4873h-.8Zm0-2.375v2.375h.8v-2.375h-.8Zm-.0948-.0384c.0161.0081.0339.0192.0512.0325.0174.0133.0312.0266.0408.038.01.0116.0121.0171.0109.0144-.0013-.003-.0081-.0193-.0081-.0465h.8c0-.2101-.1014-.3784-.1943-.4873-.0968-.1134-.2194-.2047-.3416-.266l-.3589.7149Zm-2.3649-.6036 2.444.6333.2007-.7744-2.444-.63331-.2007.77441Zm-.2695-.2349v.0001l.7397-.30481v-.00008l-.7397.30479Zm-.4612-1.08234c.1487.2987.2999.6775.4594 1.07794l.7432-.296c-.1558-.39113-.3199-.80394-.4865-1.13852l-.7161.35658Zm1.3631-2.45489L17.9324 8.5359l.6704.43653 1.3403-2.05833-.6704-.43653Zm-.0271.02552c.016.01607.0202.02427.0198.02355-.0002-.00038-.0012-.00246-.0024-.00612-.0012-.0037-.0022-.00806-.0028-.01278-.0012-.01003 0-.01613 0-.0158-.0003.00115-.0023.00938-.0104.0256l.7162.35658c.0623-.12524.1106-.28475.0881-.4652-.023-.1848-.1139-.34212-.2416-.47034l-.5669.56451ZM17.59 4.84059l1.6556 1.6625.5669-.56451-1.6556-1.6625-.5669.56451Zm-.0101-.00395c.016-.00803.0239-.00993.0246-.01008.0002-.00004-.0015.00034-.0048.00052-.0033.00018-.0076.00012-.0126-.00051-.005-.00062-.0096-.00169-.0135-.00295-.0039-.00125-.0062-.00239-.0067-.00266-.001-.00053.0071.00354.0231.01963l.5669-.56451c-.1276-.12814-.2848-.22002-.4702-.24328-.181-.02272-.3407.02612-.4658.08889l.359.71495Zm-2.1036 1.25294 2.1287-1.26667-.4091-.68749-2.1287 1.26667.4091.68749ZM14.3465 5.766c.2609.09551.4713.17327.7189.32245l.4128-.68524c-.3201-.19289-.5958-.29296-.8568-.38848l-.2749.75127Zm-.3275-.12399c.1169.04697.2267.08711.3275.12399l.2749-.75127c-.1021-.03735-.2006-.07342-.3043-.11507l-.2981.74235Zm-.8691-2.72578.6307 2.45417.7749-.19913-.6307-2.45417-.7749.19913ZM13.1432 2.9c-.028 0-.0449-.007-.0482-.0085-.003-.00134.0023.00064.0139.01063.0112.00966.0245.02349.0378.041.0133.01743.0244.03549.0326.05183l.7161-.35658c-.0609-.12238-.1517-.24536-.2646-.34259-.1084-.09326-.2768-.19579-.4876-.19579v.8Zm-2.3652 0h2.3652v-.8H10.778v.8Zm-.0361.09496c.0081-.01634.0192-.0344.0325-.05183.0134-.01751.0267-.03134.0379-.04101.0116-.00998.0168-.01196.0139-.01062-.0033.0015-.0202.0085-.0482.0085v-.8c-.2108 0-.3792.10253-.4876.19579-.113.09724-.2037.22021-.2646.34259l.7161.35658Zm-.5203 2.28724.5518-2.375-.7792-.18107-.55187 2.375.77927.18107Zm-1.3139.74194c.29734-.14929.67446-.30108 1.07334-.4613l-.29818-.74235c-.3895.15645-.80076.32133-1.13412.4887l.35896.71495Zm-2.51266-1.2804 2.12863 1.26667.4091-.68749-2.12864-1.26666-.40909.68748Zm.08958-.08628c-.0177.03554-.04496.06129-.07015.07612-.01145.00674-.02089.01034-.02689.01219-.00596.00185-.00938.00225-.00972.00228-.00038.00005.00121-.00015.0047.00002.00346.00016.00791.00063.01303.00161.01104.0021.0199.00548.02451.00779l.35897-.71494c-.14262-.07161-.31853-.10866-.48992-.08954-.17335.01934-.40112.10781-.52066.34789l.71613.35658ZM4.75438 6.42392l1.65561-1.6625-.56686-.56451-1.65561 1.6625.56686.56451Zm-.0042.01446c-.00244-.00491-.00593-.01415-.00809-.02566-.00101-.00534-.00151-.01003-.00169-.01375-.00017-.00375.00003-.0056.00002-.0055-.00001.00007-.00035.00321-.0021.00892-.00177.00575-.00524.01498-.01185.02629-.01452.02487-.04009.05241-.07603.07046l-.35897-.71495c-.23983.12042-.32713.34892-.3462.5213-.01892.17102.01772.34677.08878.48947l.71613-.35658Zm1.24783 2.11249L4.7366 6.41337l-.68897.40659 1.26141 2.1375.68897-.40659Zm-.35052 1.3291c.06983-.2805.21515-.64837.3641-.94751l-.71613-.35658c-.1664.33419-.33643.75798-.42428 1.11082l.77631.19327Zm-2.7318.92393 2.44399-.6334-.20069-.77438-2.44398.63338.20068.7744ZM2.9 10.8125c0 .0272-.00676.0436-.0081.0466-.00118.0026.00092-.0028.01088-.0145.00966-.0113.02343-.0246.04079-.038.01729-.0133.03516-.0244.05126-.0325l-.35896-.7149c-.12222.0614-.24478.1526-.34156.266-.09296.1089-.19431.2772-.19431.4873h.8Zm0 2.375v-2.375h-.8v2.375h.8Zm.09483.0384c-.0161-.0081-.03397-.0192-.05126-.0325-.01736-.0134-.03113-.0267-.04079-.038-.00996-.0117-.01207-.0171-.01088-.0145.00134.003.0081.0194.0081.0466h-.8c0 .2101.10135.3784.19431.4873.09678.1134.21934.2046.34156.266l.35896-.7149Zm2.27692.5221-2.36515-.5541-.1825.7789 2.36515.5542.1825-.779Zm.27934.239-.00001-.0001-.74117.3012h.00001l.74117-.3011Zm.4605 1.0805c-.14873-.2987-.29994-.6775-.45948-1.078l-.74321.296c.15581.3912.31995.804.48656 1.1386l.71613-.3566Zm-1.36311 2.4549 1.34025-2.0583-.67041-.4365-1.34025 2.0583.67041.4365Zm.02707-.0255c-.01601-.0161-.02017-.0243-.01979-.0235.0002.0003.00124.0024.00241.0061.00118.0037.00218.008.00277.0128.00125.01-.00001.0161.00006.0158.00025-.0012.00227-.0094.01035-.0256l-.71614-.3566c-.06236.1252-.1106.2847-.08814.4652.023.1848.11393.3421.24162.4703l.56686-.5645Zm1.6556 1.6625-1.6556-1.6625-.56686.5645 1.6556 1.6625.56686-.5645Zm.01012.004c-.016.008-.02389.0099-.0246.01-.00018.0001.00149-.0003.00476-.0005.00333-.0002.00765-.0001.01262.0005.00499.0007.00961.0017.01353.003.00389.0012.00615.0024.00667.0026.00099.0006-.00708-.0035-.0231-.0196l-.56686.5645c.12761.1282.28479.22.47013.2433.18099.0227.34077-.0261.46581-.0889l-.35896-.7149Zm2.10356-1.253L6.3162 19.1771l.4091.6875 2.12863-1.2667-.4091-.6875Zm1.12987.3236c-.26097-.0955-.4713-.1733-.7189-.3225l-.41285.6853c.32015.1929.59581.2929.85682.3885l.27493-.7513Zm.3275.124c-.11694-.047-.22671-.0871-.32751-.124l-.27492.7513c.10205.0373.20056.0734.30425.115l.29818-.7423Zm.869 2.7258-.6307-2.4542-.7748.1991.63071 2.4542.77479-.1991Zm.0068.0162c.028 0 .0449.007.0482.0085.0029.0013-.0023-.0006-.0139-.0106-.0112-.0097-.0245-.0235-.0379-.041-.0133-.0175-.0244-.0355-.0325-.0519l-.7161.3566c.0609.1224.1516.2454.2646.3426.1084.0933.2768.1958.4876.1958v-.8Zm.3154.0083h1.7344v-.8h-1.7344v.8Zm-.9408-2.6023.5518 2.2958.7779-.187-.5519-2.2958-.7778.187Zm.0735-.0102c-.0316 0-.0644-.009-.0913-.0241-.0235-.0132-.0325-.0254-.0292-.0215.0035.0043.0124.0164.0272.0426.0149.0265.03.0566.0506.098l.7162-.3566c-.0338-.0678-.0937-.1927-.1784-.2949-.0956-.1151-.2575-.2435-.4951-.2435v.8Zm-.1099-.0154h.0001l.2197-.7692-.2198.7692Zm-1.43674-.5961c.43893.2644.95637.4358 1.41974.5908l.2539-.7586c-.48272-.1616-.91133-.3069-1.26078-.5175l-.41286.6853Zm-.00828.0148c.03383-.0169.05147-.0168.04718-.0168-.00177 0-.05838-.0006-.1159-.0584l.56686-.5645c-.13635-.1369-.31123-.1771-.45096-.1771-.14226 0-.2823.0397-.40614.1019l.35896.7149Zm-2.019 1.2495 2.04979-1.2667-.42054-.6805-2.04979 1.2667.42054.6805Zm-1.75511-1.3247 1.26141 1.2667.56686-.5645-1.26141-1.2667-.56686.5645Zm1.20752-2.4764-1.26141 1.9792.67463.43 1.26141-1.9792-.67463-.43Zm-.06268.1358v.0792h.8v-.0792h-.8Zm.04193-.2175c.0145.0291.01899.0421.01997.0453.00027.0009-.00277-.0092-.00277-.0257s.00304-.0265.00277-.0256c-.00098.0032-.00547.0161-.01997.0452l.71614.3566c.04852-.0974.10106-.2237.10106-.3762 0-.1524-.05254-.2787-.10106-.3762l-.71614.3566Zm-.57343-1.3981c.15446.4653.32496.9845.58813 1.425l.68674-.4104c-.20986-.3512-.35472-.782-.51561-1.2667l-.75926.2521Zm.06428-.0427c-.03167 0-.06442-.009-.09135-.0241-.02348-.0132-.03246-.0254-.02922-.0215.00352.0042.01239.0163.0272.0426.01496.0265.03005.0566.05065.098l.71614-.3566c-.03377-.0678-.09362-.1928-.17837-.2949-.0956-.1152-.25748-.2435-.49505-.2435v.8Zm-2.4564-.5647 2.36515.5542.1825-.779-2.36515-.5541-.1825.7789Zm-.30875-2.1311v1.7416h.8v-1.7416h-.8Zm2.6739-.9437-2.36515.5542.1825.7789 2.36515-.5541-.1825-.779Zm.0066.0728c0-.0308.0087-.063.02355-.0896.01298-.0233.02498-.0323.0212-.0291-.00414.0035-.01608.0123-.04213.0271-.02632.015-.05622.0301-.09745.0508l.35896.715c.06752-.0339.19217-.0941.29403-.1794.11512-.0963.24184-.2582.24184-.4948h-.8Zm.016-.112.768.224-.768-.224Zm.5925-1.43897c-.26317.44044-.43367.95967-.58813 1.42497l.75926.252c.1609-.48464.30575-.9154.51561-1.26663l-.68674-.41034Zm.05994.17076c-.05227-.05249-.05744-.10437-.05744-.12392 0-.01955.00517-.07143.05744-.12392l.56686.5645c.13111-.13165.1757-.30228.1757-.44058 0-.1383-.04459-.30893-.1757-.44059l-.56686.56451Zm-.11657-.36142v.07916h.8v-.07916h-.8ZM4.83945 6.66734l1.26141 2.05833.6821-.41801-1.26141-2.05833-.6821.41801Zm1.31903-1.75793L4.89707 6.17608l.56686.56451 1.26141-1.26667-.56686-.56451Zm2.54349 1.20865L6.65218 4.85139l-.42054.68055 2.04979 1.26667.42054-.68055Zm-.09951.05802c.05752-.05775.11413-.05837.1159-.05837.00429 0-.01335.00014-.04718-.01685l-.35896.71495c.12384.06218.26388.1019.40614.1019.13974 0 .31461-.0402.45096-.17712l-.56686-.56451Zm1.49674-.65123c-.46336.15509-.98081.32641-1.41974.59086l.41286.68524c.34946-.21055.77806-.35589 1.26078-.51747l-.2539-.75863Zm.0423.06265c0-.03086.0087-.06304.0235-.08968.013-.02326.025-.03222.0212-.02906-.0041.00347-.016.01231-.0421.02714-.0263.01498-.0562.0301-.0974.05079l.3589.71495c.0675-.0339.1922-.09412.294-.17936.1152-.09633.2419-.25825.2419-.49478h-.8Zm.5622-2.46553-.5518 2.375.7792.18106.5519-2.375-.7793-.18106Zm2.1241-.30947h-1.7344v.8h1.7344v-.8Zm.9415 2.68447-.5519-2.375-.7792.18106.5518 2.375.7793-.18106Zm-.0743.0072c.0317 0 .0644.00898.0914.02413.0234.0132.0324.02536.0292.02146-.0035-.00423-.0124-.01631-.0272-.04257-.015-.0265-.0301-.05659-.0507-.09798l-.7161.35658c.0338.06782.0936.19275.1784.29486.0956.1152.2574.24352.495.24352v-.8Zm1.5467.61154c-.4389-.26445-.9564-.43577-1.4197-.59086l-.2539.75863c.4827.16158.9113.30692 1.2607.51747l.4129-.68524Zm.0083-.01485c-.0339.01699-.0515.01685-.0472.01685.0018 0 .0584.00062.1159.05837l-.5669.56451c.1364.13692.3113.17712.451.17712.1423 0 .2823-.03972.4061-.1019l-.3589-.71495Zm2.019-1.24947-2.0498 1.26667.4205.68055 2.0498-1.26667-.4205-.68055Zm1.7551 1.32469-1.2614-1.26667-.5669.56451 1.2614 1.26667.5669-.56451Zm-1.2075 2.47641 1.2614-1.97917-.6747-.42997-1.2614 1.97916.6747.42998Zm.0627-.13582V8.4375h-.8v.07917h.8Zm-.042.21754c-.0145-.02912-.019-.04207-.0199-.04528-.0003-.00091.0027.00916.0027.02565 0 .0165-.003.02656-.0027.02565.0009-.0032.0054-.01615.0199-.04527l-.7161-.35658c-.0485.09745-.1011.22376-.1011.3762 0 .15245.0526.27876.1011.37621l.7161-.35658Zm.5735 1.39809c-.1545-.4653-.325-.98453-.5882-1.42497l-.6867.41034c.2098.35123.3547.78199.5156 1.26673l.7593-.2521Zm-.0643.0427c.0316 0 .0644.009.0913.0241.0235.0132.0325.0254.0292.0215-.0035-.0042-.0123-.0163-.0272-.0426-.0149-.0265-.03-.0566-.0506-.098l-.7161.3566c.0337.0678.0936.1928.1783.2949.0956.1152.2575.2435.4951.2435v-.8Zm2.4564.5647-2.3652-.5542-.1825.779 2.3652.5541.1825-.7789Zm.3087 2.1311v-1.7416h-.8v1.7416h.8Zm-2.6739.9437 2.3652-.5542-.1825-.7789-2.3652.5541.1825.779Zm-.0066-.0728c0 .0308-.0087.063-.0235.0896-.013.0233-.025.0323-.0212.0291.0041-.0035.016-.0123.0421-.0271.0263-.015.0562-.0301.0975-.0508l-.359-.715c-.0675.0339-.1922.0941-.294.1794-.1152.0963-.2419.2582-.2419.4948h.8Zm-.6085 1.551c.2632-.4405.4337-.9597.5882-1.425l-.7593-.2521c-.1609.4847-.3058.9155-.5156 1.2667l.6867.4104Zm.0147.0123c-.0145-.0291-.019-.042-.0199-.0452-.0003-.0009.0027.0091.0027.0256s-.003.0266-.0027.0257c.0009-.0032.0054-.0162.0199-.0453l-.7161-.3566c-.0485.0975-.1011.2238-.1011.3762 0 .1525.0526.2788.1011.3762l.7161-.3566Zm1.2366 1.8571-1.2614-1.9-.6665.4425 1.2614 1.9.6665-.4425Zm-1.3112 1.7702 1.2614-1.2667-.5669-.5645-1.2614 1.2666.5669.5646Zm-2.5338-1.1237 2.0498 1.1875.4011-.6922-2.0498-1.1875-.4011.6922Zm-.0141.0114c.0338-.017.0514-.0169.0471-.0169-.0017 0-.0584-.0006-.1159-.0583l.5669-.5646c-.1364-.1369-.3112-.1771-.451-.1771-.1422 0-.2823.0397-.4061.1019l.359.715Zm-1.3928.576c.4633-.1551.9808-.3264 1.4197-.5909l-.4129-.6852c-.3494.2105-.778.3559-1.2607.5175l.2539.7586Zm-.0423-.0627c0 .0309-.0087.0631-.0236.0897-.013.0233-.025.0322-.0212.0291.0042-.0035.0161-.0123.0422-.0272.0263-.0149.0562-.0301.0974-.0508l-.359-.7149c-.0675.0339-.1921.0941-.294.1793-.1151.0964-.2418.2583-.2418.4948h.8Zm-.5623 2.4656.5519-2.375-.7793-.1811-.5518 2.375.7792.1811ZM11.9987 14.6c-1.4591 0-2.60003-1.1409-2.60003-2.6h-.8c0 1.9009 1.49913 3.4 3.40003 3.4v-.8Zm2.6-2.6c0 1.4591-1.1409 2.6-2.6 2.6v.8c1.9009 0 3.4-1.4991 3.4-3.4h-.8Zm-2.6-2.60001c1.4591 0 2.6 1.14091 2.6 2.60001h.8c0-1.9009-1.4991-3.40001-3.4-3.40001v.8ZM9.39867 12c0-1.4591 1.14093-2.60001 2.60003-2.60001v-.8c-1.9009 0-3.40003 1.49911-3.40003 3.40001h.8Zm2.60003-2.80001c-1.5409 0-2.80003 1.25911-2.80003 2.80001h.8c0-1.0991.90093-2.00001 2.00003-2.00001v-.8ZM14.7987 12c0-1.5409-1.2591-2.80001-2.8-2.80001v.8c1.0991 0 2 .90091 2 2.00001h.8Zm-2.8 2.8c1.5409 0 2.8-1.2591 2.8-2.8h-.8c0 1.0991-.9009 2-2 2v.8ZM9.19867 12c0 1.5409 1.25913 2.8 2.80003 2.8V14c-1.0991 0-2.00003-.9009-2.00003-2h-.8Z" mask="url(#a)"/>
</svg>
