<svg xmlns="http://www.w3.org/2000/svg" fill="none" viewBox="0 0 24 24">
  <path fill="#000" d="m15.672 11.964-4.243-4.243c-.3905-.39046-.3905-1.02353 0-1.414.3905-.39046 1.0235-.39046 1.414 0l4.9499 4.9499c.3905.3905.3905 1.0237 0 1.4142L12.843 17.621c-.3905.3905-1.0235.3905-1.414 0-.3905-.3905-.3905-1.0235 0-1.414l4.243-4.243Z"/>
  <path fill="#000" d="M10.45 11.964 6.207 7.72103c-.39047-.39046-.39047-1.02353 0-1.414.39046-.39046 1.02353-.39046 1.414 0l4.9499 4.94987c.3905.3906.3905 1.0237 0 1.4142L7.621 17.621c-.39047.3905-1.02353.3905-1.414 0-.39047-.3904-.39047-1.0235 0-1.414l4.243-4.243Z"/>
</svg>
