<svg xmlns="http://www.w3.org/2000/svg" fill="none" viewBox="0 0 24 24">
  <path fill="#000" d="M17.9582 18.8336H4.76234c-.08401 0-.16635-.0234-.23781-.0676-.07146-.0441-.12921-.1073-.16678-.1825-.03757-.0751-.05347-.1592-.04593-.2429.00754-.0837.03824-.1636.08864-.2308l.36188-.4822V9.78667c0-1.20323.29312-2.33772.81331-3.33559L2.40381 3.28014 3.68395 2 21.5959 19.9129l-1.2801 1.2792-2.3576-2.3585ZM6.94083 7.81626c-.24461.6281-.36979 1.29636-.36911 1.97041v7.23753h9.57708L6.94083 7.81626ZM19.2374 15.0212l-1.8094-1.8094V9.78667c.0002-.95203-.25-1.88737-.7256-2.71215-.4755-.82478-1.1595-1.51-1.9835-1.98688-.824-.47689-1.7589-.72867-2.711-.73009-.952-.00141-1.8877.24759-2.71306.72202l-1.3118-1.31361c1.08991-.72718 2.35676-1.14485 3.66546-1.20846 1.3087-.06361 2.6101.22923 3.7654.84728s2.1211 1.53812 2.7945 2.66206c.6734 1.12395 1.029 2.40961 1.029 3.71983v5.23453Zm-9.49926 4.7171h4.52346c0 .5998-.2383 1.1751-.6625 1.5993-.4241.4241-.9994.6624-1.5992.6624-.5999 0-1.1752-.2383-1.5993-.6624-.42417-.4242-.66246-.9995-.66246-1.5993Z"/>
</svg>
