<svg width="24" height="24" viewBox="0 0 24 24" fill="none" xmlns="http://www.w3.org/2000/svg">
<path d="M12.8227 3.68719L21.8727 19.3627C21.9561 19.5071 22 19.6709 22 19.8377C22 20.0045 21.9561 20.1683 21.8727 20.3127C21.7893 20.4571 21.6694 20.5771 21.525 20.6605C21.3806 20.7438 21.2168 20.7877 21.05 20.7877H2.95001C2.78324 20.7877 2.61942 20.7438 2.475 20.6605C2.33058 20.5771 2.21065 20.4571 2.12727 20.3127C2.04389 20.1683 2 20.0045 2 19.8377C2 19.6709 2.0439 19.5071 2.12728 19.3627L11.1773 3.68719C11.2607 3.54278 11.3806 3.42286 11.525 3.33949C11.6694 3.25611 11.8332 3.21222 12 3.21222C12.1668 3.21222 12.3306 3.25611 12.475 3.33949C12.6194 3.42286 12.7393 3.54278 12.8227 3.68719V3.68719ZM11.05 16.0376V17.9377H12.95V16.0376H11.05ZM11.05 9.38738V14.1375H12.95V9.38738H11.05Z" fill="black"/>
</svg>