<svg width="14" height="14" viewBox="0 0 14 14" fill="none" xmlns="http://www.w3.org/2000/svg">
<path d="M1.16675 6.99997C1.67357 4.2394 4.09285 2.1474 7.00008 2.1474C9.90731 2.1474 12.3261 4.2394 12.8334 6.99997C12.3266 9.76055 9.90731 11.8525 7.00008 11.8525C4.09285 11.8525 1.67411 9.76055 1.16675 6.99997ZM7.00008 9.69585C7.71507 9.69585 8.40078 9.41182 8.90635 8.90624C9.41193 8.40067 9.69596 7.71496 9.69596 6.99997C9.69596 6.28498 9.41193 5.59928 8.90635 5.0937C8.40078 4.58813 7.71507 4.3041 7.00008 4.3041C6.28509 4.3041 5.59938 4.58813 5.09381 5.0937C4.58824 5.59928 4.30421 6.28498 4.30421 6.99997C4.30421 7.71496 4.58824 8.40067 5.09381 8.90624C5.59938 9.41182 6.28509 9.69585 7.00008 9.69585ZM7.00008 8.6175C6.57109 8.6175 6.15966 8.44708 5.85632 8.14374C5.55297 7.84039 5.38256 7.42897 5.38256 6.99997C5.38256 6.57098 5.55297 6.15956 5.85632 5.85621C6.15966 5.55287 6.57109 5.38245 7.00008 5.38245C7.42908 5.38245 7.8405 5.55287 8.14384 5.85621C8.44719 6.15956 8.61761 6.57098 8.61761 6.99997C8.61761 7.42897 8.44719 7.84039 8.14384 8.14374C7.8405 8.44708 7.42908 8.6175 7.00008 8.6175Z" fill="#242E40"/>
</svg>
