<svg width="14" height="14" viewBox="0 0 14 14" fill="none" xmlns="http://www.w3.org/2000/svg">
<path d="M5.99229 8.64315L5.56762 10.2276L4.52695 9.94843L4.95109 8.36453C4.31621 8.13038 3.72617 7.78915 3.20658 7.35566L2.04628 8.5165L1.28369 7.75392L2.44454 6.59362C1.78925 5.80881 1.34895 4.86731 1.16675 3.86126L1.65178 3.77234C3.20886 4.89502 5.08048 5.49777 7.00008 5.49475C8.99626 5.49475 10.8432 4.85612 12.3484 3.77234L12.8334 3.86072C12.6515 4.86691 12.2113 5.8086 11.5562 6.59362L12.7165 7.75392L11.9539 8.5165L10.7936 7.35566C10.274 7.78915 9.68395 8.13038 9.04908 8.36453L9.47321 9.94897L8.43255 10.2276L8.00787 8.64315C7.34087 8.75745 6.65929 8.75745 5.99229 8.64315Z" fill="#242E40"/>
</svg>
