<svg width="16" height="16" viewBox="0 0 16 16" fill="none" xmlns="http://www.w3.org/2000/svg">
<path d="M6.84822 9.87792L6.36288 11.6887L5.17354 11.3697L5.65827 9.55949C4.9327 9.2919 4.25837 8.90192 3.66455 8.4065L2.33849 9.73318L1.46697 8.86166L2.79365 7.5356C2.04474 6.63867 1.54155 5.56267 1.33331 4.41291L1.88764 4.31128C3.66715 5.59434 5.80615 6.2832 7.99998 6.27974C10.2813 6.27974 12.3921 5.54988 14.1123 4.31128L14.6666 4.41229C14.4587 5.56221 13.9557 6.63843 13.2069 7.5356L14.533 8.86166L13.6615 9.73318L12.3354 8.4065C11.7416 8.90192 11.0673 9.2919 10.3417 9.55949L10.8264 11.3703L9.63708 11.6887L9.15174 9.87792C8.38946 10.0085 7.6105 10.0085 6.84822 9.87792Z" fill="#242E40"/>
</svg>
