<svg width="16" height="16" viewBox="0 0 16 16" fill="none" xmlns="http://www.w3.org/2000/svg">
<path fill-rule="evenodd" clip-rule="evenodd" d="M6.66473 10.7739C8.93417 10.7739 10.7739 8.93417 10.7739 6.66473C10.7739 4.39528 8.93417 2.55554 6.66473 2.55554C4.39528 2.55554 2.55554 4.39528 2.55554 6.66473C2.55554 8.93417 4.39528 10.7739 6.66473 10.7739ZM6.66473 12.3295C9.79327 12.3295 12.3295 9.79327 12.3295 6.66473C12.3295 3.53618 9.79327 1 6.66473 1C3.53618 1 1 3.53618 1 6.66473C1 9.79327 3.53618 12.3295 6.66473 12.3295Z" fill="#242E40"/>
<path d="M10.1933 10.1931C10.4883 9.89817 10.9665 9.89817 11.2615 10.1931L14.4659 13.3976C14.7609 13.6925 14.7609 14.1708 14.4659 14.4657C14.171 14.7607 13.6928 14.7607 13.3978 14.4657L10.1933 11.2613C9.89838 10.9663 9.89838 10.4881 10.1933 10.1931Z" fill="#242E40"/>
</svg>
