<svg width="14" height="14" viewBox="0 0 14 14" fill="none" xmlns="http://www.w3.org/2000/svg">
<path fill-rule="evenodd" clip-rule="evenodd" d="M9.56912 5.96646C9.56912 7.95615 7.95615 9.56912 5.96646 9.56912C3.97676 9.56912 2.36379 7.95615 2.36379 5.96646C2.36379 3.97676 3.97676 2.36379 5.96646 2.36379C7.95615 2.36379 9.56912 3.97676 9.56912 5.96646ZM8.98672 9.90932C8.14986 10.5513 7.10272 10.9329 5.96646 10.9329C3.22356 10.9329 1 8.70935 1 5.96646C1 3.22356 3.22356 1 5.96646 1C8.70935 1 10.9329 3.22356 10.9329 5.96646C10.9329 7.10263 10.5514 8.14969 9.90948 8.98652C9.94006 9.00809 9.96923 9.03256 9.9966 9.05993L12.806 11.8694C13.0647 12.128 13.0647 12.5473 12.806 12.8059C12.5474 13.0645 12.1282 13.0645 11.8696 12.8059L9.06011 9.99641C9.03275 9.96906 9.00829 9.9399 8.98672 9.90932Z" fill="#242E40"/>
</svg>
