<svg width="120" height="72" viewBox="0 0 120 72" fill="none" xmlns="http://www.w3.org/2000/svg">
<path d="M56.2788 37.7752C55.7125 37.339 55.0885 36.9832 54.4246 36.7179C53.7176 36.4709 52.9719 36.3534 52.2232 36.3711C51.4808 36.3241 50.7426 36.5136 50.115 36.9124C49.893 37.0723 49.7131 37.2836 49.5907 37.5281C49.4683 37.7727 49.4071 38.0432 49.4122 38.3165C49.4096 38.6071 49.4673 38.8951 49.5816 39.1624C49.7275 39.4354 49.9294 39.6747 50.1742 39.8644C50.5199 40.1339 50.8948 40.3637 51.2918 40.5495C51.7575 40.7779 52.3248 41.0401 52.9852 41.3446C53.6456 41.6491 54.4584 42.0213 55.0342 42.292C55.5851 42.5588 56.1 42.8942 56.5667 43.29C56.9974 43.6487 57.3418 44.0997 57.5742 44.6095C57.8011 45.1736 57.9106 45.778 57.8959 46.3858C57.9156 47.0849 57.749 47.7767 57.4133 48.3904C57.1034 48.9373 56.6753 49.4083 56.1603 49.7691C55.6176 50.1396 55.0124 50.4089 54.3738 50.5642C53.7012 50.7339 53.01 50.8191 52.3163 50.818C50.9406 50.8169 49.583 50.5046 48.3454 49.9045C47.9464 49.7025 47.5617 49.4736 47.1939 49.2193V46.8256C48.0669 47.48 49.0165 48.0253 50.0218 48.4496C50.7611 48.7499 51.5522 48.9022 52.3502 48.8979C53.2259 48.9674 54.0995 48.741 54.831 48.2551C55.1051 48.0492 55.3253 47.7802 55.4727 47.4708C55.6201 47.1615 55.6904 46.8212 55.6776 46.4788C55.6788 46.1857 55.6122 45.8962 55.4829 45.633C55.3168 45.3372 55.0955 45.0759 54.831 44.8633C54.4615 44.5766 54.0644 44.3273 53.6456 44.119C53.163 43.8737 52.5619 43.5945 51.8337 43.2731C51.1056 42.9517 50.3351 42.6049 49.7424 42.3004C49.2024 42.0417 48.7032 41.7054 48.2607 41.3023C47.89 40.9688 47.6004 40.5551 47.414 40.0928C47.2224 39.5733 47.1305 39.0223 47.1431 38.4688C47.1382 37.9011 47.2719 37.3408 47.5326 36.8363C47.7932 36.3445 48.1537 35.9123 48.5909 35.5676C49.059 35.1813 49.6005 34.8936 50.1827 34.7217C50.8849 34.5231 51.612 34.4262 52.3417 34.4341C53.3546 34.4161 54.3629 34.5735 55.322 34.8994C55.6386 35.0099 55.9447 35.1486 56.2365 35.3138L56.2788 37.7752Z" fill="#001A43"/>
<path fill-rule="evenodd" clip-rule="evenodd" d="M110.34 25.2141C111.373 25.2986 111.889 24.4528 111.618 23.387C111.477 22.8495 111.196 22.3589 110.803 21.9652C110.41 21.5715 109.92 21.2887 109.383 21.1456C108.367 20.951 107.639 21.6785 107.893 22.8373C108.029 23.4264 108.332 23.9639 108.766 24.3854C109.2 24.807 109.746 25.0946 110.34 25.2141Z" fill="#001A43"/>
<path fill-rule="evenodd" clip-rule="evenodd" d="M114.369 32.0741C113.726 31.3213 112.447 29.6042 113.794 29.452C114.64 29.3505 114.64 29.452 115.038 29.6973C115.589 30.0863 116.029 30.5431 116.571 30.5431C117.333 30.4839 117.705 29.6973 117.417 28.6738C117.32 28.2144 117.09 27.7936 116.756 27.463C116.422 27.1324 115.998 26.9065 115.538 26.813C114.996 26.813 114.767 27.2105 114.505 27.6588C114.242 28.1071 113.861 27.9548 113.184 27.9041C112.861 27.8672 112.561 27.7175 112.337 27.4812C112.127 27.2147 111.865 26.994 111.567 26.8325C111.268 26.6711 110.94 26.5723 110.602 26.5423C109.865 26.5423 109.501 26.999 109.086 27.5488C108.671 28.0986 108.138 27.9041 107.198 27.8449C105.987 27.7603 105.987 26.7453 104.294 26.3985C103.921 26.3062 103.532 26.3036 103.159 26.3909C102.785 26.4783 102.438 26.6531 102.145 26.9009C101.852 27.1487 101.623 27.4624 101.475 27.8163C101.328 28.1701 101.267 28.5539 101.297 28.936C101.449 29.7451 101.9 30.4677 102.56 30.9609C103.22 31.4542 104.041 31.6824 104.861 31.6004C106.648 31.4397 106.411 29.9087 107.884 29.7142C109.73 29.5112 109.992 30.6953 109.323 32.4547C108.747 33.9518 107.41 33.3005 106.783 35.1106C106.199 36.8023 106.783 38.8238 108.18 39.4497C109.577 40.0757 111.042 38.6969 111.22 37.0306C111.406 35.2121 110.517 34.9499 110.796 33.6473C111.008 32.6577 110.983 32.0656 111.643 31.778C112.303 31.4904 112.93 32.2601 113.404 32.9283C114.251 34.1464 113.641 35.1444 114.649 36.4216C115.495 37.4874 116.638 37.6397 117.189 36.6754C117.399 36.0858 117.442 35.4496 117.312 34.8373C117.182 34.2251 116.884 33.6609 116.452 33.2075C115.385 32.2178 115.098 32.9368 114.369 32.0741Z" fill="#009FE8"/>
<path d="M24.1388 36.0579C22.97 35.033 21.4603 34.481 19.9054 34.51C18.516 34.476 17.1444 34.8274 15.9429 35.525C15.2323 35.9476 14.6271 36.5261 14.1733 37.2167C13.722 36.5501 13.1472 35.9759 12.48 35.525C11.5373 34.8946 10.4393 34.5352 9.30597 34.486C8.17264 34.4367 7.04757 34.6996 6.05367 35.2459C5.61051 35.4667 5.18826 35.7272 4.79212 36.0241V34.8568H2.53995V50.4625H4.82598V40.2617C4.83205 39.7747 4.94516 39.295 5.15731 38.8565C5.36946 38.4181 5.67546 38.0315 6.05367 37.7242C6.85489 36.9789 7.91397 36.5727 9.00859 36.5908C10.066 36.5713 11.0883 36.9695 11.8534 37.6988C12.2162 38.0151 12.5074 38.405 12.7074 38.8426C12.9074 39.2802 13.0117 39.7553 13.0134 40.2363V50.4625H15.3502V40.2617C15.3553 39.7702 15.4724 39.2863 15.6924 38.8467C15.9124 38.4071 16.2297 38.0232 16.6202 37.7242C17.4366 36.9804 18.5042 36.5725 19.609 36.5823C20.6677 36.557 21.6945 36.9454 22.4708 37.665C22.8478 37.9933 23.1474 38.401 23.348 38.8588C23.5485 39.3165 23.6451 39.813 23.6308 40.3125V50.4625H25.9591V40.3125C25.9935 39.5124 25.8478 38.7149 25.5327 37.9786C25.2177 37.2423 24.7413 36.586 24.1388 36.0579Z" fill="#001A43"/>
<path d="M41.9701 34.857V43.8482C41.9594 44.5028 41.8017 45.1467 41.5086 45.7323C41.2155 46.3178 40.7945 46.8302 40.2768 47.2316C39.2168 48.1916 37.8382 48.725 36.4074 48.7287C35.7117 48.7466 35.0193 48.6257 34.3709 48.3729C33.7225 48.1202 33.131 47.7408 32.6312 47.2569C32.148 46.8352 31.7605 46.3151 31.4947 45.7316C31.229 45.1481 31.0911 44.5147 31.0903 43.8736V34.857H28.7111V43.8482C28.7032 44.7858 28.8981 45.7141 29.2824 46.5695C29.6668 47.425 30.2314 48.1875 30.9379 48.8048C32.4306 50.1593 34.3919 50.8811 36.4074 50.8179C37.4333 50.8747 38.4599 50.7209 39.4239 50.366C40.3879 50.011 41.2689 49.4624 42.0125 48.7541V50.4457H44.3408V34.857H41.9701Z" fill="#001A43"/>
<path d="M81.8402 36.0579C80.6693 35.0365 79.161 34.485 77.6068 34.51C76.2232 34.4791 74.8579 34.8304 73.6613 35.525C72.9532 35.9479 72.3509 36.5264 71.9002 37.2167C71.4459 36.5526 70.8716 35.9789 70.2068 35.525C69.2641 34.8946 68.1661 34.5352 67.0328 34.486C65.8995 34.4367 64.7744 34.6996 63.7805 35.2459C63.3373 35.4667 62.9151 35.7272 62.519 36.0241V34.8568H60.1906V50.4625H62.519V40.2617C62.525 39.7747 62.6381 39.295 62.8503 38.8565C63.0624 38.4181 63.3684 38.0315 63.7466 37.7242C64.5479 36.9789 65.6069 36.5727 66.7016 36.5908C67.2294 36.5778 67.7547 36.6689 68.2472 36.8591C68.7397 37.0492 69.1899 37.3346 69.5718 37.6988C69.9346 38.0151 70.2257 38.405 70.4257 38.8426C70.6258 39.2802 70.7301 39.7553 70.7318 40.2363V50.4625H73.0686V40.2617C73.0737 39.7702 73.1907 39.2863 73.4108 38.8467C73.6308 38.4071 73.9481 38.0232 74.3386 37.7242C75.1575 36.9791 76.2283 36.5712 77.3359 36.5823C78.3921 36.5565 79.4164 36.9451 80.1892 37.665C80.5662 37.9933 80.8658 38.401 81.0663 38.8588C81.2669 39.3165 81.3635 39.813 81.3491 40.3125V50.4625H83.686V40.3125C83.7154 39.5107 83.5649 38.7125 83.2455 37.9763C82.9261 37.2402 82.446 36.5847 81.8402 36.0579Z" fill="#001A43"/>
<path d="M101.602 34.8568V37.1575C101.01 36.5517 100.324 36.0461 99.5695 35.6604C98.139 34.9072 96.5468 34.5124 94.9297 34.51C92.5795 34.4646 90.3001 35.3144 88.5542 36.8868C87.7103 37.595 87.0318 38.4792 86.5663 39.4772C86.1008 40.4752 85.8596 41.5629 85.8596 42.6639C85.8596 43.7649 86.1008 44.8526 86.5663 45.8506C87.0318 46.8486 87.7103 47.7328 88.5542 48.4409C90.3054 50.0102 92.5861 50.8594 94.9382 50.8177C96.5273 50.8241 98.0929 50.4345 99.4933 49.6843C100.28 49.2751 100.995 48.7409 101.61 48.1026V50.4625H103.947V34.8568H101.602ZM101.678 42.6723C101.677 43.4758 101.503 44.2698 101.167 44.9997C100.831 45.7297 100.341 46.3785 99.7304 46.9015C98.4489 48.103 96.746 48.7531 94.989 48.7116C93.2108 48.7497 91.4871 48.0979 90.1799 46.8931C89.5567 46.3782 89.0552 45.7321 88.7112 45.0009C88.3673 44.2698 88.1893 43.4717 88.1902 42.6639C88.1938 41.856 88.3747 41.0586 88.7199 40.328C89.0651 39.5973 89.5663 38.9511 90.1883 38.4347C91.4914 37.2507 93.1895 36.5947 94.9509 36.5947C96.7123 36.5947 98.4104 37.2507 99.7135 38.4347C100.331 38.9555 100.828 39.6042 101.171 40.3359C101.513 41.0676 101.691 41.8648 101.695 42.6723H101.678Z" fill="#001A43"/>
</svg>
